<?xml version="1.0" standalone="no"?>
<!DOCTYPE svg PUBLIC "-//W3C//DTD SVG 1.1//EN" "http://www.w3.org/Graphics/SVG/1.1/DTD/svg11.dtd" >
<svg>
<metadata>
Created by FontForge 20090622 at Sat Jun 20 20:42:00 2015
 By deploy user
&#194;&#169; 2011 Sergiy S. Tkachenko / 4th february
&#194;&#169; 2011 Azoft.com
http://creativecommons.org/licenses/by-nc-nd/3.0
http://creativecommons.org/licenses/by-nc-nd/3.0/deed.ru
</metadata>
<defs>
<font id="AzoftSans" horiz-adv-x="758" >
  <font-face 
    font-family="Azoft Sans"
    font-weight="400"
    font-stretch="normal"
    units-per-em="1000"
    panose-1="2 0 0 0 0 0 0 0 0 0"
    ascent="750"
    descent="-250"
    x-height="642"
    cap-height="642"
    bbox="-34 -272 1229 964"
    underline-thickness="50"
    underline-position="-50"
    unicode-range="U+0020-U+25FF"
  />
<missing-glyph horiz-adv-x="500" 
 />
    <glyph glyph-name=".notdef" horiz-adv-x="500" 
 />
    <glyph glyph-name=".null" horiz-adv-x="0" 
 />
    <glyph glyph-name="nonmarkingreturn" horiz-adv-x="500" 
 />
    <glyph glyph-name="space" unicode=" " horiz-adv-x="500" 
 />
    <glyph glyph-name="space" unicode="&#xa0;" horiz-adv-x="500" 
 />
    <glyph glyph-name="percent" unicode="%" horiz-adv-x="814" 
d="M182 -24l373 685h76l-371 -685h-78zM180 328q-27 0 -50.5 6t-41 23.5t-27.5 50.5t-10 87t10 86.5t27.5 50.5t41 23.5t50.5 5.5t50.5 -5.5t41 -23.5t27.5 -50.5t10 -86.5t-10 -87t-27.5 -50.5t-41 -23.5t-50.5 -6zM180 376q15 0 28 2t23 13t15.5 35.5t5.5 68.5t-5.5 68
t-15.5 35t-23 13t-28 2t-28.5 -2t-23 -13t-15 -35t-5.5 -68t5.5 -68.5t15 -35.5t23 -13t28.5 -2zM632 -24q-27 0 -50.5 6t-41 23.5t-27.5 50.5t-10 87t10 86.5t27.5 50.5t41 23.5t50.5 5.5t50.5 -5.5t41 -23.5t27.5 -50.5t10 -86.5t-10 -87t-27.5 -50.5t-41 -23.5t-50.5 -6z
M632 24q15 0 28 2t23 13t15.5 35.5t5.5 68.5t-5.5 68t-15.5 35t-23 13t-28 2t-28.5 -2t-23 -13t-15 -35t-5.5 -68t5.5 -68.5t15 -35.5t23 -13t28.5 -2z" />
    <glyph glyph-name="ampersand" unicode="&#x26;" horiz-adv-x="688" 
d="M502 77q-42 -42 -89.5 -65t-104.5 -23q-46 0 -89.5 4t-77.5 22t-54.5 56t-20.5 106q0 37 15.5 65t42.5 51t64 42.5t80 39.5l-43 49.5t-29 39t-16.5 32t-5.5 28.5q0 29 7.5 53t27 41.5t53.5 27t87 9.5q48 0 79.5 -9.5t50 -26t25.5 -39t7 -49.5q0 -30 -10 -52t-29 -40.5
t-46 -34.5t-61 -34l142 -174q27 53 38 100q20 -3 36 -7t35 -8q-11 -38 -27.5 -74t-34.5 -64q49 -62 107 -103l-23.5 -26.5l-23.5 -25.5q-22 14 -49.5 41l-54.5 56zM331 409l54.5 30t34 24t18 27t5.5 38q0 19 -4 34t-15 25t-30 15t-50 5t-50.5 -5t-31 -14.5t-15.5 -23
t-4 -31.5t13.5 -37.5t31.5 -39.5zM300 336q-39 -23 -69 -37.5t-50.5 -29.5t-31 -34.5t-10.5 -52.5q0 -59 13.5 -88t36.5 -40t54 -11h66q20 0 42.5 7t43.5 19.5t39.5 29.5t32.5 38z" />
    <glyph glyph-name="quotesingle" unicode="'" horiz-adv-x="192" 
d="M76 433l-20 117v100h77v-100l-9.5 -59t-9.5 -58h-38z" />
    <glyph glyph-name="parenleft" unicode="(" horiz-adv-x="236" 
d="M183 -197l-65.5 76.5t-52.5 83.5t-34.5 111t-12.5 158t12.5 158t34.5 111t52.5 83.5l65.5 76.5l26 -20q-24 -36 -43 -62t-32.5 -50t-22.5 -49.5t-14.5 -59t-8 -79t-2.5 -109.5t2.5 -109.5t8 -79t14.5 -59t22.5 -49.5t32 -50.5l43.5 -61.5z" />
    <glyph glyph-name="parenright" unicode=")" horiz-adv-x="236" 
d="M27 -177l43 61.5t32.5 50.5t22.5 49.5t14.5 59t8 79t2.5 109.5t-2.5 109.5t-8 79t-14.5 59t-22.5 49.5t-32.5 50t-43 62l26 20l65.5 -76.5t52.5 -83.5t34.5 -111t12.5 -158t-12.5 -158t-34.5 -111t-52.5 -83.5l-65.5 -76.5z" />
    <glyph glyph-name="asterisk" unicode="*" horiz-adv-x="347" 
d="M234 381q-11 15 -25.5 37l-36.5 58q-29 -52 -62 -93l-53 35q20 26 40 47t37 36l-55.5 11.5t-57.5 14.5l22 61l62.5 -24t43.5 -19q-5 38 -6.5 67t-2.5 43h66q-1 -26 -3.5 -52t-7.5 -57q26 12 48 21t45 17l16 5l21 -62q-30 -10 -58.5 -15.5t-57.5 -10.5q20 -17 38 -36.5
l41 -45.5z" />
    <glyph glyph-name="plus" unicode="+" horiz-adv-x="443" 
d="M251 293v-185h-61v185h-189v56h189v182h61v-182h191v-56h-191z" />
    <glyph glyph-name="comma" unicode="," horiz-adv-x="185" 
d="M62 -114q26 14 37.5 40t14.5 74h-50v73h77v-83q0 -45 -16.5 -74.5t-49.5 -46.5z" />
    <glyph glyph-name="hyphen" unicode="-" horiz-adv-x="405" 
d="M79 201v63h244v-63h-244z" />
    <glyph glyph-name="period" unicode="." horiz-adv-x="245" 
d="M79 0v73h77v-73h-77z" />
    <glyph glyph-name="slash" unicode="/" horiz-adv-x="270" 
d="M0 -11l198 672h72l-196 -672h-74z" />
    <glyph glyph-name="zero" unicode="0" horiz-adv-x="629" 
d="M314 45q26 0 49.5 1.5t44 9t37 24.5t28.5 47.5t18.5 78t6.5 116.5q0 103 -14.5 159.5t-39.5 82.5t-58.5 30.5t-71.5 4.5q-39 0 -72.5 -4.5t-58 -30.5t-38.5 -82.5t-14 -159.5q0 -69 6.5 -116.5t18 -78t28 -47.5t36.5 -24.5t44 -9t50 -1.5zM314 -11q-53 0 -100 11.5
t-82 47t-55 101t-20 173.5t20 173.5t55 101t82 47t100 11.5q54 0 101 -11.5t82 -47t55 -101t20 -173.5t-20 -173.5t-55 -101t-82 -47t-101 -11.5z" />
    <glyph glyph-name="one" unicode="1" horiz-adv-x="420" 
d="M31 0v57h153v527l-122 -32l-15 54l209 56v-605h156v-57h-381z" />
    <glyph glyph-name="two" unicode="2" horiz-adv-x="540" 
d="M53 0v167q0 39 11 66t29.5 45.5t43.5 30t53.5 19.5t59 14.5t60.5 14.5q35 9 58 16.5t37 19t20 30t6 50.5q0 69 -37 96.5t-109 27.5q-24 0 -52 -3.5t-54 -9t-47.5 -11.5t-32.5 -11l-26 53q16 10 43 17t58 12t63 7.5t60 2.5q39 0 76 -6t66.5 -25t47.5 -54.5t18 -94.5
q0 -55 -14 -87.5t-44 -52.5t-78 -32.5t-115 -28.5q-32 -8 -56 -15t-39.5 -18t-23 -29t-7.5 -48v-105h377v-58h-452z" />
    <glyph glyph-name="three" unicode="3" horiz-adv-x="546" 
d="M60 81q11 -5 32.5 -11t47 -11.5t53.5 -9t52 -3.5q38 0 68 2.5t51 13.5t32 34.5t11 64.5q0 49 -10.5 75.5t-30.5 39.5t-48.5 15.5t-63.5 2.5h-133v57h133q35 0 63 3.5t47.5 16.5t30 39t10.5 71q0 37 -11 60t-31.5 35t-50 16t-67.5 4q-24 0 -52 -3.5t-53.5 -9t-47 -11.5
t-32.5 -11l-27 53q16 10 43 17t58 12t63.5 7.5t60.5 2.5q57 0 99 -7.5t69.5 -26t41 -51.5t13.5 -84q0 -38 -6 -64t-17 -44t-26.5 -31t-33.5 -23q18 -10 33.5 -22.5t27 -30.5t17.5 -44.5t6 -63.5q0 -51 -13.5 -84.5t-41.5 -53t-70 -27t-99 -7.5q-28 0 -60.5 2.5t-63.5 7.5
t-58 12t-43 17z" />
    <glyph glyph-name="four" unicode="4" horiz-adv-x="526" 
d="M353 0v132h-348v67l256 443h80l-261 -452h273v171h72v-171h84v-58h-84v-132h-72z" />
    <glyph glyph-name="five" unicode="5" horiz-adv-x="525" 
d="M74 81q11 -5 32.5 -11t47 -11.5t53.5 -9t52 -3.5q38 0 67.5 5.5t49.5 20t30.5 40.5t10.5 67q0 49 -10 78.5t-29 45.5t-47 21.5t-63 5.5q-41 0 -70.5 -4t-43.5 -19l-75 10v325h383v-58h-308v-213q45 16 114 16q115 0 169.5 -52.5t54.5 -155.5q0 -102 -53 -146t-167 -44
q-28 0 -60.5 2.5t-63.5 7.5t-58 12t-43 17z" />
    <glyph glyph-name="six" unicode="6" horiz-adv-x="574" 
d="M483 563q-11 5 -32.5 11t-47 11.5t-53.5 9t-52 3.5q-37 0 -67 -4t-51.5 -27t-34 -73t-13.5 -143q29 22 70.5 29.5t95.5 7.5q53 0 95 -7.5t71.5 -29.5t45 -61.5t15.5 -103.5q0 -56 -14 -94t-42.5 -61t-71 -32.5t-99.5 -9.5q-54 0 -98 11.5t-75.5 47t-49 101t-17.5 173.5
t17.5 173.5t49 101t75.5 47t98 11.5q28 0 58.5 -2.5t59 -7.5t53 -12t41.5 -17zM137 202q7 -59 21 -90.5t34.5 -46.5t47 -17t58.5 -2q35 0 63 2.5t47.5 15.5t30 41t10.5 81q0 52 -12 81.5t-32 43.5t-48 17t-59 3q-30 0 -58.5 -2.5t-50.5 -15.5t-36 -39t-16 -72z" />
    <glyph glyph-name="seven" unicode="7" horiz-adv-x="455" 
d="M103 0l263 584h-357v58h434v-58l-262 -584h-78z" />
    <glyph glyph-name="eight" unicode="8" horiz-adv-x="579" 
d="M276 -11q-54 1 -93.5 9t-66 27.5t-39 52.5t-12.5 83q0 37 6 63.5t16.5 44.5t26 30.5t33.5 22.5q-18 10 -33 23t-25.5 31t-16.5 44t-6 64q0 51 13 84t40.5 51.5t69 26t98.5 7.5h17q54 -1 93.5 -9t65.5 -27t38.5 -51.5t12.5 -81.5q0 -38 -6 -64t-16.5 -44t-25.5 -31
t-33 -23q18 -10 33.5 -22.5t26 -30.5t16.5 -44.5t6 -63.5q0 -51 -13.5 -84.5t-40.5 -53t-69 -27t-99 -7.5h-17zM302 46q69 0 103.5 25t34.5 90q0 46 -9.5 72.5t-27 39.5t-43 16.5t-57.5 4.5h-26q-32 -1 -57.5 -4.5t-43 -16.5t-27 -39.5t-9.5 -72.5q0 -39 9.5 -61.5
t27.5 -34.5t44 -15.5t59 -3.5h20h2zM303 351q32 1 57 5t42.5 17.5t26.5 39t9 68.5q0 36 -9.5 58t-28 34.5t-45 17t-60.5 5.5q-37 0 -65.5 -4.5t-48 -16.5t-29.5 -34.5t-10 -59.5q0 -43 9 -68.5t26 -39t42.5 -17.5t57.5 -5h26z" />
    <glyph glyph-name="nine" unicode="9" horiz-adv-x="573" 
d="M100 81q11 -5 32.5 -11t47 -11.5t53.5 -9t52 -3.5q25 0 46.5 1t39.5 8t32 21.5t24 41.5t16 69t7 103q-28 -20 -69 -27t-96 -7q-57 0 -99.5 7.5t-71 29.5t-42.5 61.5t-14 103.5q0 56 14 94t42.5 61t71 32.5t99.5 9.5q54 0 98 -11.5t75.5 -47t49 -101t17.5 -173.5
t-17.5 -173.5t-49 -101t-75.5 -47t-98 -11.5q-28 0 -58.5 2.5t-59 7.5t-53.5 12t-41 17zM445 441q-6 59 -20 91t-34.5 47t-47.5 17t-58 2q-35 0 -63 -2.5t-47.5 -15.5t-30 -41.5t-10.5 -80.5q0 -53 10.5 -82t30 -43t47.5 -17t63 -3q34 0 62.5 2.5t49.5 15t33.5 38t14.5 72.5
z" />
    <glyph glyph-name="colon" unicode=":" horiz-adv-x="235" 
d="M76 392v74h77v-74h-77zM76 0v73h77v-73h-77z" />
    <glyph glyph-name="semicolon" unicode=";" horiz-adv-x="131" 
d="M18 -114q26 14 37.5 40t14.5 74h-50v73h77v-83q0 -45 -16.5 -74.5t-49.5 -46.5zM20 392v74h77v-74h-77z" />
    <glyph glyph-name="less" unicode="&#x3c;" horiz-adv-x="522" 
d="M0 290v63l443 178v-58l-386 -151l94 -37.5l98.5 -39l99 -39l94.5 -37.5v-61z" />
    <glyph glyph-name="equal" unicode="=" horiz-adv-x="599" 
d="M79 395v56h441v-56h-441zM79 192v55h441v-55h-441z" />
    <glyph glyph-name="greater" unicode="&#x3e;" horiz-adv-x="522" 
d="M79 108v61l384 153l-384 151v58l443 -179v-62z" />
    <glyph glyph-name="question" unicode="?" horiz-adv-x="511" 
d="M110 146v54q0 43 16.5 72t44 47.5t64 30t77.5 19.5q43 9 68.5 15.5t38 17t16 27.5t3.5 49q0 68 -46 93.5t-135 25.5q-30 0 -61 -3.5t-59 -9t-51 -11.5t-37 -11l-33 53q21 10 50.5 17t63.5 12t70.5 7.5t71.5 2.5q48 0 90.5 -11t75 -32.5t51 -54.5t18.5 -77q0 -43 -10 -72
t-31.5 -48.5t-56 -32t-82.5 -22.5q-40 -8 -67 -15t-43 -17.5t-23 -28t-7 -47.5v-50h-77zM110 0v73h77v-73h-77z" />
    <glyph glyph-name="at" unicode="@" horiz-adv-x="994" 
d="M880 -58q-55 -60 -150.5 -99.5t-229.5 -39.5q-112 0 -192 29.5t-131 84t-74.5 131.5t-23.5 171q0 103 27 185t80 139.5t131.5 88t181.5 30.5q79 0 151.5 -20.5t128 -67t88 -123.5t32.5 -189q0 -39 -5.5 -83t-22.5 -81.5t-47.5 -62t-81.5 -24.5q-40 0 -58.5 18t-25.5 60
q-28 -42 -76 -63.5t-123 -21.5q-42 0 -78 7.5t-62 26t-41 49t-15 76.5t15 76.5t42.5 48.5t65.5 25.5t84 7.5h174q-2 58 -11.5 91.5t-28.5 50.5t-49 22t-73 5q-11 0 -25.5 -0.5t-34 -3.5t-44.5 -9t-58 -17l-26 42q39 18 85.5 26t105.5 8q57 0 98.5 -9t68 -35.5t39.5 -73.5
t13 -123v-7.5v-17v-36v-64.5q0 -35 3 -57.5t10 -35.5t16.5 -18t23.5 -5q36 0 55 25t27.5 63.5t9.5 85t0 90.5q-2 73 -33 128.5t-81.5 93.5t-116 57.5t-135.5 19.5q-87 0 -153.5 -29t-111 -81t-67.5 -125t-23 -161q0 -188 100 -279.5t280 -91.5q64 0 117.5 10.5t96.5 29.5
t75.5 43.5t54.5 53.5zM470 274q-33 0 -61 -3.5t-48.5 -15t-31.5 -33.5t-11 -59t11 -59t29.5 -34t44 -16t54.5 -4q62 0 99.5 13t57 40.5t25.5 70t6 100.5h-175z" />
    <glyph glyph-name="A" unicode="A" horiz-adv-x="657" 
d="M554 0l-81 201h-291l-80 -201h-74l257 642h86l257 -642h-74zM369 461l-38 121h-6l-38 -121l-84 -209h250z" />
    <glyph glyph-name="B" unicode="B" horiz-adv-x="675" 
d="M79 0v642h275q71 0 119 -6.5t76.5 -24t40.5 -49.5t12 -83q0 -38 -5 -63t-15.5 -42.5t-26 -29.5t-35.5 -22q20 -10 36.5 -21.5t28 -29t17.5 -43t6 -62.5q0 -51 -12.5 -83.5t-41.5 -50.5t-77 -25t-119 -7h-279zM360 57q47 0 80.5 1.5t54.5 11.5t30.5 32.5t9.5 63.5
q0 49 -9 75t-28.5 37.5t-50.5 13.5t-75 2h-221v-237h209zM372 351q44 0 74 3t48.5 15t26.5 37t8 70q0 37 -9.5 59t-30 33t-53.5 14t-80 3h-205v-234h221z" />
    <glyph glyph-name="C" unicode="C" horiz-adv-x="650" 
d="M614 31q-42 -20 -103.5 -32t-131.5 -12q-74 0 -133.5 12.5t-101.5 48.5t-65 101.5t-23 171.5t23 171.5t65 101.5t101.5 48.5t133.5 12.5q140 0 225 -40l-33 -53q-29 10 -79 23t-111 13q-54 0 -100 -7.5t-79.5 -35.5t-52.5 -83.5t-19 -150.5q0 -96 19 -151.5t52.5 -83
t79.5 -35t100 -7.5q30 0 60 4.5t56 10.5t48 13t36 12z" />
    <glyph glyph-name="D" unicode="D" horiz-adv-x="689" 
d="M79 0v642h230q73 0 133 -9.5t102 -42.5t65 -96t23 -169q0 -107 -20.5 -171.5t-60.5 -98.5t-98 -44.5t-134 -10.5h-240zM309 58q69 0 117 8t77 36t42 81t13 143q0 95 -19 147.5t-52.5 77t-79.5 29.5t-100 5h-156v-527h158z" />
    <glyph glyph-name="E" unicode="E" horiz-adv-x="566" 
d="M79 0v642h480l-10 -57h-398v-224h323v-57h-323v-246h408l-10 -58h-470z" />
    <glyph glyph-name="F" unicode="F" horiz-adv-x="526" 
d="M150 303v-303h-71v642h447l-10 -57h-366v-224h325v-58h-325z" />
    <glyph glyph-name="G" unicode="G" horiz-adv-x="672" 
d="M560 304h-205l10 57h263v-316q-20 -12 -49.5 -22t-64 -17.5t-72 -11.5t-73.5 -4q-76 0 -134.5 12t-98 48t-60 102t-20.5 173q0 106 23 171t65 100t101.5 47t133.5 12q70 0 129 -11t101 -31l-33 -53q-14 5 -35 11.5t-46.5 12.5t-54.5 10t-59 4q-54 0 -100 -7t-79.5 -34
t-52.5 -81.5t-19 -149.5q0 -90 13 -145t43 -84.5t78.5 -39.5t119.5 -10q23 0 48 3.5t48.5 8.5t44.5 12t35 14v219z" />
    <glyph glyph-name="H" unicode="H" horiz-adv-x="681" 
d="M530 0v312h-380v-312h-71v642h71v-271h380v271h71v-642h-71z" />
    <glyph glyph-name="I" unicode="I" horiz-adv-x="241" 
d="M79 0v642h72v-642h-72z" />
    <glyph glyph-name="J" unicode="J" horiz-adv-x="322" 
d="M6 48q47 0 80 2.5t53.5 17t30 44.5t9.5 85v445h71v-441q0 -66 -12.5 -106.5t-41.5 -62.5t-77 -29.5t-119 -7.5z" />
    <glyph glyph-name="K" unicode="K" horiz-adv-x="675" 
d="M526 0l-215 292h-161v-292h-71v642h71v-293h161l215 293h94l-122.5 -160.5l-123.5 -160.5l123.5 -161l122.5 -160h-94z" />
    <glyph glyph-name="L" unicode="L" horiz-adv-x="532" 
d="M79 0v642h71v-584h382l-10 -58h-443z" />
    <glyph glyph-name="M" unicode="M" horiz-adv-x="855" 
d="M707 0v562h-3l-238 -562h-78l-238 562h-3v-562h-68v642h108l198 -462l42 -121l42 121l198 462h108v-642h-68z" />
    <glyph glyph-name="N" unicode="N" horiz-adv-x="685" 
d="M526 0l-379 544v-544h-68v642h80l379 -542v542h67v-642h-79z" />
    <glyph glyph-name="O" unicode="O" 
d="M379 599q-49 0 -94 -4.5t-79 -30.5t-54.5 -82.5t-20.5 -159.5q0 -69 9.5 -116.5t26 -78t39.5 -47.5t50.5 -24.5t58.5 -9t64 -1.5q32 0 63 1.5t58.5 9t51 24.5t40 47.5t26 78t9.5 116.5q0 103 -21 159.5t-55.5 82.5t-79 30.5t-92.5 4.5zM57 322q0 108 25.5 173.5t69 101
t102 47t125.5 11.5t125.5 -11.5t102 -47t69 -101t25.5 -173.5t-25.5 -173.5t-69 -101t-102 -47t-125.5 -11.5t-125.5 11.5t-102 47t-69 101t-25.5 173.5z" />
    <glyph glyph-name="P" unicode="P" horiz-adv-x="595" 
d="M79 0v642h259q71 0 119 -7.5t77 -29.5t41.5 -62.5t12.5 -106.5t-12.5 -106.5t-41.5 -62t-77 -29t-119 -7.5h-187v-231h-72zM513 439q0 52 -9.5 81.5t-30 44t-53.5 17.5t-80 3h-189v-297h189q47 0 80 3t53.5 17t30 43t9.5 82v6z" />
    <glyph glyph-name="Q" unicode="Q" horiz-adv-x="766" 
d="M712 -71q-52 -46 -121 -46q-31 0 -60 9.5t-57.5 21t-57 21t-57.5 9.5t-54.5 -9.5t-61.5 -39.5v56q26 28 65 40q-56 4 -104 20.5t-83 53.5t-55 99t-20 158q0 108 25.5 173.5t69 101t102 47t125.5 11.5t125.5 -11.5t102 -47t69 -101t25.5 -173.5q0 -96 -20 -158t-55.5 -99
t-84 -53.5t-104.5 -20.5q24 -6 47 -15.5t45 -17.5t42.5 -14t39.5 -6q27 0 57 14t55 35v-58zM368 45q32 0 63 1.5t58.5 9t51 24.5t40 47.5t26 78t9.5 116.5q0 103 -21 159.5t-55.5 82.5t-79 30.5t-92.5 4.5q-49 0 -94 -4.5t-79 -30.5t-54.5 -82.5t-20.5 -159.5
q0 -69 9.5 -116.5t26 -78t39.5 -47.5t50.5 -24.5t58.5 -9t64 -1.5z" />
    <glyph glyph-name="R" unicode="R" horiz-adv-x="669" 
d="M527 0l-170 231h-206v-231h-72v642h260q71 0 119 -7.5t77 -29.5t41.5 -62.5t12.5 -106.5q0 -53 -7.5 -89t-25 -59t-46 -35.5t-70.5 -17.5l178 -235h-91zM341 288q47 0 80 3.5t53.5 18t30 44t9.5 82.5q0 55 -9.5 85t-30 44t-53.5 17t-80 3h-190v-297h190z" />
    <glyph glyph-name="S" unicode="S" horiz-adv-x="624" 
d="M522 562q-14 5 -37 11t-51 11.5t-59 9t-61 3.5q-89 0 -135 -25.5t-46 -93.5q0 -32 3.5 -49t16 -27.5t37.5 -17t69 -15.5q56 -12 112.5 -21.5t102.5 -28t75.5 -51.5t30.5 -91q0 -58 -19 -94.5t-53 -57.5t-81.5 -28.5t-104.5 -7.5q-35 0 -74 3.5t-76.5 10.5t-70.5 15.5
t-55 19.5l15 28t16 27q15 -6 39.5 -14t57.5 -15t73 -12t84 -5q42 0 75.5 2t57 14t36 37.5t12.5 72.5q0 30 -7 47.5t-23 28t-43 16.5t-67 14q-84 16 -143 28.5t-95.5 32t-53 52t-16.5 87.5q0 44 18.5 77t51 54.5t75 32.5t90.5 11q35 0 71.5 -2.5t70.5 -7.5t63.5 -12t50.5 -17
z" />
    <glyph glyph-name="T" unicode="T" horiz-adv-x="543" 
d="M234 0v585h-227l10 57h529l-10 -57h-230v-585h-72z" />
    <glyph glyph-name="U" unicode="U" horiz-adv-x="686" 
d="M543 642h71v-372q0 -75 -10 -128.5t-39 -87t-82 -49.5t-139 -16t-139.5 16t-83 49.5t-40 87t-10.5 128.5v372h71v-371q0 -60 6.5 -102.5t27.5 -69.5t61 -39.5t107 -12.5t106.5 12.5t60 39.5t26.5 69.5t6 102.5v371z" />
    <glyph glyph-name="V" unicode="V" horiz-adv-x="655" 
d="M278 0l-257 642h74l185 -461l38 -121h6l38 121l185 461h74l-257 -642h-86z" />
    <glyph glyph-name="W" unicode="W" horiz-adv-x="908" 
d="M600 0l-147 532l-138 -532h-85l-187 642h74l153 -582h6l142 582h69l153 -582h6l142 582h76l-179 -642h-85z" />
    <glyph glyph-name="X" unicode="X" horiz-adv-x="696" 
d="M555 0l-171 232v-1l-38 58l-24.5 -38.5t-17.5 -23.5l-170 -227h-85l261 336l-55 74l-59 78.5l-59 79l-56 74.5h83l123 -165q20 -25 35.5 -50l27.5 -44q11 18 29.5 42.5l34.5 44.5l136 172h75l-236 -302l127 -169.5l127 -170.5h-88z" />
    <glyph glyph-name="Y" unicode="Y" horiz-adv-x="618" 
d="M269 0v274l-127.5 184l-128.5 184h86l66 -97.5l66 -97.5q20 -29 41.5 -64l38.5 -63l37.5 62.5t45.5 68.5l66 95.5l67 95.5h79l-265 -368v-274h-72z" />
    <glyph glyph-name="Z" unicode="Z" horiz-adv-x="585" 
d="M28 0v67l439 518h-419l10 57h485v-63l-444 -521h456l-10 -58h-517z" />
    <glyph glyph-name="bracketleft" unicode="[" horiz-adv-x="248" 
d="M79 -186v936h169l-10 -47h-94v-842h104l-10 -47h-159z" />
    <glyph glyph-name="backslash" unicode="\" horiz-adv-x="270" 
d="M196 -11l-196 672h72l198 -672h-74z" />
    <glyph glyph-name="bracketright" unicode="]" horiz-adv-x="253" 
d="M0 -186l10 47h94v842h-104l10 47h159v-936h-169z" />
    <glyph glyph-name="asciicircum" unicode="^" horiz-adv-x="499" 
d="M412 500l-162 194l-160 -194h-69l200 251h58l199 -251h-66z" />
    <glyph glyph-name="underscore" unicode="_" horiz-adv-x="708" 
d="M79 -186v38h549v-38h-549z" />
    <glyph glyph-name="grave" unicode="`" horiz-adv-x="170" 
d="M97 547l-94 107h86l53 -107h-45z" />
    <glyph glyph-name="a" unicode="a" horiz-adv-x="703" 
d="M648 -1q-50 7 -74 29t-32 71q-35 -53 -93.5 -81t-142.5 -28q-57 0 -104.5 9t-81.5 31.5t-53 61t-19 96.5t19 96.5t53 61t81.5 31.5t104.5 9h218q-3 74 -15 116.5t-36.5 63.5t-63 26.5t-95.5 5.5q-30 0 -59 -4t-54.5 -10t-46.5 -12.5t-35 -11.5l-33 53q42 20 101 31
t129 11q81 0 135.5 -12t87 -47t46.5 -100t14 -171v-16v-112q0 -38 3.5 -63.5t10.5 -42t18.5 -25.5t27.5 -13zM525 328h-219q-42 0 -77 -4.5t-60 -19t-39 -42t-14 -74.5t14 -74.5t39.5 -42t60.5 -19t77 -4.5q71 0 114 18t66 53.5t30.5 87t7.5 119.5v2z" />
    <glyph glyph-name="b" unicode="b" horiz-adv-x="675" 
d="M79 0v642h275q71 0 119 -6.5t76.5 -24t40.5 -49.5t12 -83q0 -38 -5 -63t-15.5 -42.5t-26 -29.5t-35.5 -22q20 -10 36.5 -21.5t28 -29t17.5 -43t6 -62.5q0 -51 -12.5 -83.5t-41.5 -50.5t-77 -25t-119 -7h-279zM360 57q47 0 80.5 1.5t54.5 11.5t30.5 32.5t9.5 63.5
q0 49 -9 75t-28.5 37.5t-50.5 13.5t-75 2h-221v-237h209zM372 351q44 0 74 3t48.5 15t26.5 37t8 70q0 37 -9.5 59t-30 33t-53.5 14t-80 3h-205v-234h221z" />
    <glyph glyph-name="c" unicode="c" horiz-adv-x="650" 
d="M614 31q-42 -20 -103.5 -32t-131.5 -12q-74 0 -133.5 12.5t-101.5 48.5t-65 101.5t-23 171.5t23 171.5t65 101.5t101.5 48.5t133.5 12.5q140 0 225 -40l-33 -53q-29 10 -79 23t-111 13q-54 0 -100 -7.5t-79.5 -35.5t-52.5 -83.5t-19 -150.5q0 -96 19 -151.5t52.5 -83
t79.5 -35t100 -7.5q30 0 60 4.5t56 10.5t48 13t36 12z" />
    <glyph glyph-name="d" unicode="d" horiz-adv-x="689" 
d="M79 0v642h230q73 0 133 -9.5t102 -42.5t65 -96t23 -169q0 -107 -20.5 -171.5t-60.5 -98.5t-98 -44.5t-134 -10.5h-240zM309 58q69 0 117 8t77 36t42 81t13 143q0 95 -19 147.5t-52.5 77t-79.5 29.5t-100 5h-156v-527h158z" />
    <glyph glyph-name="e" unicode="e" horiz-adv-x="704" 
d="M630 38q-21 -10 -51 -19t-64.5 -16t-71.5 -11.5t-72 -4.5q-75 0 -133 12t-98 47.5t-61 99t-21 167.5q0 108 22.5 175t63 104t96 50t122.5 13q72 0 127.5 -14t93.5 -50.5t58 -99.5t20 -162v-26h-529q1 -83 15 -133.5t44 -78.5t78 -37.5t117 -9.5q30 0 61.5 5.5t60 13
t52 15.5l37.5 13zM585 361q-3 77 -18.5 124t-43 72.5t-68 33.5t-93.5 8q-46 0 -86 -5.5t-70.5 -28.5t-49.5 -71t-23 -133h452z" />
    <glyph glyph-name="f" unicode="f" horiz-adv-x="526" 
d="M150 303v-303h-71v642h447l-10 -57h-366v-224h325v-58h-325z" />
    <glyph glyph-name="g" unicode="g" horiz-adv-x="672" 
d="M560 304h-205l10 57h263v-316q-20 -12 -49.5 -22t-64 -17.5t-72 -11.5t-73.5 -4q-76 0 -134.5 12t-98 48t-60 102t-20.5 173q0 106 23 171t65 100t101.5 47t133.5 12q70 0 129 -11t101 -31l-33 -53q-14 5 -35 11.5t-46.5 12.5t-54.5 10t-59 4q-54 0 -100 -7t-79.5 -34
t-52.5 -81.5t-19 -149.5q0 -90 13 -145t43 -84.5t78.5 -39.5t119.5 -10q23 0 48 3.5t48.5 8.5t44.5 12t35 14v219z" />
    <glyph glyph-name="h" unicode="h" horiz-adv-x="681" 
d="M530 0v312h-380v-312h-71v642h71v-271h380v271h71v-642h-71z" />
    <glyph glyph-name="i" unicode="i" horiz-adv-x="241" 
d="M79 0v642h72v-642h-72z" />
    <glyph glyph-name="j" unicode="j" horiz-adv-x="322" 
d="M6 48q47 0 80 2.5t53.5 17t30 44.5t9.5 85v445h71v-441q0 -66 -12.5 -106.5t-41.5 -62.5t-77 -29.5t-119 -7.5z" />
    <glyph glyph-name="k" unicode="k" horiz-adv-x="680" 
d="M627 0q-25 -4 -46.5 -2.5t-42.5 12.5t-43.5 33t-50.5 60l-142 189h-158v-292h-71v642h71v-293h158l223 293h89l-122.5 -160.5l-123.5 -160.5l142 -186q23 -30 40 -47t31.5 -25.5t28 -10t28.5 0.5z" />
    <glyph glyph-name="l" unicode="l" horiz-adv-x="532" 
d="M79 0v642h71v-584h382l-10 -58h-443z" />
    <glyph glyph-name="m" unicode="m" horiz-adv-x="855" 
d="M707 0v562h-3l-238 -562h-78l-238 562h-3v-562h-68v642h108l198 -462l42 -121l42 121l198 462h108v-642h-68z" />
    <glyph glyph-name="n" unicode="n" horiz-adv-x="685" 
d="M526 0l-379 544v-544h-68v642h80l379 -542v542h67v-642h-79z" />
    <glyph glyph-name="o" unicode="o" 
d="M379 599q-49 0 -94 -4.5t-79 -30.5t-54.5 -82.5t-20.5 -159.5q0 -69 9.5 -116.5t26 -78t39.5 -47.5t50.5 -24.5t58.5 -9t64 -1.5q32 0 63 1.5t58.5 9t51 24.5t40 47.5t26 78t9.5 116.5q0 103 -21 159.5t-55.5 82.5t-79 30.5t-92.5 4.5zM57 322q0 108 25.5 173.5t69 101
t102 47t125.5 11.5t125.5 -11.5t102 -47t69 -101t25.5 -173.5t-25.5 -173.5t-69 -101t-102 -47t-125.5 -11.5t-125.5 11.5t-102 47t-69 101t-25.5 173.5z" />
    <glyph glyph-name="p" unicode="p" horiz-adv-x="595" 
d="M79 0v642h259q71 0 119 -7.5t77 -29.5t41.5 -62.5t12.5 -106.5t-12.5 -106.5t-41.5 -62t-77 -29t-119 -7.5h-187v-231h-72zM513 439q0 52 -9.5 81.5t-30 44t-53.5 17.5t-80 3h-189v-297h189q47 0 80 3t53.5 17t30 43t9.5 82v6z" />
    <glyph glyph-name="q" unicode="q" horiz-adv-x="753" 
d="M712 -71q-52 -46 -121 -46q-31 0 -60 9.5t-57.5 21t-57 21t-57.5 9.5t-54.5 -9.5t-61.5 -39.5v56q26 28 65 40q-56 4 -104 20.5t-83 53.5t-55 99t-20 158q0 108 25.5 173.5t69 101t102 47t125.5 11.5t125.5 -11.5t102 -47t69 -101t25.5 -173.5q0 -96 -20 -158t-55.5 -99
t-84 -53.5t-104.5 -20.5q24 -6 47 -15.5t45 -17.5t42.5 -14t39.5 -6q27 0 57 14t55 35v-58zM368 45q32 0 63 1.5t58.5 9t51 24.5t40 47.5t26 78t9.5 116.5q0 103 -21 159.5t-55.5 82.5t-79 30.5t-92.5 4.5q-49 0 -94 -4.5t-79 -30.5t-54.5 -82.5t-20.5 -159.5
q0 -69 9.5 -116.5t26 -78t39.5 -47.5t50.5 -24.5t58.5 -9t64 -1.5z" />
    <glyph glyph-name="r" unicode="r" horiz-adv-x="681" 
d="M628 0q-25 -4 -46.5 -2.5t-42.5 12.5t-43.5 33t-50.5 60l-94 128h-18h-187v-231h-72v642h259q71 0 119 -7.5t77 -29.5t41.5 -62.5t12.5 -106.5q0 -53 -7.5 -89t-25 -59t-46 -35.5t-70.5 -17.5l77 -100q23 -30 40 -47t31.5 -25.5t28 -10t28.5 0.5zM335 288q47 0 80 3.5
t53.5 18t30 44t9.5 82.5q0 55 -9.5 85t-30 44t-53.5 17t-80 3h-189v-297h189z" />
    <glyph glyph-name="s" unicode="s" horiz-adv-x="624" 
d="M522 562q-14 5 -37 11t-51 11.5t-59 9t-61 3.5q-89 0 -135 -25.5t-46 -93.5q0 -32 3.5 -49t16 -27.5t37.5 -17t69 -15.5q56 -12 112.5 -21.5t102.5 -28t75.5 -51.5t30.5 -91q0 -58 -19 -94.5t-53 -57.5t-81.5 -28.5t-104.5 -7.5q-35 0 -74 3.5t-76.5 10.5t-70.5 15.5
t-55 19.5l15 28t16 27q15 -6 39.5 -14t57.5 -15t73 -12t84 -5q42 0 75.5 2t57 14t36 37.5t12.5 72.5q0 30 -7 47.5t-23 28t-43 16.5t-67 14q-84 16 -143 28.5t-95.5 32t-53 52t-16.5 87.5q0 44 18.5 77t51 54.5t75 32.5t90.5 11q35 0 71.5 -2.5t70.5 -7.5t63.5 -12t50.5 -17
z" />
    <glyph glyph-name="t" unicode="t" horiz-adv-x="543" 
d="M234 0v585h-227l10 57h529l-10 -57h-230v-585h-72z" />
    <glyph glyph-name="u" unicode="u" horiz-adv-x="668" 
d="M543 642h71v-372q0 -75 -10 -128.5t-39 -87t-82 -49.5t-139 -16t-139.5 16t-83 49.5t-40 87t-10.5 128.5v372h71v-371q0 -60 6.5 -102.5t27.5 -69.5t61 -39.5t107 -12.5t106.5 12.5t60 39.5t26.5 69.5t6 102.5v371z" />
    <glyph glyph-name="v" unicode="v" horiz-adv-x="655" 
d="M278 0l-257 642h74l185 -461l38 -121h6l38 121l185 461h74l-257 -642h-86z" />
    <glyph glyph-name="w" unicode="w" horiz-adv-x="908" 
d="M600 0l-147 532l-138 -532h-85l-187 642h74l153 -582h6l142 582h69l153 -582h6l142 582h76l-179 -642h-85z" />
    <glyph glyph-name="x" unicode="x" horiz-adv-x="696" 
d="M555 0l-171 232v-1l-38 58l-24.5 -38.5t-17.5 -23.5l-170 -227h-85l261 336l-55 74l-59 78.5l-59 79l-56 74.5h83l123 -165q20 -25 35.5 -50l27.5 -44q11 18 29.5 42.5l34.5 44.5l136 172h75l-236 -302l127 -169.5l127 -170.5h-88z" />
    <glyph glyph-name="y" unicode="y" horiz-adv-x="618" 
d="M269 0v274l-127.5 184l-128.5 184h86l66 -97.5l66 -97.5q20 -29 41.5 -64l38.5 -63l37.5 62.5t45.5 68.5l66 95.5l67 95.5h79l-265 -368v-274h-72z" />
    <glyph glyph-name="z" unicode="z" horiz-adv-x="585" 
d="M28 0v67l439 518h-419l10 57h485v-63l-444 -521h456l-10 -58h-517z" />
    <glyph glyph-name="braceleft" unicode="{" horiz-adv-x="282" 
d="M242 -197q-22 0 -38 1t-27 4q-26 8 -43.5 27.5t-26.5 60.5q-2 10 -3.5 29.5t-2.5 43l-2 49t-2 47.5t-2 39t-2 23q-8 34 -31.5 54.5t-59.5 23.5v54q31 3 50 15t29.5 34.5t14.5 56.5t4 81q0 60 3.5 98t13.5 61t26.5 34.5t42.5 17.5q8 2 22.5 3t33.5 1h16v-51h-5
q-26 0 -44 -3.5t-28.5 -15t-15 -32t-4.5 -53.5q0 -60 -1.5 -97t-3.5 -52q-3 -23 -8 -39.5t-16 -30.5t-31.5 -27t-55.5 -29q35 -12 57.5 -27.5t35.5 -38.5t18 -56.5t5 -82.5q0 -56 1 -90t9 -52.5t27 -24.5t55 -6h5v-50h-16z" />
    <glyph glyph-name="bar" unicode="|" horiz-adv-x="227" 
d="M79 -197v858h55v-858h-55z" />
    <glyph glyph-name="braceright" unicode="}" horiz-adv-x="283" 
d="M25 -197v50h5q36 0 55 6t27 24.5t9 52.5t1 90q0 49 5 82.5t18 56.5t35.5 38.5t57.5 27.5q-35 16 -55.5 29t-31.5 27t-16 30.5t-8 39.5q-2 15 -3.5 52t-1.5 97q0 33 -4.5 53.5t-15 32t-28.5 15t-44 3.5h-5v51h16q19 0 33.5 -1t22.5 -3q26 -6 42.5 -17.5t26.5 -34.5
t13.5 -61t3.5 -98q0 -47 4 -81t14.5 -56.5t29.5 -34.5t50 -15v-54q-36 -3 -59.5 -23.5t-31.5 -54.5q-2 -6 -2.5 -23t-1.5 -39t-2 -47.5l-2 -49t-2.5 -43t-3.5 -29.5q-9 -41 -26.5 -60.5t-43.5 -27.5q-11 -3 -27 -4t-38 -1h-16z" />
    <glyph glyph-name="asciitilde" unicode="~" horiz-adv-x="589" 
d="M527 302q-52 -46 -121 -46q-14 0 -27 1t-27 5q-12 3 -35.5 12l-50 18.5t-51.5 17t-41 7.5q-29 0 -54.5 -9.5t-61.5 -39.5v66q49 49 123 49q26 0 60 -8q18 -5 43 -14l50 -18t47 -15.5t34 -6.5q27 0 57 14t55 35v-68z" />
    <glyph glyph-name="exclamdown" unicode="&#xa1;" horiz-adv-x="170" 
d="M45 392v74h78v-74h-78zM41 -184v136l25 346h35l26 -346v-136h-86z" />
    <glyph glyph-name="cent" unicode="&#xa2;" horiz-adv-x="650" 
d="M346 -118v106q-66 2 -120 17t-91.5 51.5t-58 100.5t-20.5 164t20.5 164t58 100.5t91.5 51.5t120 17v86h55v-85q124 -3 203 -40l-33 -53q-26 9 -71 21t-99 14v-553q28 1 54.5 6t50 11t43 12t32.5 11l33 -53q-38 -18 -94 -29.5t-119 -13.5v-106h-55zM346 597
q-48 -2 -87.5 -12.5t-68 -40t-44.5 -83t-16 -140.5q0 -88 16 -141.5t44.5 -83t68 -40t87.5 -12.5v553z" />
    <glyph glyph-name="sterling" unicode="&#xa3;" horiz-adv-x="516" 
d="M27 51q46 26 76.5 72t30.5 112q0 15 -2.5 32t-7.5 36h-92v46h77l-7 26q-7 24 -11 39.5t-6 27t-2.5 20t-0.5 19.5q0 40 15 73t42 57t64.5 37t83.5 13q81 0 133.5 -40t66.5 -114l-64 -8q-11 53 -48.5 84.5t-88.5 31.5q-29 0 -53.5 -9.5t-42 -26t-27.5 -39t-10 -47.5
q0 -57 28 -144h149v-46h-141q8 -17 11.5 -29t3.5 -22q0 -38 -25 -86.5t-82 -107.5q34 17 68.5 19t68 -2.5t66 -12.5t64 -12t61.5 -1t59 20q5 -17 10.5 -29t10.5 -26q-35 -20 -73 -21.5t-77.5 5t-79.5 16.5t-78.5 14.5t-75 -2.5t-69.5 -34z" />
    <glyph glyph-name="currency" unicode="&#xa4;" horiz-adv-x="571" 
d="M400 175q-55 -38 -115 -38q-58 0 -114 38l-66 -64l-38 40l64 62q-37 53 -37 109q0 26 9 54t28 54l-65 62l39 40l65 -62q55 35 115 35q62 0 115 -35l65 63q12 -11 20.5 -21t19.5 -21l-64 -61q19 -26 28 -54t9 -54q0 -56 -37 -109l31 -29.5l33 -31.5l-40 -42zM191 414
q-40 -40 -40 -92q0 -53 40 -92q40 -37 93 -37q58 0 96 37q40 39 40 92q0 52 -40 92q-38 37 -96 37q-53 0 -93 -37z" />
    <glyph glyph-name="yen" unicode="&#xa5;" horiz-adv-x="546" 
d="M307 149v-149h-66v149h-199v43h199v85h-199v48h172l-195 317h70q34 -58 69 -111t69 -111l12.5 -23.5l12.5 -25t11 -24l8 -18.5l22.5 44.5l26.5 49.5l128 219h78l-194 -317h172v-48h-197v-85h197v-43h-197z" />
    <glyph glyph-name="brokenbar" unicode="&#xa6;" horiz-adv-x="188" 
d="M79 321v340h55v-340h-55zM79 -197v341h55v-341h-55z" />
    <glyph glyph-name="section" unicode="&#xa7;" horiz-adv-x="515" 
d="M359 -8q-14 17 -58 46.5t-107 67.5l-61 37.5t-37 26.5q-26 21 -42 51t-16 63q0 40 30.5 74t85.5 51q-38 35 -55 63t-17 56q0 53 45 94q43 39 120 39q81 0 128 -36t59 -102l-68 -7q-11 55 -38.5 77t-73.5 22q-24 0 -44 -7t-34 -19t-22 -27t-8 -31q0 -26 20 -50
q31 -36 149 -103q38 -22 62.5 -38t37.5 -26q32 -26 46.5 -53t14.5 -59q0 -49 -31 -81q-18 -21 -88 -48q87 -63 87 -131q1 -29 -12.5 -54.5t-38.5 -45t-58 -30.5t-70 -9q-85 0 -135 38t-62 108l66 8q15 -58 46 -81.5t85 -23.5q27 0 48 7.5t36 20t22.5 28.5t7.5 34
q0 27 -21 50h1zM340 92q39 20 57.5 45t18.5 49q0 30 -26 62q-14 17 -42 36t-70 45q-35 20 -60.5 37l-42.5 29q-43 -26 -62 -49t-19 -52q0 -35 24 -63q22 -26 102 -72l61 -34t48 -32z" />
    <glyph glyph-name="dieresis" unicode="&#xa8;" horiz-adv-x="409" 
d="M79 581v73h70v-73h-70zM257 581v73h70v-73h-70z" />
    <glyph glyph-name="copyright" unicode="&#xa9;" 
d="M379 -11q-67 0 -125.5 11.5t-102 47t-69 101t-25.5 173.5t25.5 173.5t69 101t102 47t125.5 11.5t125.5 -11.5t102 -47t69 -101t25.5 -173.5t-25.5 -173.5t-69 -101t-102 -47t-125.5 -11.5zM541 147q-29 -13 -70 -23t-83 -10q-46 0 -81 7t-59 29t-36.5 62t-12.5 105
q0 64 14 103.5t39.5 61t61.5 28.5t80 7q42 0 79.5 -8t66.5 -22l-27 -46q-18 7 -50.5 15.5t-66.5 8.5q-29 0 -54 -3.5t-43 -18t-28.5 -44t-10.5 -81.5q0 -49 7 -78.5t23 -46t42 -22t65 -5.5q29 0 55 7.5t43 13.5l17 6zM379 25q35 0 69.5 1.5t66.5 10t59.5 26t47.5 50.5
t31.5 84t11.5 125t-11.5 125t-32 84t-48 50.5t-59.5 26t-66.5 10t-68.5 1.5q-36 0 -70.5 -1.5t-66.5 -10t-59 -26t-47 -50.5t-31.5 -84t-11.5 -125t11.5 -125t31.5 -84t47 -50.5t59 -26t66.5 -10t70.5 -1.5z" />
    <glyph glyph-name="guillemotleft" unicode="&#xab;" horiz-adv-x="465" 
d="M169 32l-72.5 100.5l-72.5 98.5l145 198h45l-117 -198l116 -199h-44zM353 32l-142 199l142 198h49l-120 -198l120 -199h-49z" />
    <glyph glyph-name="logicalnot" unicode="&#xac;" horiz-adv-x="522" 
d="M380 194v201h-380v56h441v-257h-61z" />
    <glyph glyph-name="registered" unicode="&#xae;" horiz-adv-x="636" 
d="M486 320q-11 -7 -21 -11t-18 -4q-19 0 -35 14t-37 43l-43 57h-83v-108h-50v315h130q35 0 59 -3.5t38.5 -15t20.5 -31.5t6 -53q0 -48 -14.5 -71t-49.5 -30q8 -9 14 -17.5t14 -18.5q18 -25 31 -31.5t28 -0.5zM330 461q19 0 33 1.5t23 7.5t13 18.5t4 34.5t-4 34.5t-13 18.5
t-23 7t-33 1h-81v-123h81zM318 202q-54 0 -101.5 9.5t-83 38t-56 82t-20.5 140.5t20.5 140.5t56 82t83 38t101.5 9.5t101.5 -9.5t83 -38t56 -82t20.5 -140.5t-20.5 -140.5t-56 -82t-83 -38t-101.5 -9.5zM318 242q40 0 79.5 3.5t71 25.5t51 68.5t19.5 132.5q0 57 -9 96.5
t-24.5 65t-37 39.5t-46 20.5t-51.5 7.5t-53 1q-41 0 -81 -3.5t-71 -25.5t-50 -68.5t-19 -132.5t19 -132.5t50 -68.5t71 -25.5t81 -3.5z" />
    <glyph glyph-name="macron" unicode="&#xaf;" horiz-adv-x="433" 
d="M79 745v38h275v-38h-275z" />
    <glyph glyph-name="degree" unicode="&#xb0;" horiz-adv-x="340" 
d="M84 461q-36 36 -36 85t36 81q35 34 87 34q51 0 85 -34q37 -33 37 -81q0 -49 -37 -83q-35 -35 -85 -35q-24 0 -47 9.5t-40 23.5zM262 546q0 18 -7.5 33.5t-20 27t-29 18.5t-34.5 7t-34.5 -7t-29 -18.5t-20 -27t-7.5 -33.5t7.5 -34t20 -28.5t29 -19.5t34.5 -7t34.5 7
t29 19.5t20 28.5t7.5 34z" />
    <glyph glyph-name="plusminus" unicode="&#xb1;" horiz-adv-x="451" 
d="M256 304v-185h-61v185h-190v54h190v184h61v-184h190v-54h-190zM5 0v56h441v-56h-441z" />
    <glyph glyph-name="acute" unicode="&#xb4;" horiz-adv-x="174" 
d="M31 547l53 107h85q-26 -29 -45.5 -53.5l-42.5 -53.5h-50z" />
    <glyph glyph-name="paragraph" unicode="&#xb6;" horiz-adv-x="575" 
d="M400 -186v778h-128v-778h-57v479q-45 1 -81 14.5t-61 37t-38.5 54.5t-13.5 69q0 83 55 132.5t161 49.5h293v-58h-69v-778h-61z" />
    <glyph glyph-name="periodcentered" unicode="&#xb7;" horiz-adv-x="245" 
d="M79 292v73h77v-73h-77z" />
    <glyph glyph-name="cedilla" unicode="&#xb8;" horiz-adv-x="239" 
d="M32 -156h4q8 -1 17 -1h14q46 0 69 14q17 15 17 32q0 8 -2 14.5t-9 12t-21 9t-38 4.5l18 61h41l-15 -48q44 -5 65 -21.5t21 -37.5q0 -29 -32 -52.5t-95 -23.5q-34 0 -59 3z" />
    <glyph glyph-name="ordmasculine" unicode="&#xba;" horiz-adv-x="393" 
d="M198 339q-66 0 -106.5 42t-40.5 117q0 78 40 120.5t106 42.5q65 0 105 -42.5t40 -118.5q0 -38 -11 -67.5t-30 -50.5t-45.5 -32t-57.5 -11zM197 378q43 0 69.5 29.5t26.5 94.5q0 61 -26.5 90.5t-69.5 29.5q-44 0 -70.5 -29t-26.5 -93q0 -63 27 -92.5t70 -29.5z" />
    <glyph glyph-name="guillemotright" unicode="&#xbb;" horiz-adv-x="465" 
d="M249 32l119 199l-59 99l-60 99h47l72.5 -98.5l72.5 -99.5l-145 -199h-47zM63 32l120 199l-120 198h48l71.5 -98.5l70.5 -99.5l-142 -199h-48z" />
    <glyph glyph-name="questiondown" unicode="&#xbf;" horiz-adv-x="511" 
d="M507 -113q-21 -10 -50.5 -17t-63.5 -12t-70.5 -7.5t-71.5 -2.5q-48 0 -90.5 11t-75 32.5t-51 54.5t-18.5 77q0 43 10 72t31.5 48.5t56 32t82.5 22.5q40 8 67 15t43 17.5t23 28t7 47.5v50h77v-54q0 -43 -16.5 -72t-44 -47.5t-64.5 -30t-77 -19.5q-44 -9 -69 -15.5
t-37.5 -17t-16 -28t-3.5 -48.5q0 -68 46 -93.5t135 -25.5q30 0 61 3.5t59 9t51 11.5t37 11zM336 429v73h77v-73h-77z" />
    <glyph glyph-name="Agrave" unicode="&#xc0;" horiz-adv-x="657" 
d="M554 0l-81 201h-291l-80 -201h-74l257 642h86l257 -642h-74zM369 461l-38 121h-6l-38 -121l-84 -209h250zM353 707l-94 107h86l53 -107h-45z" />
    <glyph glyph-name="Aacute" unicode="&#xc1;" horiz-adv-x="657" 
d="M554 0l-81 201h-291l-80 -201h-74l257 642h86l257 -642h-74zM369 461l-38 121h-6l-38 -121l-84 -209h250zM292 689l53 107h85q-26 -29 -45.5 -53.5l-42.5 -53.5h-50z" />
    <glyph glyph-name="Acircumflex" unicode="&#xc2;" horiz-adv-x="657" 
d="M554 0l-81 201h-291l-80 -201h-74l257 642h86l257 -642h-74zM369 461l-38 121h-6l-38 -121l-84 -209h250zM389 689l-59 84l-59 -84h-72l44 54l44 53h80l91 -107h-69z" />
    <glyph glyph-name="Atilde" unicode="&#xc3;" horiz-adv-x="657" 
d="M554 0l-81 201h-291l-80 -201h-74l257 642h86l257 -642h-74zM369 461l-38 121h-6l-38 -121l-84 -209h250zM478 803q-4 -40 -26.5 -62t-56.5 -22q-14 0 -32.5 6.5t-42.5 18.5q-33 18 -51 18q-12 0 -19.5 -3.5t-15.5 -11.5q-5 -5 -8 -12t-4 -18h-43q1 20 7 33.5t17 25.5
q26 26 64 26q14 0 33 -6.5t43 -17.5q30 -15 49 -15t29.5 8t15.5 32h41z" />
    <glyph glyph-name="Adieresis" unicode="&#xc4;" horiz-adv-x="657" 
d="M554 0l-81 201h-291l-80 -201h-74l257 642h86l257 -642h-74zM369 461l-38 121h-6l-38 -121l-84 -209h250zM204 723v73h70v-73h-70zM382 723v73h70v-73h-70z" />
    <glyph glyph-name="Aring" unicode="&#xc5;" horiz-adv-x="657" 
d="M554 0l-81 201h-291l-80 -201h-74l257 642h86l257 -642h-74zM369 461l-38 121h-6l-38 -121l-84 -209h250zM328 725q13 0 22.5 5t9.5 32q0 26 -10 30.5t-22 4.5q-13 0 -22.5 -4.5t-9.5 -30.5q0 -27 9.5 -32t22.5 -5zM328 695q-14 0 -25.5 2.5t-20 9.5t-13.5 20t-5 35
q0 21 5 34t13.5 20t20 9.5t25.5 2.5q13 0 25 -2.5t20.5 -9.5t13.5 -20t5 -34q0 -22 -5 -35t-13.5 -20t-20.5 -9.5t-25 -2.5z" />
    <glyph glyph-name="AE" unicode="&#xc6;" horiz-adv-x="819" 
d="M332 0v201h-150l-80 -201h-74l257 642h527l-10 -57h-398v-224h323v-57h-323v-246h408l-10 -58h-470zM332 579l-1 3h-6l-38 -121l-84 -209h129v327z" />
    <glyph glyph-name="Ccedilla" unicode="&#xc7;" horiz-adv-x="650" 
d="M614 31q-42 -20 -103.5 -32t-131.5 -12q-74 0 -133.5 12.5t-101.5 48.5t-65 101.5t-23 171.5t23 171.5t65 101.5t101.5 48.5t133.5 12.5q140 0 225 -40l-33 -53q-29 10 -79 23t-111 13q-54 0 -100 -7.5t-79.5 -35.5t-52.5 -83.5t-19 -150.5q0 -96 19 -151.5t52.5 -83
t79.5 -35t100 -7.5q30 0 60 4.5t56 10.5t48 13t36 12zM237 -156h4q8 -1 17 -1h14q46 0 69 14q17 15 17 32q0 8 -2 14.5t-9 12t-21 9t-38 4.5l18 61h41l-15 -48q44 -5 65 -21.5t21 -37.5q0 -29 -32 -52.5t-95 -23.5q-34 0 -59 3z" />
    <glyph glyph-name="Egrave" unicode="&#xc8;" horiz-adv-x="566" 
d="M79 0v642h480l-10 -57h-398v-224h323v-57h-323v-246h408l-10 -58h-470zM307 707l-94 107h86l53 -107h-45z" />
    <glyph glyph-name="Eacute" unicode="&#xc9;" horiz-adv-x="566" 
d="M79 0v642h480l-10 -57h-398v-224h323v-57h-323v-246h408l-10 -58h-470zM270 689l53 107h85q-26 -29 -45.5 -53.5l-42.5 -53.5h-50z" />
    <glyph glyph-name="Ecircumflex" unicode="&#xca;" horiz-adv-x="566" 
d="M79 0v642h480l-10 -57h-398v-224h323v-57h-323v-246h408l-10 -58h-470zM343 707l-59 84l-59 -84h-72l44 54l44 53h80l91 -107h-69z" />
    <glyph glyph-name="Edieresis" unicode="&#xcb;" horiz-adv-x="566" 
d="M79 0v642h480l-10 -57h-398v-224h323v-57h-323v-246h408l-10 -58h-470zM210 723v73h70v-73h-70zM388 723v73h70v-73h-70z" />
    <glyph glyph-name="Igrave" unicode="&#xcc;" horiz-adv-x="241" 
d="M79 0v642h72v-642h-72zM146 707l-94 107h86l53 -107h-45z" />
    <glyph glyph-name="Iacute" unicode="&#xcd;" horiz-adv-x="241" 
d="M79 0v642h72v-642h-72zM82 689l53 107h85q-26 -29 -45.5 -53.5l-42.5 -53.5h-50z" />
    <glyph glyph-name="Icircumflex" unicode="&#xce;" horiz-adv-x="241" 
d="M79 0v642h72v-642h-72zM182 689l-59 84l-59 -84h-72l44 54l44 53h80l91 -107h-69z" />
    <glyph glyph-name="Idieresis" unicode="&#xcf;" horiz-adv-x="241" 
d="M79 0v642h72v-642h-72zM-2 741v73h70v-73h-70zM176 741v73h70v-73h-70z" />
    <glyph glyph-name="Eth" unicode="&#xd0;" horiz-adv-x="689" 
d="M79 0v288h-77v63h77v291h230q73 0 133 -9.5t102 -42.5t65 -96t23 -169q0 -107 -20.5 -171.5t-60.5 -98.5t-98 -44.5t-134 -10.5h-240zM309 58q69 0 117 8t77 36t42 81t13 143q0 95 -19 147.5t-52.5 77t-79.5 29.5t-100 5h-156v-234h95v-63h-95v-230h158z" />
    <glyph glyph-name="Ntilde" unicode="&#xd1;" horiz-adv-x="685" 
d="M526 0l-379 544v-544h-68v642h80l379 -542v542h67v-642h-79zM492 803q-4 -40 -26.5 -62t-56.5 -22q-14 0 -32.5 6.5t-42.5 18.5q-33 18 -51 18q-12 0 -19.5 -3.5t-15.5 -11.5q-5 -5 -8 -12t-4 -18h-43q1 20 7 33.5t17 25.5q26 26 64 26q14 0 33 -6.5t43 -17.5
q30 -15 49 -15t29.5 8t15.5 32h41z" />
    <glyph glyph-name="Ograve" unicode="&#xd2;" 
d="M379 599q-49 0 -94 -4.5t-79 -30.5t-54.5 -82.5t-20.5 -159.5q0 -69 9.5 -116.5t26 -78t39.5 -47.5t50.5 -24.5t58.5 -9t64 -1.5q32 0 63 1.5t58.5 9t51 24.5t40 47.5t26 78t9.5 116.5q0 103 -21 159.5t-55.5 82.5t-79 30.5t-92.5 4.5zM57 322q0 108 25.5 173.5t69 101
t102 47t125.5 11.5t125.5 -11.5t102 -47t69 -101t25.5 -173.5t-25.5 -173.5t-69 -101t-102 -47t-125.5 -11.5t-125.5 11.5t-102 47t-69 101t-25.5 173.5zM403 707l-94 107h86l53 -107h-45z" />
    <glyph glyph-name="Oacute" unicode="&#xd3;" 
d="M379 599q-49 0 -94 -4.5t-79 -30.5t-54.5 -82.5t-20.5 -159.5q0 -69 9.5 -116.5t26 -78t39.5 -47.5t50.5 -24.5t58.5 -9t64 -1.5q32 0 63 1.5t58.5 9t51 24.5t40 47.5t26 78t9.5 116.5q0 103 -21 159.5t-55.5 82.5t-79 30.5t-92.5 4.5zM57 322q0 108 25.5 173.5t69 101
t102 47t125.5 11.5t125.5 -11.5t102 -47t69 -101t25.5 -173.5t-25.5 -173.5t-69 -101t-102 -47t-125.5 -11.5t-125.5 11.5t-102 47t-69 101t-25.5 173.5zM310 689l53 107h85q-26 -29 -45.5 -53.5l-42.5 -53.5h-50z" />
    <glyph glyph-name="Ocircumflex" unicode="&#xd4;" 
d="M379 599q-49 0 -94 -4.5t-79 -30.5t-54.5 -82.5t-20.5 -159.5q0 -69 9.5 -116.5t26 -78t39.5 -47.5t50.5 -24.5t58.5 -9t64 -1.5q32 0 63 1.5t58.5 9t51 24.5t40 47.5t26 78t9.5 116.5q0 103 -21 159.5t-55.5 82.5t-79 30.5t-92.5 4.5zM57 322q0 108 25.5 173.5t69 101
t102 47t125.5 11.5t125.5 -11.5t102 -47t69 -101t25.5 -173.5t-25.5 -173.5t-69 -101t-102 -47t-125.5 -11.5t-125.5 11.5t-102 47t-69 101t-25.5 173.5zM439 689l-59 84l-59 -84h-72l44 54l44 53h80l91 -107h-69z" />
    <glyph glyph-name="Otilde" unicode="&#xd5;" 
d="M379 599q-49 0 -94 -4.5t-79 -30.5t-54.5 -82.5t-20.5 -159.5q0 -69 9.5 -116.5t26 -78t39.5 -47.5t50.5 -24.5t58.5 -9t64 -1.5q32 0 63 1.5t58.5 9t51 24.5t40 47.5t26 78t9.5 116.5q0 103 -21 159.5t-55.5 82.5t-79 30.5t-92.5 4.5zM57 322q0 108 25.5 173.5t69 101
t102 47t125.5 11.5t125.5 -11.5t102 -47t69 -101t25.5 -173.5t-25.5 -173.5t-69 -101t-102 -47t-125.5 -11.5t-125.5 11.5t-102 47t-69 101t-25.5 173.5zM528 803q-4 -40 -26.5 -62t-56.5 -22q-14 0 -32.5 6.5t-42.5 18.5q-33 18 -51 18q-12 0 -19.5 -3.5t-15.5 -11.5
q-5 -5 -8 -12t-4 -18h-43q1 20 7 33.5t17 25.5q26 26 64 26q14 0 33 -6.5t43 -17.5q30 -15 49 -15t29.5 8t15.5 32h41z" />
    <glyph glyph-name="Odieresis" unicode="&#xd6;" 
d="M379 599q-49 0 -94 -4.5t-79 -30.5t-54.5 -82.5t-20.5 -159.5q0 -69 9.5 -116.5t26 -78t39.5 -47.5t50.5 -24.5t58.5 -9t64 -1.5q32 0 63 1.5t58.5 9t51 24.5t40 47.5t26 78t9.5 116.5q0 103 -21 159.5t-55.5 82.5t-79 30.5t-92.5 4.5zM57 322q0 108 25.5 173.5t69 101
t102 47t125.5 11.5t125.5 -11.5t102 -47t69 -101t25.5 -173.5t-25.5 -173.5t-69 -101t-102 -47t-125.5 -11.5t-125.5 11.5t-102 47t-69 101t-25.5 173.5zM255 723v73h70v-73h-70zM433 723v73h70v-73h-70z" />
    <glyph glyph-name="multiply" unicode="&#xd7;" horiz-adv-x="443" 
d="M218 278l-134 -133l-39 39l133 134l-128 129l43 43l128 -129l136 135l39 -39l-135 -135l131 -131l-43 -43z" />
    <glyph glyph-name="Oslash" unicode="&#xd8;" 
d="M655 540q22 -38 34 -91t12 -127q0 -108 -25.5 -173.5t-69 -101t-102 -47t-125.5 -11.5q-69 0 -129.5 12.5t-104.5 51.5l-55 -53l-64 37l75 71q-21 37 -32.5 89.5t-11.5 124.5q0 108 25.5 173.5t69 101t102 47t125.5 11.5q69 0 128 -12t104 -50l51 49l62 -36zM189 95
q17 -19 38.5 -29t46 -14.5t51 -5.5t54.5 -1q32 0 63 1.5t58.5 9t51 24.5t40 47.5t26 78t9.5 116.5q0 56 -6.5 97t-17.5 71zM566 550q-18 18 -39.5 28t-45.5 14.5t-49.5 5.5t-52.5 1q-49 0 -94 -4.5t-79 -30.5t-54.5 -82.5t-20.5 -159.5q0 -54 5.5 -94.5t16.5 -70.5z" />
    <glyph glyph-name="Ugrave" unicode="&#xd9;" horiz-adv-x="686" 
d="M543 642h71v-372q0 -75 -10 -128.5t-39 -87t-82 -49.5t-139 -16t-139.5 16t-83 49.5t-40 87t-10.5 128.5v372h71v-371q0 -60 6.5 -102.5t27.5 -69.5t61 -39.5t107 -12.5t106.5 12.5t60 39.5t26.5 69.5t6 102.5v371zM367 707l-94 107h86l53 -107h-45z" />
    <glyph glyph-name="Uacute" unicode="&#xda;" horiz-adv-x="686" 
d="M543 642h71v-372q0 -75 -10 -128.5t-39 -87t-82 -49.5t-139 -16t-139.5 16t-83 49.5t-40 87t-10.5 128.5v372h71v-371q0 -60 6.5 -102.5t27.5 -69.5t61 -39.5t107 -12.5t106.5 12.5t60 39.5t26.5 69.5t6 102.5v371zM274 689l53 107h85q-26 -29 -45.5 -53.5l-42.5 -53.5
h-50z" />
    <glyph glyph-name="Ucircumflex" unicode="&#xdb;" horiz-adv-x="686" 
d="M543 642h71v-372q0 -75 -10 -128.5t-39 -87t-82 -49.5t-139 -16t-139.5 16t-83 49.5t-40 87t-10.5 128.5v372h71v-371q0 -60 6.5 -102.5t27.5 -69.5t61 -39.5t107 -12.5t106.5 12.5t60 39.5t26.5 69.5t6 102.5v371zM403 707l-59 84l-59 -84h-72l44 54l44 53h80l91 -107
h-69z" />
    <glyph glyph-name="Udieresis" unicode="&#xdc;" horiz-adv-x="686" 
d="M543 642h71v-372q0 -75 -10 -128.5t-39 -87t-82 -49.5t-139 -16t-139.5 16t-83 49.5t-40 87t-10.5 128.5v372h71v-371q0 -60 6.5 -102.5t27.5 -69.5t61 -39.5t107 -12.5t106.5 12.5t60 39.5t26.5 69.5t6 102.5v371zM219 723v73h70v-73h-70zM397 723v73h70v-73h-70z" />
    <glyph glyph-name="Yacute" unicode="&#xdd;" horiz-adv-x="618" 
d="M269 0v274l-127.5 184l-128.5 184h86l66 -97.5l66 -97.5q20 -29 41.5 -64l38.5 -63l37.5 62.5t45.5 68.5l66 95.5l67 95.5h79l-265 -368v-274h-72zM240 689l53 107h85q-26 -29 -45.5 -53.5l-42.5 -53.5h-50z" />
    <glyph glyph-name="Thorn" unicode="&#xde;" horiz-adv-x="527" 
d="M72 -57v756h72v-58q9 1 18 1h19q73 0 133 -10.5t102 -44t65 -97t23 -169.5t-23 -169.5t-65 -97t-102 -44t-133 -10.5q-10 0 -19 -0.5t-18 0.5v-57h-72zM144 57q8 -1 17 -1h18q54 0 100 5.5t79.5 31t52.5 79t19 149.5q0 95 -19 148.5t-52.5 79t-79.5 31t-100 5.5h-18
t-17 -1v-527z" />
    <glyph glyph-name="germandbls" unicode="&#xdf;" horiz-adv-x="675" 
d="M206 0v57h154q47 0 80.5 1.5t54.5 11.5t30.5 32.5t9.5 63.5q0 49 -9 75t-28.5 37.5t-50.5 13.5t-75 2v57q44 0 74 3t48.5 15t26.5 37t8 70q0 37 -9.5 59t-30 33t-53.5 14t-80 3q-33 0 -69 -4.5t-66.5 -30t-50 -82t-19.5 -159.5v-309h-72v309q0 100 21.5 164t59 101
t89.5 51.5t112 16.5q69 1 115.5 -5t74 -24.5t39.5 -51t12 -82.5q0 -38 -5 -63t-15.5 -42.5t-26 -29.5t-35.5 -22q20 -10 36.5 -21.5t28 -29t17.5 -43t6 -62.5q0 -51 -12.5 -83.5t-41.5 -50.5t-77 -25t-119 -7h-152z" />
    <glyph glyph-name="agrave" unicode="&#xe0;" horiz-adv-x="703" 
d="M648 -1q-50 7 -74 29t-32 71q-35 -53 -93.5 -81t-142.5 -28q-57 0 -104.5 9t-81.5 31.5t-53 61t-19 96.5t19 96.5t53 61t81.5 31.5t104.5 9h218q-3 74 -15 116.5t-36.5 63.5t-63 26.5t-95.5 5.5q-30 0 -59 -4t-54.5 -10t-46.5 -12.5t-35 -11.5l-33 53q42 20 101 31
t129 11q81 0 135.5 -12t87 -47t46.5 -100t14 -171v-16v-112q0 -38 3.5 -63.5t10.5 -42t18.5 -25.5t27.5 -13zM525 328h-219q-42 0 -77 -4.5t-60 -19t-39 -42t-14 -74.5t14 -74.5t39.5 -42t60.5 -19t77 -4.5q71 0 114 18t66 53.5t30.5 87t7.5 119.5v2zM376 707l-94 107h86
l53 -107h-45z" />
    <glyph glyph-name="aacute" unicode="&#xe1;" horiz-adv-x="657" 
d="M554 0l-81 201h-291l-80 -201h-74l257 642h86l257 -642h-74zM369 461l-38 121h-6l-38 -121l-84 -209h250zM292 689l53 107h85q-26 -29 -45.5 -53.5l-42.5 -53.5h-50z" />
    <glyph glyph-name="acircumflex" unicode="&#xe2;" horiz-adv-x="657" 
d="M554 0l-81 201h-291l-80 -201h-74l257 642h86l257 -642h-74zM369 461l-38 121h-6l-38 -121l-84 -209h250zM389 689l-59 84l-59 -84h-72l44 54l44 53h80l91 -107h-69z" />
    <glyph glyph-name="atilde" unicode="&#xe3;" horiz-adv-x="703" 
d="M648 -1q-50 7 -74 29t-32 71q-35 -53 -93.5 -81t-142.5 -28q-57 0 -104.5 9t-81.5 31.5t-53 61t-19 96.5t19 96.5t53 61t81.5 31.5t104.5 9h218q-3 74 -15 116.5t-36.5 63.5t-63 26.5t-95.5 5.5q-30 0 -59 -4t-54.5 -10t-46.5 -12.5t-35 -11.5l-33 53q42 20 101 31
t129 11q81 0 135.5 -12t87 -47t46.5 -100t14 -171v-16v-112q0 -38 3.5 -63.5t10.5 -42t18.5 -25.5t27.5 -13zM525 328h-219q-42 0 -77 -4.5t-60 -19t-39 -42t-14 -74.5t14 -74.5t39.5 -42t60.5 -19t77 -4.5q71 0 114 18t66 53.5t30.5 87t7.5 119.5v2zM501 803
q-4 -40 -26.5 -62t-56.5 -22q-14 0 -32.5 6.5t-42.5 18.5q-33 18 -51 18q-12 0 -19.5 -3.5t-15.5 -11.5q-5 -5 -8 -12t-4 -18h-43q1 20 7 33.5t17 25.5q26 26 64 26q14 0 33 -6.5t43 -17.5q30 -15 49 -15t29.5 8t15.5 32h41z" />
    <glyph glyph-name="adieresis" unicode="&#xe4;" horiz-adv-x="657" 
d="M554 0l-81 201h-291l-80 -201h-74l257 642h86l257 -642h-74zM369 461l-38 121h-6l-38 -121l-84 -209h250zM204 723v73h70v-73h-70zM382 723v73h70v-73h-70z" />
    <glyph glyph-name="aring" unicode="&#xe5;" horiz-adv-x="703" 
d="M648 -1q-50 7 -74 29t-32 71q-35 -53 -93.5 -81t-142.5 -28q-57 0 -104.5 9t-81.5 31.5t-53 61t-19 96.5t19 96.5t53 61t81.5 31.5t104.5 9h218q-3 74 -15 116.5t-36.5 63.5t-63 26.5t-95.5 5.5q-30 0 -59 -4t-54.5 -10t-46.5 -12.5t-35 -11.5l-33 53q42 20 101 31
t129 11q81 0 135.5 -12t87 -47t46.5 -100t14 -171v-16v-112q0 -38 3.5 -63.5t10.5 -42t18.5 -25.5t27.5 -13zM525 328h-219q-42 0 -77 -4.5t-60 -19t-39 -42t-14 -74.5t14 -74.5t39.5 -42t60.5 -19t77 -4.5q71 0 114 18t66 53.5t30.5 87t7.5 119.5v2zM351 725q13 0 22.5 5
t9.5 32q0 26 -10 30.5t-22 4.5q-13 0 -22.5 -4.5t-9.5 -30.5q0 -27 9.5 -32t22.5 -5zM351 695q-14 0 -25.5 2.5t-20 9.5t-13.5 20t-5 35q0 21 5 34t13.5 20t20 9.5t25.5 2.5q13 0 25 -2.5t20.5 -9.5t13.5 -20t5 -34q0 -22 -5 -35t-13.5 -20t-20.5 -9.5t-25 -2.5z" />
    <glyph glyph-name="ae" unicode="&#xe6;" horiz-adv-x="1193" 
d="M1097 38q-21 -10 -51 -19t-64.5 -16t-71.5 -11.5t-72 -4.5q-53 0 -97 5.5t-80 20.5t-63 41.5t-44 67.5q-5 -8 -12 -23q-35 -53 -93.5 -81t-142.5 -28q-57 0 -104.5 9t-81.5 31.5t-53 61t-19 96.5t19 96.5t53 61t81.5 31.5t104.5 9h218q-3 74 -15 116.5t-36.5 63.5
t-63 26.5t-95.5 5.5q-30 0 -59 -4t-54.5 -10t-46.5 -12.5t-35 -11.5l-33 53q42 20 101 31t129 11q53 0 94 -4.5t72.5 -17t53 -34.5t35.5 -57q19 34 46 56t60 34.5t71 17.5t81 5q72 0 127.5 -14t93.5 -50.5t58 -99.5t20 -162v-26h-529q1 -83 15 -133.5t44 -78.5t78 -37.5
t117 -9.5q30 0 61.5 5.5t60 13t52 15.5l37.5 13zM525 328h-219q-42 0 -77 -4.5t-60 -19t-39 -42t-14 -74.5t14 -74.5t39.5 -42t60.5 -19t77 -4.5q67 0 109.5 16.5t66 48t32.5 78.5t10 108v29zM1052 361q-3 77 -18.5 124t-43 72.5t-68 33.5t-93.5 8q-46 0 -86 -5.5
t-70.5 -28.5t-49.5 -71t-23 -133h452z" />
    <glyph glyph-name="ccedilla" unicode="&#xe7;" horiz-adv-x="650" 
d="M614 31q-42 -20 -103.5 -32t-131.5 -12q-74 0 -133.5 12.5t-101.5 48.5t-65 101.5t-23 171.5t23 171.5t65 101.5t101.5 48.5t133.5 12.5q140 0 225 -40l-33 -53q-29 10 -79 23t-111 13q-54 0 -100 -7.5t-79.5 -35.5t-52.5 -83.5t-19 -150.5q0 -96 19 -151.5t52.5 -83
t79.5 -35t100 -7.5q30 0 60 4.5t56 10.5t48 13t36 12zM237 -156h4q8 -1 17 -1h14q46 0 69 14q17 15 17 32q0 8 -2 14.5t-9 12t-21 9t-38 4.5l18 61h41l-15 -48q44 -5 65 -21.5t21 -37.5q0 -29 -32 -52.5t-95 -23.5q-34 0 -59 3z" />
    <glyph glyph-name="egrave" unicode="&#xe8;" horiz-adv-x="704" 
d="M630 38q-21 -10 -51 -19t-64.5 -16t-71.5 -11.5t-72 -4.5q-75 0 -133 12t-98 47.5t-61 99t-21 167.5q0 108 22.5 175t63 104t96 50t122.5 13q72 0 127.5 -14t93.5 -50.5t58 -99.5t20 -162v-26h-529q1 -83 15 -133.5t44 -78.5t78 -37.5t117 -9.5q30 0 61.5 5.5t60 13
t52 15.5l37.5 13zM585 361q-3 77 -18.5 124t-43 72.5t-68 33.5t-93.5 8q-46 0 -86 -5.5t-70.5 -28.5t-49.5 -71t-23 -133h452zM376 707l-94 107h86l53 -107h-45z" />
    <glyph glyph-name="eacute" unicode="&#xe9;" horiz-adv-x="566" 
d="M79 0v642h480l-10 -57h-398v-224h323v-57h-323v-246h408l-10 -58h-470zM270 689l53 107h85q-26 -29 -45.5 -53.5l-42.5 -53.5h-50z" />
    <glyph glyph-name="ecircumflex" unicode="&#xea;" horiz-adv-x="704" 
d="M630 38q-21 -10 -51 -19t-64.5 -16t-71.5 -11.5t-72 -4.5q-75 0 -133 12t-98 47.5t-61 99t-21 167.5q0 108 22.5 175t63 104t96 50t122.5 13q72 0 127.5 -14t93.5 -50.5t58 -99.5t20 -162v-26h-529q1 -83 15 -133.5t44 -78.5t78 -37.5t117 -9.5q30 0 61.5 5.5t60 13
t52 15.5l37.5 13zM585 361q-3 77 -18.5 124t-43 72.5t-68 33.5t-93.5 8q-46 0 -86 -5.5t-70.5 -28.5t-49.5 -71t-23 -133h452zM412 707l-59 84l-59 -84h-72l44 54l44 53h80l91 -107h-69z" />
    <glyph glyph-name="edieresis" unicode="&#xeb;" horiz-adv-x="704" 
d="M630 38q-21 -10 -51 -19t-64.5 -16t-71.5 -11.5t-72 -4.5q-75 0 -133 12t-98 47.5t-61 99t-21 167.5q0 108 22.5 175t63 104t96 50t122.5 13q72 0 127.5 -14t93.5 -50.5t58 -99.5t20 -162v-26h-529q1 -83 15 -133.5t44 -78.5t78 -37.5t117 -9.5q30 0 61.5 5.5t60 13
t52 15.5l37.5 13zM585 361q-3 77 -18.5 124t-43 72.5t-68 33.5t-93.5 8q-46 0 -86 -5.5t-70.5 -28.5t-49.5 -71t-23 -133h452zM228 723v73h70v-73h-70zM406 723v73h70v-73h-70z" />
    <glyph glyph-name="igrave" unicode="&#xec;" horiz-adv-x="241" 
d="M79 0v642h72v-642h-72zM146 707l-94 107h86l53 -107h-45z" />
    <glyph glyph-name="iacute" unicode="&#xed;" horiz-adv-x="241" 
d="M79 0v642h72v-642h-72zM82 689l53 107h85q-26 -29 -45.5 -53.5l-42.5 -53.5h-50z" />
    <glyph glyph-name="icircumflex" unicode="&#xee;" horiz-adv-x="241" 
d="M79 0v642h72v-642h-72zM182 689l-59 84l-59 -84h-72l44 54l44 53h80l91 -107h-69z" />
    <glyph glyph-name="idieresis" unicode="&#xef;" horiz-adv-x="241" 
d="M79 0v642h72v-642h-72zM-2 741v73h70v-73h-70zM176 741v73h70v-73h-70z" />
    <glyph glyph-name="eth" unicode="&#xf0;" horiz-adv-x="689" 
d="M79 0v288h-77v63h77v291h230q73 0 133 -9.5t102 -42.5t65 -96t23 -169q0 -107 -20.5 -171.5t-60.5 -98.5t-98 -44.5t-134 -10.5h-240zM309 58q69 0 117 8t77 36t42 81t13 143q0 95 -19 147.5t-52.5 77t-79.5 29.5t-100 5h-156v-234h95v-63h-95v-230h158z" />
    <glyph glyph-name="ntilde" unicode="&#xf1;" horiz-adv-x="685" 
d="M526 0l-379 544v-544h-68v642h80l379 -542v542h67v-642h-79zM492 803q-4 -40 -26.5 -62t-56.5 -22q-14 0 -32.5 6.5t-42.5 18.5q-33 18 -51 18q-12 0 -19.5 -3.5t-15.5 -11.5q-5 -5 -8 -12t-4 -18h-43q1 20 7 33.5t17 25.5q26 26 64 26q14 0 33 -6.5t43 -17.5
q30 -15 49 -15t29.5 8t15.5 32h41z" />
    <glyph glyph-name="ograve" unicode="&#xf2;" 
d="M379 599q-49 0 -94 -4.5t-79 -30.5t-54.5 -82.5t-20.5 -159.5q0 -69 9.5 -116.5t26 -78t39.5 -47.5t50.5 -24.5t58.5 -9t64 -1.5q32 0 63 1.5t58.5 9t51 24.5t40 47.5t26 78t9.5 116.5q0 103 -21 159.5t-55.5 82.5t-79 30.5t-92.5 4.5zM57 322q0 108 25.5 173.5t69 101
t102 47t125.5 11.5t125.5 -11.5t102 -47t69 -101t25.5 -173.5t-25.5 -173.5t-69 -101t-102 -47t-125.5 -11.5t-125.5 11.5t-102 47t-69 101t-25.5 173.5zM403 707l-94 107h86l53 -107h-45z" />
    <glyph glyph-name="oacute" unicode="&#xf3;" 
d="M379 599q-49 0 -94 -4.5t-79 -30.5t-54.5 -82.5t-20.5 -159.5q0 -69 9.5 -116.5t26 -78t39.5 -47.5t50.5 -24.5t58.5 -9t64 -1.5q32 0 63 1.5t58.5 9t51 24.5t40 47.5t26 78t9.5 116.5q0 103 -21 159.5t-55.5 82.5t-79 30.5t-92.5 4.5zM57 322q0 108 25.5 173.5t69 101
t102 47t125.5 11.5t125.5 -11.5t102 -47t69 -101t25.5 -173.5t-25.5 -173.5t-69 -101t-102 -47t-125.5 -11.5t-125.5 11.5t-102 47t-69 101t-25.5 173.5zM310 689l53 107h85q-26 -29 -45.5 -53.5l-42.5 -53.5h-50z" />
    <glyph glyph-name="ocircumflex" unicode="&#xf4;" 
d="M379 599q-49 0 -94 -4.5t-79 -30.5t-54.5 -82.5t-20.5 -159.5q0 -69 9.5 -116.5t26 -78t39.5 -47.5t50.5 -24.5t58.5 -9t64 -1.5q32 0 63 1.5t58.5 9t51 24.5t40 47.5t26 78t9.5 116.5q0 103 -21 159.5t-55.5 82.5t-79 30.5t-92.5 4.5zM57 322q0 108 25.5 173.5t69 101
t102 47t125.5 11.5t125.5 -11.5t102 -47t69 -101t25.5 -173.5t-25.5 -173.5t-69 -101t-102 -47t-125.5 -11.5t-125.5 11.5t-102 47t-69 101t-25.5 173.5zM439 689l-59 84l-59 -84h-72l44 54l44 53h80l91 -107h-69z" />
    <glyph glyph-name="otilde" unicode="&#xf5;" 
d="M379 599q-49 0 -94 -4.5t-79 -30.5t-54.5 -82.5t-20.5 -159.5q0 -69 9.5 -116.5t26 -78t39.5 -47.5t50.5 -24.5t58.5 -9t64 -1.5q32 0 63 1.5t58.5 9t51 24.5t40 47.5t26 78t9.5 116.5q0 103 -21 159.5t-55.5 82.5t-79 30.5t-92.5 4.5zM57 322q0 108 25.5 173.5t69 101
t102 47t125.5 11.5t125.5 -11.5t102 -47t69 -101t25.5 -173.5t-25.5 -173.5t-69 -101t-102 -47t-125.5 -11.5t-125.5 11.5t-102 47t-69 101t-25.5 173.5zM528 803q-4 -40 -26.5 -62t-56.5 -22q-14 0 -32.5 6.5t-42.5 18.5q-33 18 -51 18q-12 0 -19.5 -3.5t-15.5 -11.5
q-5 -5 -8 -12t-4 -18h-43q1 20 7 33.5t17 25.5q26 26 64 26q14 0 33 -6.5t43 -17.5q30 -15 49 -15t29.5 8t15.5 32h41z" />
    <glyph glyph-name="odieresis" unicode="&#xf6;" 
d="M379 599q-49 0 -94 -4.5t-79 -30.5t-54.5 -82.5t-20.5 -159.5q0 -69 9.5 -116.5t26 -78t39.5 -47.5t50.5 -24.5t58.5 -9t64 -1.5q32 0 63 1.5t58.5 9t51 24.5t40 47.5t26 78t9.5 116.5q0 103 -21 159.5t-55.5 82.5t-79 30.5t-92.5 4.5zM57 322q0 108 25.5 173.5t69 101
t102 47t125.5 11.5t125.5 -11.5t102 -47t69 -101t25.5 -173.5t-25.5 -173.5t-69 -101t-102 -47t-125.5 -11.5t-125.5 11.5t-102 47t-69 101t-25.5 173.5zM255 723v73h70v-73h-70zM433 723v73h70v-73h-70z" />
    <glyph glyph-name="divide" unicode="&#xf7;" horiz-adv-x="447" 
d="M185 422v73h77v-73h-77zM3 293v56h441v-56h-441zM185 146v73h77v-73h-77z" />
    <glyph glyph-name="oslash" unicode="&#xf8;" 
d="M655 540q22 -38 34 -91t12 -127q0 -108 -25.5 -173.5t-69 -101t-102 -47t-125.5 -11.5q-69 0 -129.5 12.5t-104.5 51.5l-55 -53l-64 37l75 71q-21 37 -32.5 89.5t-11.5 124.5q0 108 25.5 173.5t69 101t102 47t125.5 11.5q69 0 128 -12t104 -50l51 49l62 -36zM189 95
q17 -19 38.5 -29t46 -14.5t51 -5.5t54.5 -1q32 0 63 1.5t58.5 9t51 24.5t40 47.5t26 78t9.5 116.5q0 56 -6.5 97t-17.5 71zM566 550q-18 18 -39.5 28t-45.5 14.5t-49.5 5.5t-52.5 1q-49 0 -94 -4.5t-79 -30.5t-54.5 -82.5t-20.5 -159.5q0 -54 5.5 -94.5t16.5 -70.5z" />
    <glyph glyph-name="ugrave" unicode="&#xf9;" horiz-adv-x="668" 
d="M543 642h71v-372q0 -75 -10 -128.5t-39 -87t-82 -49.5t-139 -16t-139.5 16t-83 49.5t-40 87t-10.5 128.5v372h71v-371q0 -60 6.5 -102.5t27.5 -69.5t61 -39.5t107 -12.5t106.5 12.5t60 39.5t26.5 69.5t6 102.5v371zM358 707l-94 107h86l53 -107h-45z" />
    <glyph glyph-name="uacute" unicode="&#xfa;" horiz-adv-x="668" 
d="M543 642h71v-372q0 -75 -10 -128.5t-39 -87t-82 -49.5t-139 -16t-139.5 16t-83 49.5t-40 87t-10.5 128.5v372h71v-371q0 -60 6.5 -102.5t27.5 -69.5t61 -39.5t107 -12.5t106.5 12.5t60 39.5t26.5 69.5t6 102.5v371zM265 689l53 107h85q-26 -29 -45.5 -53.5l-42.5 -53.5
h-50z" />
    <glyph glyph-name="ucircumflex" unicode="&#xfb;" horiz-adv-x="668" 
d="M543 642h71v-372q0 -75 -10 -128.5t-39 -87t-82 -49.5t-139 -16t-139.5 16t-83 49.5t-40 87t-10.5 128.5v372h71v-371q0 -60 6.5 -102.5t27.5 -69.5t61 -39.5t107 -12.5t106.5 12.5t60 39.5t26.5 69.5t6 102.5v371zM394 707l-59 84l-59 -84h-72l44 54l44 53h80l91 -107
h-69z" />
    <glyph glyph-name="udieresis" unicode="&#xfc;" horiz-adv-x="668" 
d="M543 642h71v-372q0 -75 -10 -128.5t-39 -87t-82 -49.5t-139 -16t-139.5 16t-83 49.5t-40 87t-10.5 128.5v372h71v-371q0 -60 6.5 -102.5t27.5 -69.5t61 -39.5t107 -12.5t106.5 12.5t60 39.5t26.5 69.5t6 102.5v371zM210 723v73h70v-73h-70zM388 723v73h70v-73h-70z" />
    <glyph glyph-name="yacute" unicode="&#xfd;" horiz-adv-x="618" 
d="M269 0v274l-127.5 184l-128.5 184h86l66 -97.5l66 -97.5q20 -29 41.5 -64l38.5 -63l37.5 62.5t45.5 68.5l66 95.5l67 95.5h79l-265 -368v-274h-72zM240 689l53 107h85q-26 -29 -45.5 -53.5l-42.5 -53.5h-50z" />
    <glyph glyph-name="thorn" unicode="&#xfe;" horiz-adv-x="527" 
d="M72 -57v756h72v-58q9 1 18 1h19q73 0 133 -10.5t102 -44t65 -97t23 -169.5t-23 -169.5t-65 -97t-102 -44t-133 -10.5q-10 0 -19 -0.5t-18 0.5v-57h-72zM144 57q8 -1 17 -1h18q54 0 100 5.5t79.5 31t52.5 79t19 149.5q0 95 -19 148.5t-52.5 79t-79.5 31t-100 5.5h-18
t-17 -1v-527z" />
    <glyph glyph-name="ydieresis" unicode="&#xff;" horiz-adv-x="618" 
d="M269 0v274l-127.5 184l-128.5 184h86l66 -97.5l66 -97.5q20 -29 41.5 -64l38.5 -63l37.5 62.5t45.5 68.5l66 95.5l67 95.5h79l-265 -368v-274h-72zM185 741v73h70v-73h-70zM363 741v73h70v-73h-70z" />
    <glyph glyph-name="Amacron" unicode="&#x100;" horiz-adv-x="657" 
d="M554 0l-81 201h-291l-80 -201h-74l257 642h86l257 -642h-74zM369 461l-38 121h-6l-38 -121l-84 -209h250zM191 745v38h275v-38h-275z" />
    <glyph glyph-name="amacron" unicode="&#x101;" horiz-adv-x="703" 
d="M648 -1q-50 7 -74 29t-32 71q-35 -53 -93.5 -81t-142.5 -28q-57 0 -104.5 9t-81.5 31.5t-53 61t-19 96.5t19 96.5t53 61t81.5 31.5t104.5 9h218q-3 74 -15 116.5t-36.5 63.5t-63 26.5t-95.5 5.5q-30 0 -59 -4t-54.5 -10t-46.5 -12.5t-35 -11.5l-33 53q42 20 101 31
t129 11q81 0 135.5 -12t87 -47t46.5 -100t14 -171v-16v-112q0 -38 3.5 -63.5t10.5 -42t18.5 -25.5t27.5 -13zM525 328h-219q-42 0 -77 -4.5t-60 -19t-39 -42t-14 -74.5t14 -74.5t39.5 -42t60.5 -19t77 -4.5q71 0 114 18t66 53.5t30.5 87t7.5 119.5v2zM214 745v38h275v-38
h-275z" />
    <glyph glyph-name="Abreve" unicode="&#x102;" horiz-adv-x="657" 
d="M554 0l-81 201h-291l-80 -201h-74l257 642h86l257 -642h-74zM369 461l-38 121h-6l-38 -121l-84 -209h250zM466 795q-10 -53 -45.5 -82.5t-92.5 -29.5q-59 0 -94 27.5t-44 84.5h43q17 -69 92 -69q44 0 67 17t32 52h42z" />
    <glyph glyph-name="abreve" unicode="&#x103;" horiz-adv-x="657" 
d="M554 0l-81 201h-291l-80 -201h-74l257 642h86l257 -642h-74zM369 461l-38 121h-6l-38 -121l-84 -209h250zM466 795q-10 -53 -45.5 -82.5t-92.5 -29.5q-59 0 -94 27.5t-44 84.5h43q17 -69 92 -69q44 0 67 17t32 52h42z" />
    <glyph glyph-name="Aogonek" unicode="&#x104;" horiz-adv-x="657" 
d="M554 -181v64q0 29 4 50.5t10 34.5q11 19 27 32h-41l-81 201h-291l-80 -201h-74l257 642h86l257 -642q-23 -12 -34 -37.5t-12 -68.5h44v-75h-72zM369 461l-38 121h-6l-38 -121l-84 -209h250z" />
    <glyph glyph-name="aogonek" unicode="&#x105;" horiz-adv-x="703" 
d="M623 -181q-50 0 -50 50v14q0 60 14 85q11 21 32 36q-35 10 -52.5 31.5t-24.5 63.5q-35 -53 -93.5 -81t-142.5 -28q-57 0 -104.5 9t-81.5 31.5t-53 61t-19 96.5t19 96.5t53 61t81.5 31.5t104.5 9h218q-3 74 -15 116.5t-36.5 63.5t-63 26.5t-95.5 5.5q-30 0 -59 -4
t-54.5 -10t-46.5 -12.5t-35 -11.5l-33 53q42 20 101 31t129 11q81 0 135.5 -12t87 -47t46.5 -100t14 -171v-128q0 -38 3.5 -63.5t10.5 -42t18.5 -25.5t27.5 -13l-11 -54q-46 -23 -47 -105h44v-75h-22zM525 328h-219q-42 0 -77 -4.5t-60 -19t-39 -42t-14 -74.5t14 -74.5
t39.5 -42t60.5 -19t77 -4.5q71 0 114 18t66 53.5t30.5 87t7.5 119.5v2z" />
    <glyph glyph-name="Cacute" unicode="&#x106;" horiz-adv-x="650" 
d="M614 31q-42 -20 -103.5 -32t-131.5 -12q-74 0 -133.5 12.5t-101.5 48.5t-65 101.5t-23 171.5t23 171.5t65 101.5t101.5 48.5t133.5 12.5q140 0 225 -40l-33 -53q-29 10 -79 23t-111 13q-54 0 -100 -7.5t-79.5 -35.5t-52.5 -83.5t-19 -150.5q0 -96 19 -151.5t52.5 -83
t79.5 -35t100 -7.5q30 0 60 4.5t56 10.5t48 13t36 12zM316 707l53 107h85q-26 -29 -45.5 -53.5l-42.5 -53.5h-50z" />
    <glyph glyph-name="cacute" unicode="&#x107;" horiz-adv-x="650" 
d="M614 31q-42 -20 -103.5 -32t-131.5 -12q-74 0 -133.5 12.5t-101.5 48.5t-65 101.5t-23 171.5t23 171.5t65 101.5t101.5 48.5t133.5 12.5q140 0 225 -40l-33 -53q-29 10 -79 23t-111 13q-54 0 -100 -7.5t-79.5 -35.5t-52.5 -83.5t-19 -150.5q0 -96 19 -151.5t52.5 -83
t79.5 -35t100 -7.5q30 0 60 4.5t56 10.5t48 13t36 12zM316 707l53 107h85q-26 -29 -45.5 -53.5l-42.5 -53.5h-50z" />
    <glyph glyph-name="Ccircumflex" unicode="&#x108;" horiz-adv-x="650" 
d="M614 31q-42 -20 -103.5 -32t-131.5 -12q-74 0 -133.5 12.5t-101.5 48.5t-65 101.5t-23 171.5t23 171.5t65 101.5t101.5 48.5t133.5 12.5q140 0 225 -40l-33 -53q-29 10 -79 23t-111 13q-54 0 -100 -7.5t-79.5 -35.5t-52.5 -83.5t-19 -150.5q0 -96 19 -151.5t52.5 -83
t79.5 -35t100 -7.5q30 0 60 4.5t56 10.5t48 13t36 12zM434 707l-59 84l-59 -84h-72l44 54l44 53h80l91 -107h-69z" />
    <glyph glyph-name="ccircumflex" unicode="&#x109;" horiz-adv-x="650" 
d="M614 31q-42 -20 -103.5 -32t-131.5 -12q-74 0 -133.5 12.5t-101.5 48.5t-65 101.5t-23 171.5t23 171.5t65 101.5t101.5 48.5t133.5 12.5q140 0 225 -40l-33 -53q-29 10 -79 23t-111 13q-54 0 -100 -7.5t-79.5 -35.5t-52.5 -83.5t-19 -150.5q0 -96 19 -151.5t52.5 -83
t79.5 -35t100 -7.5q30 0 60 4.5t56 10.5t48 13t36 12zM428 707l-59 84l-59 -84h-72l44 54l44 53h80l91 -107h-69z" />
    <glyph glyph-name="Cdotaccent" unicode="&#x10a;" horiz-adv-x="650" 
d="M614 31q-42 -20 -103.5 -32t-131.5 -12q-74 0 -133.5 12.5t-101.5 48.5t-65 101.5t-23 171.5t23 171.5t65 101.5t101.5 48.5t133.5 12.5q140 0 225 -40l-33 -53q-29 10 -79 23t-111 13q-54 0 -100 -7.5t-79.5 -35.5t-52.5 -83.5t-19 -150.5q0 -96 19 -151.5t52.5 -83
t79.5 -35t100 -7.5q30 0 60 4.5t56 10.5t48 13t36 12zM364 737h-78v73h78v-73z" />
    <glyph glyph-name="cdotaccent" unicode="&#x10b;" horiz-adv-x="650" 
d="M614 31q-42 -20 -103.5 -32t-131.5 -12q-74 0 -133.5 12.5t-101.5 48.5t-65 101.5t-23 171.5t23 171.5t65 101.5t101.5 48.5t133.5 12.5q140 0 225 -40l-33 -53q-29 10 -79 23t-111 13q-54 0 -100 -7.5t-79.5 -35.5t-52.5 -83.5t-19 -150.5q0 -96 19 -151.5t52.5 -83
t79.5 -35t100 -7.5q30 0 60 4.5t56 10.5t48 13t36 12zM364 737h-78v73h78v-73z" />
    <glyph glyph-name="Ccaron" unicode="&#x10c;" horiz-adv-x="650" 
d="M614 31q-42 -20 -103.5 -32t-131.5 -12q-74 0 -133.5 12.5t-101.5 48.5t-65 101.5t-23 171.5t23 171.5t65 101.5t101.5 48.5t133.5 12.5q140 0 225 -40l-33 -53q-29 10 -79 23t-111 13q-54 0 -100 -7.5t-79.5 -35.5t-52.5 -83.5t-19 -150.5q0 -96 19 -151.5t52.5 -83
t79.5 -35t100 -7.5q30 0 60 4.5t56 10.5t48 13t36 12zM423 693h-96l-92 102h77l63 -75l63 75h77z" />
    <glyph glyph-name="ccaron" unicode="&#x10d;" horiz-adv-x="650" 
d="M614 31q-42 -20 -103.5 -32t-131.5 -12q-74 0 -133.5 12.5t-101.5 48.5t-65 101.5t-23 171.5t23 171.5t65 101.5t101.5 48.5t133.5 12.5q140 0 225 -40l-33 -53q-29 10 -79 23t-111 13q-54 0 -100 -7.5t-79.5 -35.5t-52.5 -83.5t-19 -150.5q0 -96 19 -151.5t52.5 -83
t79.5 -35t100 -7.5q30 0 60 4.5t56 10.5t48 13t36 12zM423 693h-96l-92 102h77l63 -75l63 75h77z" />
    <glyph glyph-name="Dcaron" unicode="&#x10e;" horiz-adv-x="689" 
d="M79 0v642h230q73 0 133 -9.5t102 -42.5t65 -96t23 -169q0 -107 -20.5 -171.5t-60.5 -98.5t-98 -44.5t-134 -10.5h-240zM309 58q69 0 117 8t77 36t42 81t13 143q0 95 -19 147.5t-52.5 77t-79.5 29.5t-100 5h-156v-527h158zM392 693h-96l-92 102h77l63 -75l63 75h77z" />
    <glyph glyph-name="dcaron" unicode="&#x10f;" horiz-adv-x="689" 
d="M79 0v642h230q73 0 133 -9.5t102 -42.5t65 -96t23 -169q0 -107 -20.5 -171.5t-60.5 -98.5t-98 -44.5t-134 -10.5h-240zM309 58q69 0 117 8t77 36t42 81t13 143q0 95 -19 147.5t-52.5 77t-79.5 29.5t-100 5h-156v-527h158zM392 693h-96l-92 102h77l63 -75l63 75h77z" />
    <glyph glyph-name="Dcroat" unicode="&#x110;" horiz-adv-x="689" 
d="M79 0v299h-78v63h78v280h230q73 0 133 -9.5t102 -42.5t65 -96t23 -169q0 -107 -20.5 -171.5t-60.5 -98.5t-98 -44.5t-134 -10.5h-240zM309 58q69 0 117 8t77 36t42 81t13 143q0 95 -19 147.5t-52.5 77t-79.5 29.5t-100 5h-156v-223h94v-63h-94v-241h158z" />
    <glyph glyph-name="dcroat" unicode="&#x111;" horiz-adv-x="689" 
d="M79 0v299h-78v63h78v280h230q73 0 133 -9.5t102 -42.5t65 -96t23 -169q0 -107 -20.5 -171.5t-60.5 -98.5t-98 -44.5t-134 -10.5h-240zM309 58q69 0 117 8t77 36t42 81t13 143q0 95 -19 147.5t-52.5 77t-79.5 29.5t-100 5h-156v-223h94v-63h-94v-241h158z" />
    <glyph glyph-name="Emacron" unicode="&#x112;" horiz-adv-x="566" 
d="M79 0v642h480l-10 -57h-398v-224h323v-57h-323v-246h408l-10 -58h-470zM145 745v38h275v-38h-275z" />
    <glyph glyph-name="emacron" unicode="&#x113;" horiz-adv-x="704" 
d="M630 38q-21 -10 -51 -19t-64.5 -16t-71.5 -11.5t-72 -4.5q-75 0 -133 12t-98 47.5t-61 99t-21 167.5q0 108 22.5 175t63 104t96 50t122.5 13q72 0 127.5 -14t93.5 -50.5t58 -99.5t20 -162v-26h-529q1 -83 15 -133.5t44 -78.5t78 -37.5t117 -9.5q30 0 61.5 5.5t60 13
t52 15.5l37.5 13zM585 361q-3 77 -18.5 124t-43 72.5t-68 33.5t-93.5 8q-46 0 -86 -5.5t-70.5 -28.5t-49.5 -71t-23 -133h452zM214 745v38h275v-38h-275z" />
    <glyph glyph-name="Ebreve" unicode="&#x114;" horiz-adv-x="566" 
d="M79 0v642h480l-10 -57h-398v-224h323v-57h-323v-246h408l-10 -58h-470zM421 819q-10 -53 -45.5 -82.5t-92.5 -29.5q-59 0 -94 27.5t-44 84.5h43q17 -69 92 -69q44 0 67 17t32 52h42z" />
    <glyph glyph-name="ebreve" unicode="&#x115;" horiz-adv-x="704" 
d="M630 38q-21 -10 -51 -19t-64.5 -16t-71.5 -11.5t-72 -4.5q-75 0 -133 12t-98 47.5t-61 99t-21 167.5q0 108 22.5 175t63 104t96 50t122.5 13q72 0 127.5 -14t93.5 -50.5t58 -99.5t20 -162v-26h-529q1 -83 15 -133.5t44 -78.5t78 -37.5t117 -9.5q30 0 61.5 5.5t60 13
t52 15.5l37.5 13zM585 361q-3 77 -18.5 124t-43 72.5t-68 33.5t-93.5 8q-46 0 -86 -5.5t-70.5 -28.5t-49.5 -71t-23 -133h452zM490 819q-10 -53 -45.5 -82.5t-92.5 -29.5q-59 0 -94 27.5t-44 84.5h43q17 -69 92 -69q44 0 67 17t32 52h42z" />
    <glyph glyph-name="Edotaccent" unicode="&#x116;" horiz-adv-x="566" 
d="M79 0v642h480l-10 -57h-398v-224h323v-57h-323v-246h408l-10 -58h-470zM322 737h-78v73h78v-73z" />
    <glyph glyph-name="edotaccent" unicode="&#x117;" horiz-adv-x="704" 
d="M630 38q-21 -10 -51 -19t-64.5 -16t-71.5 -11.5t-72 -4.5q-75 0 -133 12t-98 47.5t-61 99t-21 167.5q0 108 22.5 175t63 104t96 50t122.5 13q72 0 127.5 -14t93.5 -50.5t58 -99.5t20 -162v-26h-529q1 -83 15 -133.5t44 -78.5t78 -37.5t117 -9.5q30 0 61.5 5.5t60 13
t52 15.5l37.5 13zM585 361q-3 77 -18.5 124t-43 72.5t-68 33.5t-93.5 8q-46 0 -86 -5.5t-70.5 -28.5t-49.5 -71t-23 -133h452zM391 737h-78v73h78v-73z" />
    <glyph glyph-name="Eogonek" unicode="&#x118;" horiz-adv-x="566" 
d="M472 -180v64q0 29 4 50.5t10 34.5q10 18 25 31h-432v642h480l-10 -57h-398v-224h323v-57h-323v-246h408l-10 -58q-26 -12 -37 -37.5t-12 -67.5h44v-75h-72z" />
    <glyph glyph-name="eogonek" unicode="&#x119;" horiz-adv-x="704" 
d="M555 -142v64q0 29 4 50.5t10 34.5l7 11q-44 -14 -99 -22.5t-106 -8.5q-75 0 -133 12t-98 47.5t-61 99t-21 167.5q0 108 22.5 175t63 104t96 50t122.5 13q72 0 127.5 -14t93.5 -50.5t58 -99.5t20 -162v-26h-529q1 -83 15 -133.5t44 -78.5t78 -37.5t117 -9.5q30 0 61.5 5.5
t60 13t52 15.5l37.5 13l33 -53q-26 -17 -36 -41.5t-11 -63.5h44v-75h-72zM585 361q-3 77 -18.5 124t-43 72.5t-68 33.5t-93.5 8q-46 0 -86 -5.5t-70.5 -28.5t-49.5 -71t-23 -133h452z" />
    <glyph glyph-name="Ecaron" unicode="&#x11a;" horiz-adv-x="566" 
d="M79 0v642h480l-10 -57h-398v-224h323v-57h-323v-246h408l-10 -58h-470zM378 693h-96l-92 102h77l63 -75l63 75h77z" />
    <glyph glyph-name="ecaron" unicode="&#x11b;" horiz-adv-x="704" 
d="M630 38q-21 -10 -51 -19t-64.5 -16t-71.5 -11.5t-72 -4.5q-75 0 -133 12t-98 47.5t-61 99t-21 167.5q0 108 22.5 175t63 104t96 50t122.5 13q72 0 127.5 -14t93.5 -50.5t58 -99.5t20 -162v-26h-529q1 -83 15 -133.5t44 -78.5t78 -37.5t117 -9.5q30 0 61.5 5.5t60 13
t52 15.5l37.5 13zM585 361q-3 77 -18.5 124t-43 72.5t-68 33.5t-93.5 8q-46 0 -86 -5.5t-70.5 -28.5t-49.5 -71t-23 -133h452zM400 693h-96l-92 102h77l63 -75l63 75h77z" />
    <glyph glyph-name="Gcircumflex" unicode="&#x11c;" horiz-adv-x="672" 
d="M560 304h-205l10 57h263v-316q-20 -12 -49.5 -22t-64 -17.5t-72 -11.5t-73.5 -4q-76 0 -134.5 12t-98 48t-60 102t-20.5 173q0 106 23 171t65 100t101.5 47t133.5 12q70 0 129 -11t101 -31l-33 -53q-14 5 -35 11.5t-46.5 12.5t-54.5 10t-59 4q-54 0 -100 -7t-79.5 -34
t-52.5 -81.5t-19 -149.5q0 -90 13 -145t43 -84.5t78.5 -39.5t119.5 -10q23 0 48 3.5t48.5 8.5t44.5 12t35 14v219zM396 707l-59 84l-59 -84h-72l44 54l44 53h80l91 -107h-69z" />
    <glyph glyph-name="gcircumflex" unicode="&#x11d;" horiz-adv-x="672" 
d="M560 304h-205l10 57h263v-316q-20 -12 -49.5 -22t-64 -17.5t-72 -11.5t-73.5 -4q-76 0 -134.5 12t-98 48t-60 102t-20.5 173q0 106 23 171t65 100t101.5 47t133.5 12q70 0 129 -11t101 -31l-33 -53q-14 5 -35 11.5t-46.5 12.5t-54.5 10t-59 4q-54 0 -100 -7t-79.5 -34
t-52.5 -81.5t-19 -149.5q0 -90 13 -145t43 -84.5t78.5 -39.5t119.5 -10q23 0 48 3.5t48.5 8.5t44.5 12t35 14v219zM396 707l-59 84l-59 -84h-72l44 54l44 53h80l91 -107h-69z" />
    <glyph glyph-name="Gbreve" unicode="&#x11e;" horiz-adv-x="672" 
d="M560 304h-205l10 57h263v-316q-20 -12 -49.5 -22t-64 -17.5t-72 -11.5t-73.5 -4q-76 0 -134.5 12t-98 48t-60 102t-20.5 173q0 106 23 171t65 100t101.5 47t133.5 12q70 0 129 -11t101 -31l-33 -53q-14 5 -35 11.5t-46.5 12.5t-54.5 10t-59 4q-54 0 -100 -7t-79.5 -34
t-52.5 -81.5t-19 -149.5q0 -90 13 -145t43 -84.5t78.5 -39.5t119.5 -10q23 0 48 3.5t48.5 8.5t44.5 12t35 14v219zM474 819q-10 -53 -45.5 -82.5t-92.5 -29.5q-59 0 -94 27.5t-44 84.5h43q17 -69 92 -69q44 0 67 17t32 52h42z" />
    <glyph glyph-name="gbreve" unicode="&#x11f;" horiz-adv-x="672" 
d="M560 304h-205l10 57h263v-316q-20 -12 -49.5 -22t-64 -17.5t-72 -11.5t-73.5 -4q-76 0 -134.5 12t-98 48t-60 102t-20.5 173q0 106 23 171t65 100t101.5 47t133.5 12q70 0 129 -11t101 -31l-33 -53q-14 5 -35 11.5t-46.5 12.5t-54.5 10t-59 4q-54 0 -100 -7t-79.5 -34
t-52.5 -81.5t-19 -149.5q0 -90 13 -145t43 -84.5t78.5 -39.5t119.5 -10q23 0 48 3.5t48.5 8.5t44.5 12t35 14v219zM474 819q-10 -53 -45.5 -82.5t-92.5 -29.5q-59 0 -94 27.5t-44 84.5h43q17 -69 92 -69q44 0 67 17t32 52h42z" />
    <glyph glyph-name="Gdotaccent" unicode="&#x120;" horiz-adv-x="672" 
d="M560 304h-205l10 57h263v-316q-20 -12 -49.5 -22t-64 -17.5t-72 -11.5t-73.5 -4q-76 0 -134.5 12t-98 48t-60 102t-20.5 173q0 106 23 171t65 100t101.5 47t133.5 12q70 0 129 -11t101 -31l-33 -53q-14 5 -35 11.5t-46.5 12.5t-54.5 10t-59 4q-54 0 -100 -7t-79.5 -34
t-52.5 -81.5t-19 -149.5q0 -90 13 -145t43 -84.5t78.5 -39.5t119.5 -10q23 0 48 3.5t48.5 8.5t44.5 12t35 14v219zM375 737h-78v73h78v-73z" />
    <glyph glyph-name="gdotaccent" unicode="&#x121;" horiz-adv-x="672" 
d="M560 304h-205l10 57h263v-316q-20 -12 -49.5 -22t-64 -17.5t-72 -11.5t-73.5 -4q-76 0 -134.5 12t-98 48t-60 102t-20.5 173q0 106 23 171t65 100t101.5 47t133.5 12q70 0 129 -11t101 -31l-33 -53q-14 5 -35 11.5t-46.5 12.5t-54.5 10t-59 4q-54 0 -100 -7t-79.5 -34
t-52.5 -81.5t-19 -149.5q0 -90 13 -145t43 -84.5t78.5 -39.5t119.5 -10q23 0 48 3.5t48.5 8.5t44.5 12t35 14v219zM375 737h-78v73h78v-73z" />
    <glyph glyph-name="uni0122" unicode="&#x122;" horiz-adv-x="672" 
d="M560 304h-205l10 57h263v-316q-20 -12 -49.5 -22t-64 -17.5t-72 -11.5t-73.5 -4q-76 0 -134.5 12t-98 48t-60 102t-20.5 173q0 106 23 171t65 100t101.5 47t133.5 12q70 0 129 -11t101 -31l-33 -53q-14 5 -35 11.5t-46.5 12.5t-54.5 10t-59 4q-54 0 -100 -7t-79.5 -34
t-52.5 -81.5t-19 -149.5q0 -90 13 -145t43 -84.5t78.5 -39.5t119.5 -10q23 0 48 3.5t48.5 8.5t44.5 12t35 14v219zM335 -245q26 14 37.5 40t14.5 74h-50v73h77v-83q0 -45 -16.5 -74.5t-49.5 -46.5z" />
    <glyph glyph-name="uni0123" unicode="&#x123;" horiz-adv-x="672" 
d="M560 304h-205l10 57h263v-316q-20 -12 -49.5 -22t-64 -17.5t-72 -11.5t-73.5 -4q-76 0 -134.5 12t-98 48t-60 102t-20.5 173q0 106 23 171t65 100t101.5 47t133.5 12q70 0 129 -11t101 -31l-33 -53q-14 5 -35 11.5t-46.5 12.5t-54.5 10t-59 4q-54 0 -100 -7t-79.5 -34
t-52.5 -81.5t-19 -149.5q0 -90 13 -145t43 -84.5t78.5 -39.5t119.5 -10q23 0 48 3.5t48.5 8.5t44.5 12t35 14v219zM335 -245q26 14 37.5 40t14.5 74h-50v73h77v-83q0 -45 -16.5 -74.5t-49.5 -46.5z" />
    <glyph glyph-name="Hcircumflex" unicode="&#x124;" horiz-adv-x="681" 
d="M530 0v312h-380v-312h-71v642h71v-271h380v271h71v-642h-71zM401 707l-59 84l-59 -84h-72l44 54l44 53h80l91 -107h-69z" />
    <glyph glyph-name="hcircumflex" unicode="&#x125;" horiz-adv-x="681" 
d="M530 0v312h-380v-312h-71v642h71v-271h380v271h71v-642h-71zM401 707l-59 84l-59 -84h-72l44 54l44 53h80l91 -107h-69z" />
    <glyph glyph-name="Hbar" unicode="&#x126;" horiz-adv-x="681" 
d="M530 0v312h-380v-312h-71v493h-79v38h79v111h71v-111h380v111h71v-111h81v-38h-81v-493h-71zM530 493h-380v-122h380v122z" />
    <glyph glyph-name="hbar" unicode="&#x127;" horiz-adv-x="681" 
d="M530 0v312h-380v-312h-71v493h-79v38h79v111h71v-111h380v111h71v-111h81v-38h-81v-493h-71zM530 493h-380v-122h380v122z" />
    <glyph glyph-name="Itilde" unicode="&#x128;" horiz-adv-x="241" 
d="M79 0v642h72v-642h-72zM271 803q-4 -40 -26.5 -62t-56.5 -22q-14 0 -32.5 6.5t-42.5 18.5q-33 18 -51 18q-12 0 -19.5 -3.5t-15.5 -11.5q-5 -5 -8 -12t-4 -18h-43q1 20 7 33.5t17 25.5q26 26 64 26q14 0 33 -6.5t43 -17.5q30 -15 49 -15t29.5 8t15.5 32h41z" />
    <glyph glyph-name="itilde" unicode="&#x129;" horiz-adv-x="241" 
d="M79 0v642h72v-642h-72zM271 803q-4 -40 -26.5 -62t-56.5 -22q-14 0 -32.5 6.5t-42.5 18.5q-33 18 -51 18q-12 0 -19.5 -3.5t-15.5 -11.5q-5 -5 -8 -12t-4 -18h-43q1 20 7 33.5t17 25.5q26 26 64 26q14 0 33 -6.5t43 -17.5q30 -15 49 -15t29.5 8t15.5 32h41z" />
    <glyph glyph-name="Imacron" unicode="&#x12a;" horiz-adv-x="241" 
d="M79 0v642h72v-642h-72zM-16 745v38h275v-38h-275z" />
    <glyph glyph-name="imacron" unicode="&#x12b;" horiz-adv-x="241" 
d="M79 0v642h72v-642h-72zM-16 745v38h275v-38h-275z" />
    <glyph glyph-name="Ibreve" unicode="&#x12c;" horiz-adv-x="241" 
d="M79 0v642h72v-642h-72zM260 819q-10 -53 -45.5 -82.5t-92.5 -29.5q-59 0 -94 27.5t-44 84.5h43q17 -69 92 -69q44 0 67 17t32 52h42z" />
    <glyph glyph-name="ibreve" unicode="&#x12d;" horiz-adv-x="241" 
d="M79 0v642h72v-642h-72zM260 795q-10 -53 -45.5 -82.5t-92.5 -29.5q-59 0 -94 27.5t-44 84.5h43q17 -69 92 -69q44 0 67 17t32 52h42z" />
    <glyph glyph-name="Iogonek" unicode="&#x12e;" horiz-adv-x="241" 
d="M217 -151q-26 -3 -59 -3q-63 0 -95 23.5t-32 52.5q0 21 21 37.5t65 21.5l-6 19h-32v642h72v-640l10 -34q-24 -1 -38 -4.5t-21 -9t-9 -12t-2 -14.5q0 -17 17 -32q23 -14 69 -14h14t17 1h4z" />
    <glyph glyph-name="iogonek" unicode="&#x12f;" horiz-adv-x="241" 
d="M217 -151q-26 -3 -59 -3q-63 0 -95 23.5t-32 52.5q0 21 21 37.5t65 21.5l-6 19h-32v642h72v-640l10 -34q-24 -1 -38 -4.5t-21 -9t-9 -12t-2 -14.5q0 -17 17 -32q23 -14 69 -14h14t17 1h4z" />
    <glyph glyph-name="Idotaccent" unicode="&#x130;" horiz-adv-x="241" 
d="M79 0v642h72v-642h-72zM159 737h-78v73h78v-73z" />
    <glyph glyph-name="dotlessi" unicode="&#x131;" horiz-adv-x="241" 
d="M79 0v642h72v-642h-72z" />
    <glyph glyph-name="IJ" unicode="&#x132;" horiz-adv-x="563" 
d="M79 0v642h72v-642h-72zM247 48q47 0 80 2.5t53.5 17t30 44.5t9.5 85v445h71v-441q0 -66 -12.5 -106.5t-41.5 -62.5t-77 -29.5t-119 -7.5z" />
    <glyph glyph-name="ij" unicode="&#x133;" horiz-adv-x="573" 
d="M79 0v642h72v-642h-72zM257 48q47 0 80 2.5t53.5 17t30 44.5t9.5 85v445h71v-441q0 -66 -12.5 -106.5t-41.5 -62.5t-77 -29.5t-119 -7.5z" />
    <glyph glyph-name="Jcircumflex" unicode="&#x134;" horiz-adv-x="322" 
d="M6 48q47 0 80 2.5t53.5 17t30 44.5t9.5 85v445h71v-441q0 -66 -12.5 -106.5t-41.5 -62.5t-77 -29.5t-119 -7.5zM274 707l-59 84l-59 -84h-72l44 54l44 53h80l91 -107h-69z" />
    <glyph glyph-name="jcircumflex" unicode="&#x135;" horiz-adv-x="322" 
d="M6 48q47 0 80 2.5t53.5 17t30 44.5t9.5 85v445h71v-441q0 -66 -12.5 -106.5t-41.5 -62.5t-77 -29.5t-119 -7.5zM277 707l-59 84l-59 -84h-72l44 54l44 53h80l91 -107h-69z" />
    <glyph glyph-name="uni0136" unicode="&#x136;" horiz-adv-x="675" 
d="M526 0l-215 292h-161v-292h-71v642h71v-293h161l215 293h94l-122.5 -160.5l-123.5 -160.5l123.5 -161l122.5 -160h-94zM298 -245q26 14 37.5 40t14.5 74h-50v73h77v-83q0 -45 -16.5 -74.5t-49.5 -46.5z" />
    <glyph glyph-name="uni0137" unicode="&#x137;" horiz-adv-x="680" 
d="M627 0q-25 -4 -46.5 -2.5t-42.5 12.5t-43.5 33t-50.5 60l-142 189h-158v-292h-71v642h71v-293h158l223 293h89l-122.5 -160.5l-123.5 -160.5l142 -186q23 -30 40 -47t31.5 -25.5t28 -10t28.5 0.5zM298 -245q26 14 37.5 40t14.5 74h-50v73h77v-83q0 -45 -16.5 -74.5
t-49.5 -46.5z" />
    <glyph glyph-name="kgreenlandic" unicode="&#x138;" horiz-adv-x="680" 
d="M627 0q-25 -4 -46.5 -2.5t-42.5 12.5t-43.5 33t-50.5 60l-142 189h-158v-292h-71v642h71v-293h158l223 293h89l-122.5 -160.5l-123.5 -160.5l142 -186q23 -30 40 -47t31.5 -25.5t28 -10t28.5 0.5z" />
    <glyph glyph-name="Lacute" unicode="&#x139;" horiz-adv-x="532" 
d="M79 0v642h71v-584h382l-10 -58h-443zM80 689l53 107h85q-26 -29 -45.5 -53.5l-42.5 -53.5h-50z" />
    <glyph glyph-name="lacute" unicode="&#x13a;" horiz-adv-x="532" 
d="M79 0v642h71v-584h382l-10 -58h-443zM80 689l53 107h85q-26 -29 -45.5 -53.5l-42.5 -53.5h-50z" />
    <glyph glyph-name="uni013B" unicode="&#x13b;" horiz-adv-x="532" 
d="M79 0v642h71v-584h382l-10 -58h-443zM227 -245q26 14 37.5 40t14.5 74h-50v73h77v-83q0 -45 -16.5 -74.5t-49.5 -46.5z" />
    <glyph glyph-name="uni013C" unicode="&#x13c;" horiz-adv-x="532" 
d="M79 0v642h71v-584h382l-10 -58h-443zM298 -245q26 14 37.5 40t14.5 74h-50v73h77v-83q0 -45 -16.5 -74.5t-49.5 -46.5z" />
    <glyph glyph-name="Lcaron" unicode="&#x13d;" horiz-adv-x="532" 
d="M79 0v642h71v-584h382l-10 -58h-443zM388 476q23 12 34 37.5t12 68.5h-44v75h72v-64q0 -29 -4 -50.5t-10 -34.5q-9 -14 -20.5 -26t-29.5 -21z" />
    <glyph glyph-name="lcaron" unicode="&#x13e;" horiz-adv-x="532" 
d="M79 0v642h71v-584h382l-10 -58h-443zM388 476q23 12 34 37.5t12 68.5h-44v75h72v-64q0 -29 -4 -50.5t-10 -34.5q-9 -14 -20.5 -26t-29.5 -21z" />
    <glyph glyph-name="Ldot" unicode="&#x13f;" horiz-adv-x="532" 
d="M79 0v642h71v-584h382l-10 -58h-443zM327 292v73h77v-73h-77z" />
    <glyph glyph-name="ldot" unicode="&#x140;" horiz-adv-x="532" 
d="M79 0v642h71v-584h382l-10 -58h-443zM327 292v73h77v-73h-77z" />
    <glyph glyph-name="Lslash" unicode="&#x141;" horiz-adv-x="532" 
d="M79 0v198l-81 -56l-16 43l97 68v389h71v-340l187 131l15 -45l-202 -140v-190h382l-10 -58h-443z" />
    <glyph glyph-name="lslash" unicode="&#x142;" horiz-adv-x="532" 
d="M79 0v198l-81 -56l-16 43l97 68v389h71v-340l187 131l15 -45l-202 -140v-190h382l-10 -58h-443z" />
    <glyph glyph-name="Nacute" unicode="&#x143;" horiz-adv-x="685" 
d="M526 0l-379 544v-544h-68v642h80l379 -542v542h67v-642h-79zM273 689l53 107h85q-26 -29 -45.5 -53.5l-42.5 -53.5h-50z" />
    <glyph glyph-name="nacute" unicode="&#x144;" horiz-adv-x="685" 
d="M526 0l-379 544v-544h-68v642h80l379 -542v542h67v-642h-79zM273 689l53 107h85q-26 -29 -45.5 -53.5l-42.5 -53.5h-50z" />
    <glyph glyph-name="uni0145" unicode="&#x145;" horiz-adv-x="685" 
d="M526 0l-379 544v-544h-68v642h80l379 -542v542h67v-642h-79zM303 -245q26 14 37.5 40t14.5 74h-50v73h77v-83q0 -45 -16.5 -74.5t-49.5 -46.5z" />
    <glyph glyph-name="uni0146" unicode="&#x146;" horiz-adv-x="685" 
d="M526 0l-379 544v-544h-68v642h80l379 -542v542h67v-642h-79zM303 -245q26 14 37.5 40t14.5 74h-50v73h77v-83q0 -45 -16.5 -74.5t-49.5 -46.5z" />
    <glyph glyph-name="Ncaron" unicode="&#x147;" horiz-adv-x="685" 
d="M526 0l-379 544v-544h-68v642h80l379 -542v542h67v-642h-79zM390 693h-96l-92 102h77l63 -75l63 75h77z" />
    <glyph glyph-name="ncaron" unicode="&#x148;" horiz-adv-x="685" 
d="M526 0l-379 544v-544h-68v642h80l379 -542v542h67v-642h-79zM390 693h-96l-92 102h77l63 -75l63 75h77z" />
    <glyph glyph-name="napostrophe" unicode="&#x149;" horiz-adv-x="685" 
d="M526 0l-379 544v-544h-68v642h80l379 -542v542h67v-642h-79zM1 658q26 14 37.5 40t14.5 74h-50v73h77v-83q0 -45 -16.5 -74.5t-49.5 -46.5z" />
    <glyph glyph-name="Eng" unicode="&#x14a;" horiz-adv-x="685" 
d="M147 544v-544h-68v642h80l379 -542v542h67v-642q0 -49 -15.5 -79.5t-46.5 -47t-78 -22t-110 -5.5l6 53q41 0 80 4.5t65 15.5t33.5 31t-13.5 50z" />
    <glyph glyph-name="eng" unicode="&#x14b;" horiz-adv-x="685" 
d="M147 544v-544h-68v642h80l379 -542v542h67v-642q0 -49 -15.5 -79.5t-46.5 -47t-78 -22t-110 -5.5l6 53q41 0 80 4.5t65 15.5t33.5 31t-13.5 50z" />
    <glyph glyph-name="Omacron" unicode="&#x14c;" 
d="M379 599q-49 0 -94 -4.5t-79 -30.5t-54.5 -82.5t-20.5 -159.5q0 -69 9.5 -116.5t26 -78t39.5 -47.5t50.5 -24.5t58.5 -9t64 -1.5q32 0 63 1.5t58.5 9t51 24.5t40 47.5t26 78t9.5 116.5q0 103 -21 159.5t-55.5 82.5t-79 30.5t-92.5 4.5zM57 322q0 108 25.5 173.5t69 101
t102 47t125.5 11.5t125.5 -11.5t102 -47t69 -101t25.5 -173.5t-25.5 -173.5t-69 -101t-102 -47t-125.5 -11.5t-125.5 11.5t-102 47t-69 101t-25.5 173.5zM241 745v38h275v-38h-275z" />
    <glyph glyph-name="omacron" unicode="&#x14d;" 
d="M379 599q-49 0 -94 -4.5t-79 -30.5t-54.5 -82.5t-20.5 -159.5q0 -69 9.5 -116.5t26 -78t39.5 -47.5t50.5 -24.5t58.5 -9t64 -1.5q32 0 63 1.5t58.5 9t51 24.5t40 47.5t26 78t9.5 116.5q0 103 -21 159.5t-55.5 82.5t-79 30.5t-92.5 4.5zM57 322q0 108 25.5 173.5t69 101
t102 47t125.5 11.5t125.5 -11.5t102 -47t69 -101t25.5 -173.5t-25.5 -173.5t-69 -101t-102 -47t-125.5 -11.5t-125.5 11.5t-102 47t-69 101t-25.5 173.5zM241 745v38h275v-38h-275z" />
    <glyph glyph-name="Obreve" unicode="&#x14e;" 
d="M379 599q-49 0 -94 -4.5t-79 -30.5t-54.5 -82.5t-20.5 -159.5q0 -69 9.5 -116.5t26 -78t39.5 -47.5t50.5 -24.5t58.5 -9t64 -1.5q32 0 63 1.5t58.5 9t51 24.5t40 47.5t26 78t9.5 116.5q0 103 -21 159.5t-55.5 82.5t-79 30.5t-92.5 4.5zM57 322q0 108 25.5 173.5t69 101
t102 47t125.5 11.5t125.5 -11.5t102 -47t69 -101t25.5 -173.5t-25.5 -173.5t-69 -101t-102 -47t-125.5 -11.5t-125.5 11.5t-102 47t-69 101t-25.5 173.5zM517 819q-10 -53 -45.5 -82.5t-92.5 -29.5q-59 0 -94 27.5t-44 84.5h43q17 -69 92 -69q44 0 67 17t32 52h42z" />
    <glyph glyph-name="obreve" unicode="&#x14f;" 
d="M379 599q-49 0 -94 -4.5t-79 -30.5t-54.5 -82.5t-20.5 -159.5q0 -69 9.5 -116.5t26 -78t39.5 -47.5t50.5 -24.5t58.5 -9t64 -1.5q32 0 63 1.5t58.5 9t51 24.5t40 47.5t26 78t9.5 116.5q0 103 -21 159.5t-55.5 82.5t-79 30.5t-92.5 4.5zM57 322q0 108 25.5 173.5t69 101
t102 47t125.5 11.5t125.5 -11.5t102 -47t69 -101t25.5 -173.5t-25.5 -173.5t-69 -101t-102 -47t-125.5 -11.5t-125.5 11.5t-102 47t-69 101t-25.5 173.5zM517 819q-10 -53 -45.5 -82.5t-92.5 -29.5q-59 0 -94 27.5t-44 84.5h43q17 -69 92 -69q44 0 67 17t32 52h42z" />
    <glyph glyph-name="Ohungarumlaut" unicode="&#x150;" 
d="M379 599q-49 0 -94 -4.5t-79 -30.5t-54.5 -82.5t-20.5 -159.5q0 -69 9.5 -116.5t26 -78t39.5 -47.5t50.5 -24.5t58.5 -9t64 -1.5q32 0 63 1.5t58.5 9t51 24.5t40 47.5t26 78t9.5 116.5q0 103 -21 159.5t-55.5 82.5t-79 30.5t-92.5 4.5zM57 322q0 108 25.5 173.5t69 101
t102 47t125.5 11.5t125.5 -11.5t102 -47t69 -101t25.5 -173.5t-25.5 -173.5t-69 -101t-102 -47t-125.5 -11.5t-125.5 11.5t-102 47t-69 101t-25.5 173.5zM223 707l53 107h85q-26 -29 -45.5 -53.5l-42.5 -53.5h-50zM397 707l53 107h85q-26 -29 -45.5 -53.5l-42.5 -53.5h-50z
" />
    <glyph glyph-name="ohungarumlaut" unicode="&#x151;" 
d="M379 599q-49 0 -94 -4.5t-79 -30.5t-54.5 -82.5t-20.5 -159.5q0 -69 9.5 -116.5t26 -78t39.5 -47.5t50.5 -24.5t58.5 -9t64 -1.5q32 0 63 1.5t58.5 9t51 24.5t40 47.5t26 78t9.5 116.5q0 103 -21 159.5t-55.5 82.5t-79 30.5t-92.5 4.5zM57 322q0 108 25.5 173.5t69 101
t102 47t125.5 11.5t125.5 -11.5t102 -47t69 -101t25.5 -173.5t-25.5 -173.5t-69 -101t-102 -47t-125.5 -11.5t-125.5 11.5t-102 47t-69 101t-25.5 173.5zM223 707l53 107h85q-26 -29 -45.5 -53.5l-42.5 -53.5h-50zM397 707l53 107h85q-26 -29 -45.5 -53.5l-42.5 -53.5h-50z
" />
    <glyph glyph-name="OE" unicode="&#x152;" horiz-adv-x="1167" 
d="M630 0v70q-22 -25 -50 -40.5t-60 -24.5t-67.5 -12.5t-73.5 -3.5q-67 0 -125.5 11.5t-102 47t-69 101t-25.5 173.5t25.5 173.5t69 101t102 47t125.5 11.5q76 0 141.5 -16t109.5 -65v68h480l-10 -57h-398v-224h323v-57h-323v-246h408l-10 -58h-470zM379 45q32 0 63 1.5
t58.5 9t51 24.5t40 47.5t26 78t9.5 116.5q0 103 -21 159.5t-55.5 82.5t-79 30.5t-92.5 4.5q-49 0 -94 -4.5t-79 -30.5t-54.5 -82.5t-20.5 -159.5q0 -69 9.5 -116.5t26 -78t39.5 -47.5t50.5 -24.5t58.5 -9t64 -1.5z" />
    <glyph glyph-name="oe" unicode="&#x153;" horiz-adv-x="1286" 
d="M1198 38q-21 -10 -51 -19t-64.5 -16t-71.5 -11.5t-72 -4.5q-51 0 -94.5 5t-78.5 19t-62 38.5t-45 62.5q-21 -38 -50.5 -62t-65.5 -37.5t-77.5 -18.5t-86.5 -5q-67 0 -125.5 11.5t-102 47t-69 101t-25.5 173.5t25.5 173.5t69 101t102 47t125.5 11.5q46 0 88.5 -5
t79.5 -19.5t66.5 -40t49.5 -65.5q19 39 46 64.5t61 40t74.5 20t85.5 5.5q72 0 127.5 -14t93.5 -50.5t58 -99.5t20 -162v-26h-529v-10q2 -79 16.5 -128t44.5 -76t77.5 -36t115.5 -9q30 0 61.5 5.5t60 13t52 15.5l37.5 13zM626 348q-3 94 -24.5 145t-55.5 74.5t-77.5 27.5
t-89.5 4q-49 0 -94 -4.5t-79 -30.5t-54.5 -82.5t-20.5 -159.5q0 -69 9.5 -116.5t26 -78t39.5 -47.5t50.5 -24.5t58.5 -9t64 -1.5q46 0 89 4t77 26.5t56 72t25 139.5v61zM1153 361q-3 77 -18.5 124t-43 72.5t-68 33.5t-93.5 8q-46 0 -86 -5.5t-70.5 -28.5t-49.5 -71t-23 -133
h452z" />
    <glyph glyph-name="Racute" unicode="&#x154;" horiz-adv-x="669" 
d="M527 0l-170 231h-206v-231h-72v642h260q71 0 119 -7.5t77 -29.5t41.5 -62.5t12.5 -106.5q0 -53 -7.5 -89t-25 -59t-46 -35.5t-70.5 -17.5l178 -235h-91zM341 288q47 0 80 3.5t53.5 18t30 44t9.5 82.5q0 55 -9.5 85t-30 44t-53.5 17t-80 3h-190v-297h190zM265 689l53 107
h85q-26 -29 -45.5 -53.5l-42.5 -53.5h-50z" />
    <glyph glyph-name="racute" unicode="&#x155;" horiz-adv-x="669" 
d="M527 0l-170 231h-206v-231h-72v642h260q71 0 119 -7.5t77 -29.5t41.5 -62.5t12.5 -106.5q0 -53 -7.5 -89t-25 -59t-46 -35.5t-70.5 -17.5l178 -235h-91zM341 288q47 0 80 3.5t53.5 18t30 44t9.5 82.5q0 55 -9.5 85t-30 44t-53.5 17t-80 3h-190v-297h190zM265 689l53 107
h85q-26 -29 -45.5 -53.5l-42.5 -53.5h-50z" />
    <glyph glyph-name="uni0156" unicode="&#x156;" horiz-adv-x="669" 
d="M527 0l-170 231h-206v-231h-72v642h260q71 0 119 -7.5t77 -29.5t41.5 -62.5t12.5 -106.5q0 -53 -7.5 -89t-25 -59t-46 -35.5t-70.5 -17.5l178 -235h-91zM341 288q47 0 80 3.5t53.5 18t30 44t9.5 82.5q0 55 -9.5 85t-30 44t-53.5 17t-80 3h-190v-297h190zM298 -245
q26 14 37.5 40t14.5 74h-50v73h77v-83q0 -45 -16.5 -74.5t-49.5 -46.5z" />
    <glyph glyph-name="uni0157" unicode="&#x157;" horiz-adv-x="681" 
d="M628 0q-25 -4 -46.5 -2.5t-42.5 12.5t-43.5 33t-50.5 60l-94 128h-18h-187v-231h-72v642h259q71 0 119 -7.5t77 -29.5t41.5 -62.5t12.5 -106.5q0 -53 -7.5 -89t-25 -59t-46 -35.5t-70.5 -17.5l77 -100q23 -30 40 -47t31.5 -25.5t28 -10t28.5 0.5zM335 288q47 0 80 3.5
t53.5 18t30 44t9.5 82.5q0 55 -9.5 85t-30 44t-53.5 17t-80 3h-189v-297h189zM298 -245q26 14 37.5 40t14.5 74h-50v73h77v-83q0 -45 -16.5 -74.5t-49.5 -46.5z" />
    <glyph glyph-name="Rcaron" unicode="&#x158;" horiz-adv-x="669" 
d="M527 0l-170 231h-206v-231h-72v642h260q71 0 119 -7.5t77 -29.5t41.5 -62.5t12.5 -106.5q0 -53 -7.5 -89t-25 -59t-46 -35.5t-70.5 -17.5l178 -235h-91zM341 288q47 0 80 3.5t53.5 18t30 44t9.5 82.5q0 55 -9.5 85t-30 44t-53.5 17t-80 3h-190v-297h190zM357 693h-96
l-92 102h77l63 -75l63 75h77z" />
    <glyph glyph-name="rcaron" unicode="&#x159;" horiz-adv-x="681" 
d="M628 0q-25 -4 -46.5 -2.5t-42.5 12.5t-43.5 33t-50.5 60l-94 128h-18h-187v-231h-72v642h259q71 0 119 -7.5t77 -29.5t41.5 -62.5t12.5 -106.5q0 -53 -7.5 -89t-25 -59t-46 -35.5t-70.5 -17.5l77 -100q23 -30 40 -47t31.5 -25.5t28 -10t28.5 0.5zM335 288q47 0 80 3.5
t53.5 18t30 44t9.5 82.5q0 55 -9.5 85t-30 44t-53.5 17t-80 3h-189v-297h189zM388 693h-96l-92 102h77l63 -75l63 75h77z" />
    <glyph glyph-name="Sacute" unicode="&#x15a;" horiz-adv-x="624" 
d="M522 562q-14 5 -37 11t-51 11.5t-59 9t-61 3.5q-89 0 -135 -25.5t-46 -93.5q0 -32 3.5 -49t16 -27.5t37.5 -17t69 -15.5q56 -12 112.5 -21.5t102.5 -28t75.5 -51.5t30.5 -91q0 -58 -19 -94.5t-53 -57.5t-81.5 -28.5t-104.5 -7.5q-35 0 -74 3.5t-76.5 10.5t-70.5 15.5
t-55 19.5l15 28t16 27q15 -6 39.5 -14t57.5 -15t73 -12t84 -5q42 0 75.5 2t57 14t36 37.5t12.5 72.5q0 30 -7 47.5t-23 28t-43 16.5t-67 14q-84 16 -143 28.5t-95.5 32t-53 52t-16.5 87.5q0 44 18.5 77t51 54.5t75 32.5t90.5 11q35 0 71.5 -2.5t70.5 -7.5t63.5 -12t50.5 -17
zM271 689l53 107h85q-26 -29 -45.5 -53.5l-42.5 -53.5h-50z" />
    <glyph glyph-name="sacute" unicode="&#x15b;" horiz-adv-x="624" 
d="M522 562q-14 5 -37 11t-51 11.5t-59 9t-61 3.5q-89 0 -135 -25.5t-46 -93.5q0 -32 3.5 -49t16 -27.5t37.5 -17t69 -15.5q56 -12 112.5 -21.5t102.5 -28t75.5 -51.5t30.5 -91q0 -58 -19 -94.5t-53 -57.5t-81.5 -28.5t-104.5 -7.5q-35 0 -74 3.5t-76.5 10.5t-70.5 15.5
t-55 19.5l15 28t16 27q15 -6 39.5 -14t57.5 -15t73 -12t84 -5q42 0 75.5 2t57 14t36 37.5t12.5 72.5q0 30 -7 47.5t-23 28t-43 16.5t-67 14q-84 16 -143 28.5t-95.5 32t-53 52t-16.5 87.5q0 44 18.5 77t51 54.5t75 32.5t90.5 11q35 0 71.5 -2.5t70.5 -7.5t63.5 -12t50.5 -17
zM271 689l53 107h85q-26 -29 -45.5 -53.5l-42.5 -53.5h-50z" />
    <glyph glyph-name="Scircumflex" unicode="&#x15c;" horiz-adv-x="624" 
d="M522 562q-14 5 -37 11t-51 11.5t-59 9t-61 3.5q-89 0 -135 -25.5t-46 -93.5q0 -32 3.5 -49t16 -27.5t37.5 -17t69 -15.5q56 -12 112.5 -21.5t102.5 -28t75.5 -51.5t30.5 -91q0 -58 -19 -94.5t-53 -57.5t-81.5 -28.5t-104.5 -7.5q-35 0 -74 3.5t-76.5 10.5t-70.5 15.5
t-55 19.5l15 28t16 27q15 -6 39.5 -14t57.5 -15t73 -12t84 -5q42 0 75.5 2t57 14t36 37.5t12.5 72.5q0 30 -7 47.5t-23 28t-43 16.5t-67 14q-84 16 -143 28.5t-95.5 32t-53 52t-16.5 87.5q0 44 18.5 77t51 54.5t75 32.5t90.5 11q35 0 71.5 -2.5t70.5 -7.5t63.5 -12t50.5 -17
zM372 707l-59 84l-59 -84h-72l44 54l44 53h80l91 -107h-69z" />
    <glyph glyph-name="scircumflex" unicode="&#x15d;" horiz-adv-x="624" 
d="M522 562q-14 5 -37 11t-51 11.5t-59 9t-61 3.5q-89 0 -135 -25.5t-46 -93.5q0 -32 3.5 -49t16 -27.5t37.5 -17t69 -15.5q56 -12 112.5 -21.5t102.5 -28t75.5 -51.5t30.5 -91q0 -58 -19 -94.5t-53 -57.5t-81.5 -28.5t-104.5 -7.5q-35 0 -74 3.5t-76.5 10.5t-70.5 15.5
t-55 19.5l15 28t16 27q15 -6 39.5 -14t57.5 -15t73 -12t84 -5q42 0 75.5 2t57 14t36 37.5t12.5 72.5q0 30 -7 47.5t-23 28t-43 16.5t-67 14q-84 16 -143 28.5t-95.5 32t-53 52t-16.5 87.5q0 44 18.5 77t51 54.5t75 32.5t90.5 11q35 0 71.5 -2.5t70.5 -7.5t63.5 -12t50.5 -17
zM372 707l-59 84l-59 -84h-72l44 54l44 53h80l91 -107h-69z" />
    <glyph glyph-name="Scedilla" unicode="&#x15e;" horiz-adv-x="624" 
d="M224 -156h4q8 -1 17 -1h14q46 0 69 14q17 15 17 32q0 8 -2 14.5t-9 12t-21 9t-38 4.5l18 61q-33 1 -68.5 5t-68.5 10.5t-61.5 15t-48.5 17.5l15 28t16 27q15 -6 39.5 -14t57.5 -15t73 -12t84 -5q42 0 75.5 2t57 14t36 37.5t12.5 72.5q0 30 -7 47.5t-23 28t-43 16.5
t-67 14q-84 16 -143 28.5t-95.5 32t-53 52t-16.5 87.5q0 44 18.5 77t51 54.5t75 32.5t90.5 11q35 0 71.5 -2.5t70.5 -7.5t63.5 -12t50.5 -17l-33 -53q-14 5 -37 11t-51 11.5t-59 9t-61 3.5q-89 0 -135 -25.5t-46 -93.5q0 -32 3.5 -49t16 -27.5t37.5 -17t69 -15.5
q56 -12 112.5 -21.5t102.5 -28t75.5 -51.5t30.5 -91q0 -57 -18 -93t-50.5 -57t-78 -29t-100.5 -9l-14 -47q44 -5 65 -21.5t21 -37.5q0 -29 -32 -52.5t-95 -23.5q-34 0 -59 3z" />
    <glyph glyph-name="scedilla" unicode="&#x15f;" horiz-adv-x="624" 
d="M224 -156h4q8 -1 17 -1h14q46 0 69 14q17 15 17 32q0 8 -2 14.5t-9 12t-21 9t-38 4.5l18 61q-33 1 -68.5 5t-68.5 10.5t-61.5 15t-48.5 17.5l15 28t16 27q15 -6 39.5 -14t57.5 -15t73 -12t84 -5q42 0 75.5 2t57 14t36 37.5t12.5 72.5q0 30 -7 47.5t-23 28t-43 16.5
t-67 14q-84 16 -143 28.5t-95.5 32t-53 52t-16.5 87.5q0 44 18.5 77t51 54.5t75 32.5t90.5 11q35 0 71.5 -2.5t70.5 -7.5t63.5 -12t50.5 -17l-33 -53q-14 5 -37 11t-51 11.5t-59 9t-61 3.5q-89 0 -135 -25.5t-46 -93.5q0 -32 3.5 -49t16 -27.5t37.5 -17t69 -15.5
q56 -12 112.5 -21.5t102.5 -28t75.5 -51.5t30.5 -91q0 -57 -18 -93t-50.5 -57t-78 -29t-100.5 -9l-14 -47q44 -5 65 -21.5t21 -37.5q0 -29 -32 -52.5t-95 -23.5q-34 0 -59 3z" />
    <glyph glyph-name="Scaron" unicode="&#x160;" horiz-adv-x="624" 
d="M522 562q-14 5 -37 11t-51 11.5t-59 9t-61 3.5q-89 0 -135 -25.5t-46 -93.5q0 -32 3.5 -49t16 -27.5t37.5 -17t69 -15.5q56 -12 112.5 -21.5t102.5 -28t75.5 -51.5t30.5 -91q0 -58 -19 -94.5t-53 -57.5t-81.5 -28.5t-104.5 -7.5q-35 0 -74 3.5t-76.5 10.5t-70.5 15.5
t-55 19.5l15 28t16 27q15 -6 39.5 -14t57.5 -15t73 -12t84 -5q42 0 75.5 2t57 14t36 37.5t12.5 72.5q0 30 -7 47.5t-23 28t-43 16.5t-67 14q-84 16 -143 28.5t-95.5 32t-53 52t-16.5 87.5q0 44 18.5 77t51 54.5t75 32.5t90.5 11q35 0 71.5 -2.5t70.5 -7.5t63.5 -12t50.5 -17
zM360 693h-96l-92 102h77l63 -75l63 75h77z" />
    <glyph glyph-name="scaron" unicode="&#x161;" horiz-adv-x="624" 
d="M522 562q-14 5 -37 11t-51 11.5t-59 9t-61 3.5q-89 0 -135 -25.5t-46 -93.5q0 -32 3.5 -49t16 -27.5t37.5 -17t69 -15.5q56 -12 112.5 -21.5t102.5 -28t75.5 -51.5t30.5 -91q0 -58 -19 -94.5t-53 -57.5t-81.5 -28.5t-104.5 -7.5q-35 0 -74 3.5t-76.5 10.5t-70.5 15.5
t-55 19.5l15 28t16 27q15 -6 39.5 -14t57.5 -15t73 -12t84 -5q42 0 75.5 2t57 14t36 37.5t12.5 72.5q0 30 -7 47.5t-23 28t-43 16.5t-67 14q-84 16 -143 28.5t-95.5 32t-53 52t-16.5 87.5q0 44 18.5 77t51 54.5t75 32.5t90.5 11q35 0 71.5 -2.5t70.5 -7.5t63.5 -12t50.5 -17
zM360 693h-96l-92 102h77l63 -75l63 75h77z" />
    <glyph glyph-name="Tcommaaccent" unicode="&#x162;" horiz-adv-x="543" 
d="M234 0v585h-227l10 57h529l-10 -57h-230v-585h-72zM234 -257q23 12 34 37.5t12 68.5h-44v75h72v-64q0 -29 -4 -50.5t-10 -34.5q-9 -14 -20.5 -26t-29.5 -21z" />
    <glyph glyph-name="tcommaaccent" unicode="&#x163;" horiz-adv-x="543" 
d="M234 0v585h-227l10 57h529l-10 -57h-230v-585h-72zM234 -257q23 12 34 37.5t12 68.5h-44v75h72v-64q0 -29 -4 -50.5t-10 -34.5q-9 -14 -20.5 -26t-29.5 -21z" />
    <glyph glyph-name="Tcaron" unicode="&#x164;" horiz-adv-x="543" 
d="M234 0v585h-227l10 57h529l-10 -57h-230v-585h-72zM319 693h-96l-92 102h77l63 -75l63 75h77z" />
    <glyph glyph-name="tcaron" unicode="&#x165;" horiz-adv-x="543" 
d="M234 0v585h-227l10 57h529l-10 -57h-230v-585h-72zM319 693h-96l-92 102h77l63 -75l63 75h77z" />
    <glyph glyph-name="Tbar" unicode="&#x166;" horiz-adv-x="543" 
d="M234 0v434h-100v38h100v113h-227l10 57h529l-10 -57h-230v-113h103v-38h-103v-434h-72z" />
    <glyph glyph-name="tbar" unicode="&#x167;" horiz-adv-x="543" 
d="M234 0v434h-100v38h100v113h-227l10 57h529l-10 -57h-230v-113h103v-38h-103v-434h-72z" />
    <glyph glyph-name="Utilde" unicode="&#x168;" horiz-adv-x="686" 
d="M543 642h71v-372q0 -75 -10 -128.5t-39 -87t-82 -49.5t-139 -16t-139.5 16t-83 49.5t-40 87t-10.5 128.5v372h71v-371q0 -60 6.5 -102.5t27.5 -69.5t61 -39.5t107 -12.5t106.5 12.5t60 39.5t26.5 69.5t6 102.5v371zM492 803q-4 -40 -26.5 -62t-56.5 -22q-14 0 -32.5 6.5
t-42.5 18.5q-33 18 -51 18q-12 0 -19.5 -3.5t-15.5 -11.5q-5 -5 -8 -12t-4 -18h-43q1 20 7 33.5t17 25.5q26 26 64 26q14 0 33 -6.5t43 -17.5q30 -15 49 -15t29.5 8t15.5 32h41z" />
    <glyph glyph-name="utilde" unicode="&#x169;" horiz-adv-x="668" 
d="M543 642h71v-372q0 -75 -10 -128.5t-39 -87t-82 -49.5t-139 -16t-139.5 16t-83 49.5t-40 87t-10.5 128.5v372h71v-371q0 -60 6.5 -102.5t27.5 -69.5t61 -39.5t107 -12.5t106.5 12.5t60 39.5t26.5 69.5t6 102.5v371zM483 803q-4 -40 -26.5 -62t-56.5 -22q-14 0 -32.5 6.5
t-42.5 18.5q-33 18 -51 18q-12 0 -19.5 -3.5t-15.5 -11.5q-5 -5 -8 -12t-4 -18h-43q1 20 7 33.5t17 25.5q26 26 64 26q14 0 33 -6.5t43 -17.5q30 -15 49 -15t29.5 8t15.5 32h41z" />
    <glyph glyph-name="Umacron" unicode="&#x16a;" horiz-adv-x="686" 
d="M543 642h71v-372q0 -75 -10 -128.5t-39 -87t-82 -49.5t-139 -16t-139.5 16t-83 49.5t-40 87t-10.5 128.5v372h71v-371q0 -60 6.5 -102.5t27.5 -69.5t61 -39.5t107 -12.5t106.5 12.5t60 39.5t26.5 69.5t6 102.5v371zM205 745v38h275v-38h-275z" />
    <glyph glyph-name="umacron" unicode="&#x16b;" horiz-adv-x="668" 
d="M543 642h71v-372q0 -75 -10 -128.5t-39 -87t-82 -49.5t-139 -16t-139.5 16t-83 49.5t-40 87t-10.5 128.5v372h71v-371q0 -60 6.5 -102.5t27.5 -69.5t61 -39.5t107 -12.5t106.5 12.5t60 39.5t26.5 69.5t6 102.5v371zM196 745v38h275v-38h-275z" />
    <glyph glyph-name="Ubreve" unicode="&#x16c;" horiz-adv-x="686" 
d="M543 642h71v-372q0 -75 -10 -128.5t-39 -87t-82 -49.5t-139 -16t-139.5 16t-83 49.5t-40 87t-10.5 128.5v372h71v-371q0 -60 6.5 -102.5t27.5 -69.5t61 -39.5t107 -12.5t106.5 12.5t60 39.5t26.5 69.5t6 102.5v371zM481 819q-10 -53 -45.5 -82.5t-92.5 -29.5
q-59 0 -94 27.5t-44 84.5h43q17 -69 92 -69q44 0 67 17t32 52h42z" />
    <glyph glyph-name="ubreve" unicode="&#x16d;" horiz-adv-x="668" 
d="M543 642h71v-372q0 -75 -10 -128.5t-39 -87t-82 -49.5t-139 -16t-139.5 16t-83 49.5t-40 87t-10.5 128.5v372h71v-371q0 -60 6.5 -102.5t27.5 -69.5t61 -39.5t107 -12.5t106.5 12.5t60 39.5t26.5 69.5t6 102.5v371zM472 819q-10 -53 -45.5 -82.5t-92.5 -29.5
q-59 0 -94 27.5t-44 84.5h43q17 -69 92 -69q44 0 67 17t32 52h42z" />
    <glyph glyph-name="Uring" unicode="&#x16e;" horiz-adv-x="686" 
d="M543 642h71v-372q0 -75 -10 -128.5t-39 -87t-82 -49.5t-139 -16t-139.5 16t-83 49.5t-40 87t-10.5 128.5v372h71v-371q0 -60 6.5 -102.5t27.5 -69.5t61 -39.5t107 -12.5t106.5 12.5t60 39.5t26.5 69.5t6 102.5v371zM343 707q13 0 22.5 5t9.5 32q0 26 -10 30.5t-22 4.5
q-13 0 -22.5 -4.5t-9.5 -30.5q0 -27 9.5 -32t22.5 -5zM343 677q-14 0 -25.5 2.5t-20 9.5t-13.5 20t-5 35q0 21 5 34t13.5 20t20 9.5t25.5 2.5q13 0 25 -2.5t20.5 -9.5t13.5 -20t5 -34q0 -22 -5 -35t-13.5 -20t-20.5 -9.5t-25 -2.5z" />
    <glyph glyph-name="uring" unicode="&#x16f;" horiz-adv-x="668" 
d="M543 642h71v-372q0 -75 -10 -128.5t-39 -87t-82 -49.5t-139 -16t-139.5 16t-83 49.5t-40 87t-10.5 128.5v372h71v-371q0 -60 6.5 -102.5t27.5 -69.5t61 -39.5t107 -12.5t106.5 12.5t60 39.5t26.5 69.5t6 102.5v371zM334 707q13 0 22.5 5t9.5 32q0 26 -10 30.5t-22 4.5
q-13 0 -22.5 -4.5t-9.5 -30.5q0 -27 9.5 -32t22.5 -5zM334 677q-14 0 -25.5 2.5t-20 9.5t-13.5 20t-5 35q0 21 5 34t13.5 20t20 9.5t25.5 2.5q13 0 25 -2.5t20.5 -9.5t13.5 -20t5 -34q0 -22 -5 -35t-13.5 -20t-20.5 -9.5t-25 -2.5z" />
    <glyph glyph-name="Uhungarumlaut" unicode="&#x170;" horiz-adv-x="686" 
d="M543 642h71v-372q0 -75 -10 -128.5t-39 -87t-82 -49.5t-139 -16t-139.5 16t-83 49.5t-40 87t-10.5 128.5v372h71v-371q0 -60 6.5 -102.5t27.5 -69.5t61 -39.5t107 -12.5t106.5 12.5t60 39.5t26.5 69.5t6 102.5v371zM187 689l53 107h85q-26 -29 -45.5 -53.5l-42.5 -53.5
h-50zM361 689l53 107h85q-26 -29 -45.5 -53.5l-42.5 -53.5h-50z" />
    <glyph glyph-name="uhungarumlaut" unicode="&#x171;" horiz-adv-x="668" 
d="M543 642h71v-372q0 -75 -10 -128.5t-39 -87t-82 -49.5t-139 -16t-139.5 16t-83 49.5t-40 87t-10.5 128.5v372h71v-371q0 -60 6.5 -102.5t27.5 -69.5t61 -39.5t107 -12.5t106.5 12.5t60 39.5t26.5 69.5t6 102.5v371zM178 689l53 107h85q-26 -29 -45.5 -53.5l-42.5 -53.5
h-50zM352 689l53 107h85q-26 -29 -45.5 -53.5l-42.5 -53.5h-50z" />
    <glyph glyph-name="Uogonek" unicode="&#x172;" horiz-adv-x="686" 
d="M433 -150q-26 -3 -59 -3q-63 0 -95 23.5t-32 52.5q0 21 21 37.5t65 21.5l-2 7q-82 1 -133 17.5t-79 50.5t-38 86.5t-10 126.5v372h71v-371q0 -60 6.5 -102.5t27.5 -69.5t61 -39.5t107 -12.5t106.5 12.5t60 39.5t26.5 69.5t6 102.5v371h71v-372q0 -72 -9 -124t-35.5 -86
t-74 -51t-124.5 -19l6 -21q-24 -1 -38 -4.5t-21 -9t-9 -12t-2 -14.5q0 -17 17 -32q23 -14 69 -14h14t17 1h4z" />
    <glyph glyph-name="uogonek" unicode="&#x173;" horiz-adv-x="668" 
d="M433 -150q-26 -3 -59 -3q-63 0 -95 23.5t-32 52.5q0 21 21 37.5t65 21.5l-2 7q-82 1 -133 17.5t-79 50.5t-38 86.5t-10 126.5v372h71v-371q0 -60 6.5 -102.5t27.5 -69.5t61 -39.5t107 -12.5t106.5 12.5t60 39.5t26.5 69.5t6 102.5v371h71v-372q0 -72 -9 -124t-35.5 -86
t-74 -51t-124.5 -19l6 -21q-24 -1 -38 -4.5t-21 -9t-9 -12t-2 -14.5q0 -17 17 -32q23 -14 69 -14h14t17 1h4z" />
    <glyph glyph-name="Wcircumflex" unicode="&#x174;" horiz-adv-x="908" 
d="M600 0l-147 532l-138 -532h-85l-187 642h74l153 -582h6l142 582h69l153 -582h6l142 582h76l-179 -642h-85zM514 707l-59 84l-59 -84h-72l44 54l44 53h80l91 -107h-69z" />
    <glyph glyph-name="wcircumflex" unicode="&#x175;" horiz-adv-x="908" 
d="M600 0l-147 532l-138 -532h-85l-187 642h74l153 -582h6l142 582h69l153 -582h6l142 582h76l-179 -642h-85zM514 707l-59 84l-59 -84h-72l44 54l44 53h80l91 -107h-69z" />
    <glyph glyph-name="Ycircumflex" unicode="&#x176;" horiz-adv-x="618" 
d="M269 0v274l-127.5 184l-128.5 184h86l66 -97.5l66 -97.5q20 -29 41.5 -64l38.5 -63l37.5 62.5t45.5 68.5l66 95.5l67 95.5h79l-265 -368v-274h-72zM369 707l-59 84l-59 -84h-72l44 54l44 53h80l91 -107h-69z" />
    <glyph glyph-name="ycircumflex" unicode="&#x177;" horiz-adv-x="618" 
d="M269 0v274l-127.5 184l-128.5 184h86l66 -97.5l66 -97.5q20 -29 41.5 -64l38.5 -63l37.5 62.5t45.5 68.5l66 95.5l67 95.5h79l-265 -368v-274h-72zM369 707l-59 84l-59 -84h-72l44 54l44 53h80l91 -107h-69z" />
    <glyph glyph-name="Ydieresis" unicode="&#x178;" horiz-adv-x="618" 
d="M269 0v274l-127.5 184l-128.5 184h86l66 -97.5l66 -97.5q20 -29 41.5 -64l38.5 -63l37.5 62.5t45.5 68.5l66 95.5l67 95.5h79l-265 -368v-274h-72zM185 741v73h70v-73h-70zM363 741v73h70v-73h-70z" />
    <glyph glyph-name="Zacute" unicode="&#x179;" horiz-adv-x="585" 
d="M28 0v67l439 518h-419l10 57h485v-63l-444 -521h456l-10 -58h-517zM223 689l53 107h85q-26 -29 -45.5 -53.5l-42.5 -53.5h-50z" />
    <glyph glyph-name="zacute" unicode="&#x17a;" horiz-adv-x="585" 
d="M28 0v67l439 518h-419l10 57h485v-63l-444 -521h456l-10 -58h-517zM223 689l53 107h85q-26 -29 -45.5 -53.5l-42.5 -53.5h-50z" />
    <glyph glyph-name="Zdotaccent" unicode="&#x17b;" horiz-adv-x="585" 
d="M28 0v67l439 518h-419l10 57h485v-63l-444 -521h456l-10 -58h-517zM331 719h-78v73h78v-73z" />
    <glyph glyph-name="zdotaccent" unicode="&#x17c;" horiz-adv-x="585" 
d="M28 0v67l439 518h-419l10 57h485v-63l-444 -521h456l-10 -58h-517zM331 719h-78v73h78v-73z" />
    <glyph glyph-name="Zcaron" unicode="&#x17d;" horiz-adv-x="585" 
d="M28 0v67l439 518h-419l10 57h485v-63l-444 -521h456l-10 -58h-517zM340 693h-96l-92 102h77l63 -75l63 75h77z" />
    <glyph glyph-name="zcaron" unicode="&#x17e;" horiz-adv-x="585" 
d="M28 0v67l439 518h-419l10 57h485v-63l-444 -521h456l-10 -58h-517zM340 693h-96l-92 102h77l63 -75l63 75h77z" />
    <glyph glyph-name="uni0186" unicode="&#x186;" horiz-adv-x="650" 
d="M56 84q14 -5 36 -12t48 -13t56 -10.5t60 -4.5q54 0 100 7.5t79.5 35t52.5 83t19 151.5q0 95 -19 150.5t-52.5 83.5t-79.5 35.5t-100 7.5q-61 0 -111 -13t-79 -23l-33 53q85 40 225 40q73 0 133 -12.5t102 -48.5t65 -101.5t23 -171.5t-23 -171.5t-65 -101.5t-102 -48.5
t-133 -12.5q-70 0 -131.5 12t-103.5 32z" />
    <glyph glyph-name="uni018E" unicode="&#x18e;" horiz-adv-x="566" 
d="M485 0h-470l-10 58h408v246h-323v57h323v224h-398l-10 57h480v-642z" />
    <glyph glyph-name="uni018F" unicode="&#x18f;" horiz-adv-x="704" 
d="M58 339h529q-2 82 -16 133t-44 79t-77.5 37.5t-116.5 9.5q-30 0 -61.5 -5.5t-60 -13t-52 -15.5l-37.5 -13l-33 53q21 10 51 19t64.5 16t71.5 11.5t72 4.5q75 0 133 -12t98 -47.5t61 -99.5t21 -167q0 -108 -22.5 -175t-63 -104t-96 -50t-122.5 -13q-72 0 -127.5 14
t-93.5 50.5t-58 99.5t-20 162v26zM134 281q3 -77 18 -124t43 -72.5t68.5 -33.5t93.5 -8q46 0 86 5.5t70.5 28.5t49.5 71t23 133h-452z" />
    <glyph glyph-name="uni0190" unicode="&#x190;" horiz-adv-x="603" 
d="M564 28q-21 -10 -50.5 -17t-63.5 -12t-70.5 -7.5t-71.5 -2.5q-71 0 -119 7.5t-77 27t-41.5 53t-12.5 84.5q0 37 6 63.5t17.5 44.5t28 30.5t36.5 22.5q-20 10 -36 23t-27 31t-17 44t-6 64q0 51 12 84t40.5 51.5t76.5 26t119 7.5q35 0 71.5 -2.5t70.5 -7.5t63.5 -12
t50.5 -17l-33 -53q-14 5 -39.5 11t-56.5 11.5t-65 9t-64 3.5q-47 0 -80 -4t-53.5 -16t-30 -35t-9.5 -60q0 -45 8.5 -71t28 -39t50 -16.5t74.5 -3.5h161v-57h-161q-44 0 -75 -2.5t-50.5 -15.5t-28.5 -39.5t-9 -75.5q0 -41 9.5 -64.5t30.5 -34.5t54.5 -13.5t80.5 -2.5
q30 0 64 3.5t65 9t56.5 11.5t39.5 11z" />
    <glyph glyph-name="florin" unicode="&#x192;" horiz-adv-x="475" 
d="M237 422h-96l8 44h97l12 68q5 26 10.5 45.5t10.5 28.5q13 26 37.5 40t66.5 14q16 0 40 -3.5t51 -10.5l-13 -50q-22 5 -37.5 6.5t-27.5 1.5q-16 0 -27.5 -3t-20 -12t-14.5 -25t-10 -41l-13 -59h99q-2 -14 -4.5 -23t-4.5 -21h-98l-93 -508q-11 -63 -37.5 -87t-75.5 -24
q-20 0 -44.5 2t-50.5 7l14 50q20 -4 35 -6t28 -2q31 0 46.5 15t24.5 63z" />
    <glyph glyph-name="uni019F" unicode="&#x19f;" 
d="M379 -11q-67 0 -125.5 11.5t-102 47t-69 101t-25.5 173.5t25.5 173.5t69 101t102 47t125.5 11.5t125.5 -11.5t102 -47t69 -101t25.5 -173.5t-25.5 -173.5t-69 -101t-102 -47t-125.5 -11.5zM131 301q1 -64 11.5 -107.5t27 -72t39.5 -44t50 -22.5t57.5 -8.5t62.5 -1.5
q31 0 61 1.5t57.5 8.5t50.5 22.5t40 44t27 72t12 107.5h-496zM627 346q-3 94 -24.5 145.5t-56 75.5t-78 28t-89.5 4q-48 0 -91.5 -4t-77.5 -28t-55.5 -75.5t-23.5 -145.5h496z" />
    <glyph glyph-name="Ohorn" unicode="&#x1a0;" 
d="M669 518q17 0 32 17q14 23 14 69v14t-1 17v4l34 5q3 -26 3 -59q0 -57 -19.5 -88.5t-45.5 -37.5q15 -57 15 -137q0 -108 -25.5 -173.5t-69 -101t-102 -47t-125.5 -11.5t-125.5 11.5t-102 47t-69 101t-25.5 173.5t25.5 173.5t69 101t102 47t125.5 11.5q47 0 90 -5.5
t80.5 -20.5t67 -41.5t49.5 -69.5h3zM379 45q32 0 63 1.5t58.5 9t51 24.5t40 47.5t26 78t9.5 116.5q0 103 -21 159.5t-55.5 82.5t-79 30.5t-92.5 4.5q-49 0 -94 -4.5t-79 -30.5t-54.5 -82.5t-20.5 -159.5q0 -69 9.5 -116.5t26 -78t39.5 -47.5t50.5 -24.5t58.5 -9t64 -1.5z
" />
    <glyph glyph-name="ohorn" unicode="&#x1a1;" 
d="M669 518q17 0 32 17q14 23 14 69v14t-1 17v4l34 5q3 -26 3 -59q0 -57 -19.5 -88.5t-45.5 -37.5q15 -57 15 -137q0 -108 -25.5 -173.5t-69 -101t-102 -47t-125.5 -11.5t-125.5 11.5t-102 47t-69 101t-25.5 173.5t25.5 173.5t69 101t102 47t125.5 11.5q47 0 90 -5.5
t80.5 -20.5t67 -41.5t49.5 -69.5h3zM379 45q32 0 63 1.5t58.5 9t51 24.5t40 47.5t26 78t9.5 116.5q0 103 -21 159.5t-55.5 82.5t-79 30.5t-92.5 4.5q-49 0 -94 -4.5t-79 -30.5t-54.5 -82.5t-20.5 -159.5q0 -69 9.5 -116.5t26 -78t39.5 -47.5t50.5 -24.5t58.5 -9t64 -1.5z
" />
    <glyph glyph-name="uni01A7" unicode="&#x1a7;" horiz-adv-x="624" 
d="M71 615q21 10 50.5 17t63.5 12t70.5 7.5t71.5 2.5q48 0 90.5 -11t75 -32.5t51 -54.5t18.5 -77q0 -55 -16.5 -87.5t-53 -52t-95.5 -32t-143 -28.5q-40 -8 -67 -14t-43 -16.5t-23 -28t-7 -47.5q0 -47 12.5 -72.5t36 -37.5t57 -14t75.5 -2q44 0 84 5t73 12t57.5 15t39.5 14
q9 -14 16 -27l15 -28q-22 -11 -55 -19.5t-70.5 -15.5t-77 -10.5t-73.5 -3.5q-57 0 -104.5 7.5t-81.5 28.5t-53 57.5t-19 94.5q1 58 30.5 91t75.5 51.5t102.5 28t112.5 21.5q43 9 68.5 15.5t38 17t16 27.5t3.5 49q0 68 -46 93.5t-135 25.5q-30 0 -61 -3.5t-59 -9t-51 -11.5
t-37 -11z" />
    <glyph glyph-name="uni01A8" unicode="&#x1a8;" horiz-adv-x="624" 
d="M71 615q21 10 50.5 17t63.5 12t70.5 7.5t71.5 2.5q48 0 90.5 -11t75 -32.5t51 -54.5t18.5 -77q0 -55 -16.5 -87.5t-53 -52t-95.5 -32t-143 -28.5q-40 -8 -67 -14t-43 -16.5t-23 -28t-7 -47.5q0 -47 12.5 -72.5t36 -37.5t57 -14t75.5 -2q44 0 84 5t73 12t57.5 15t39.5 14
q9 -14 16 -27l15 -28q-22 -11 -55 -19.5t-70.5 -15.5t-77 -10.5t-73.5 -3.5q-57 0 -104.5 7.5t-81.5 28.5t-53 57.5t-19 94.5q1 58 30.5 91t75.5 51.5t102.5 28t112.5 21.5q43 9 68.5 15.5t38 17t16 27.5t3.5 49q0 68 -46 93.5t-135 25.5q-30 0 -61 -3.5t-59 -9t-51 -11.5
t-37 -11z" />
    <glyph glyph-name="Uhorn" unicode="&#x1af;" horiz-adv-x="686" 
d="M543 642h71v-124q16 1 30 17q14 23 14 69v14t-1 17v4l34 5q3 -26 3 -59q0 -63 -23.5 -95t-52.5 -32h-4v-188q0 -75 -10 -128.5t-39 -87t-82 -49.5t-139 -16t-139.5 16t-83 49.5t-40 87t-10.5 128.5v372h71v-371q0 -60 6.5 -102.5t27.5 -69.5t61 -39.5t107 -12.5
t106.5 12.5t60 39.5t26.5 69.5t6 102.5v371z" />
    <glyph glyph-name="uhorn" unicode="&#x1b0;" horiz-adv-x="668" 
d="M543 642h71v-124q16 1 30 17q14 23 14 69v14t-1 17v4l34 5q3 -26 3 -59q0 -63 -23.5 -95t-52.5 -32h-4v-188q0 -75 -10 -128.5t-39 -87t-82 -49.5t-139 -16t-139.5 16t-83 49.5t-40 87t-10.5 128.5v372h71v-371q0 -60 6.5 -102.5t27.5 -69.5t61 -39.5t107 -12.5
t106.5 12.5t60 39.5t26.5 69.5t6 102.5v371z" />
    <glyph glyph-name="uni01C7" unicode="&#x1c7;" horiz-adv-x="854" 
d="M79 0v642h71v-584h382l-10 -58h-443zM538 48q47 0 80 2.5t53.5 17t30 44.5t9.5 85v445h71v-441q0 -66 -12.5 -106.5t-41.5 -62.5t-77 -29.5t-119 -7.5z" />
    <glyph glyph-name="uni01C8" unicode="&#x1c8;" horiz-adv-x="854" 
d="M79 0v642h71v-584h382l-10 -58h-443zM538 48q47 0 80 2.5t53.5 17t30 44.5t9.5 85v445h71v-441q0 -66 -12.5 -106.5t-41.5 -62.5t-77 -29.5t-119 -7.5z" />
    <glyph glyph-name="uni01C9" unicode="&#x1c9;" horiz-adv-x="854" 
d="M79 0v642h71v-584h382l-10 -58h-443zM538 48q47 0 80 2.5t53.5 17t30 44.5t9.5 85v445h71v-441q0 -66 -12.5 -106.5t-41.5 -62.5t-77 -29.5t-119 -7.5z" />
    <glyph glyph-name="uni01CA" unicode="&#x1ca;" horiz-adv-x="1007" 
d="M526 0l-379 544v-544h-68v642h80l379 -542v542h67v-642h-79zM691 48q47 0 80 2.5t53.5 17t30 44.5t9.5 85v445h71v-441q0 -66 -12.5 -106.5t-41.5 -62.5t-77 -29.5t-119 -7.5z" />
    <glyph glyph-name="uni01CB" unicode="&#x1cb;" horiz-adv-x="1007" 
d="M526 0l-379 544v-544h-68v642h80l379 -542v542h67v-642h-79zM691 48q47 0 80 2.5t53.5 17t30 44.5t9.5 85v445h71v-441q0 -66 -12.5 -106.5t-41.5 -62.5t-77 -29.5t-119 -7.5z" />
    <glyph glyph-name="uni01CC" unicode="&#x1cc;" horiz-adv-x="1007" 
d="M526 0l-379 544v-544h-68v642h80l379 -542v542h67v-642h-79zM691 48q47 0 80 2.5t53.5 17t30 44.5t9.5 85v445h71v-441q0 -66 -12.5 -106.5t-41.5 -62.5t-77 -29.5t-119 -7.5z" />
    <glyph glyph-name="uni01CD" unicode="&#x1cd;" horiz-adv-x="657" 
d="M554 0l-81 201h-291l-80 -201h-74l257 642h86l257 -642h-74zM369 461l-38 121h-6l-38 -121l-84 -209h250zM287 707l-44 53l-44 54h72l59 -84l59 84h69l-91 -107h-80z" />
    <glyph glyph-name="uni01CE" unicode="&#x1ce;" horiz-adv-x="703" 
d="M648 -1q-50 7 -74 29t-32 71q-35 -53 -93.5 -81t-142.5 -28q-57 0 -104.5 9t-81.5 31.5t-53 61t-19 96.5t19 96.5t53 61t81.5 31.5t104.5 9h218q-3 74 -15 116.5t-36.5 63.5t-63 26.5t-95.5 5.5q-30 0 -59 -4t-54.5 -10t-46.5 -12.5t-35 -11.5l-33 53q42 20 101 31
t129 11q81 0 135.5 -12t87 -47t46.5 -100t14 -171v-16v-112q0 -38 3.5 -63.5t10.5 -42t18.5 -25.5t27.5 -13zM525 328h-219q-42 0 -77 -4.5t-60 -19t-39 -42t-14 -74.5t14 -74.5t39.5 -42t60.5 -19t77 -4.5q71 0 114 18t66 53.5t30.5 87t7.5 119.5v2zM310 707l-44 53l-44 54
h72l59 -84l59 84h69l-91 -107h-80z" />
    <glyph glyph-name="uni01CF" unicode="&#x1cf;" horiz-adv-x="241" 
d="M79 0v642h72v-642h-72zM80 707l-44 53l-44 54h72l59 -84l59 84h69l-91 -107h-80z" />
    <glyph glyph-name="uni01D0" unicode="&#x1d0;" horiz-adv-x="241" 
d="M79 0v642h72v-642h-72zM80 707l-44 53l-44 54h72l59 -84l59 84h69l-91 -107h-80z" />
    <glyph glyph-name="uni01D1" unicode="&#x1d1;" 
d="M379 599q-49 0 -94 -4.5t-79 -30.5t-54.5 -82.5t-20.5 -159.5q0 -69 9.5 -116.5t26 -78t39.5 -47.5t50.5 -24.5t58.5 -9t64 -1.5q32 0 63 1.5t58.5 9t51 24.5t40 47.5t26 78t9.5 116.5q0 103 -21 159.5t-55.5 82.5t-79 30.5t-92.5 4.5zM57 322q0 108 25.5 173.5t69 101
t102 47t125.5 11.5t125.5 -11.5t102 -47t69 -101t25.5 -173.5t-25.5 -173.5t-69 -101t-102 -47t-125.5 -11.5t-125.5 11.5t-102 47t-69 101t-25.5 173.5zM337 707l-44 53l-44 54h72l59 -84l59 84h69l-91 -107h-80z" />
    <glyph glyph-name="uni01D2" unicode="&#x1d2;" 
d="M379 599q-49 0 -94 -4.5t-79 -30.5t-54.5 -82.5t-20.5 -159.5q0 -69 9.5 -116.5t26 -78t39.5 -47.5t50.5 -24.5t58.5 -9t64 -1.5q32 0 63 1.5t58.5 9t51 24.5t40 47.5t26 78t9.5 116.5q0 103 -21 159.5t-55.5 82.5t-79 30.5t-92.5 4.5zM57 322q0 108 25.5 173.5t69 101
t102 47t125.5 11.5t125.5 -11.5t102 -47t69 -101t25.5 -173.5t-25.5 -173.5t-69 -101t-102 -47t-125.5 -11.5t-125.5 11.5t-102 47t-69 101t-25.5 173.5zM337 707l-44 53l-44 54h72l59 -84l59 84h69l-91 -107h-80z" />
    <glyph glyph-name="uni01D3" unicode="&#x1d3;" horiz-adv-x="686" 
d="M543 642h71v-372q0 -75 -10 -128.5t-39 -87t-82 -49.5t-139 -16t-139.5 16t-83 49.5t-40 87t-10.5 128.5v372h71v-371q0 -60 6.5 -102.5t27.5 -69.5t61 -39.5t107 -12.5t106.5 12.5t60 39.5t26.5 69.5t6 102.5v371zM301 707l-44 53l-44 54h72l59 -84l59 84h69l-91 -107
h-80z" />
    <glyph glyph-name="uni01D4" unicode="&#x1d4;" horiz-adv-x="668" 
d="M543 642h71v-372q0 -75 -10 -128.5t-39 -87t-82 -49.5t-139 -16t-139.5 16t-83 49.5t-40 87t-10.5 128.5v372h71v-371q0 -60 6.5 -102.5t27.5 -69.5t61 -39.5t107 -12.5t106.5 12.5t60 39.5t26.5 69.5t6 102.5v371zM292 707l-44 53l-44 54h72l59 -84l59 84h69l-91 -107
h-80z" />
    <glyph glyph-name="uni01D5" unicode="&#x1d5;" horiz-adv-x="686" 
d="M543 642h71v-372q0 -75 -10 -128.5t-39 -87t-82 -49.5t-139 -16t-139.5 16t-83 49.5t-40 87t-10.5 128.5v372h71v-371q0 -60 6.5 -102.5t27.5 -69.5t61 -39.5t107 -12.5t106.5 12.5t60 39.5t26.5 69.5t6 102.5v371zM219 723v73h70v-73h-70zM397 723v73h70v-73h-70z
M205 845v38h275v-38h-275z" />
    <glyph glyph-name="uni01D6" unicode="&#x1d6;" horiz-adv-x="668" 
d="M543 642h71v-372q0 -75 -10 -128.5t-39 -87t-82 -49.5t-139 -16t-139.5 16t-83 49.5t-40 87t-10.5 128.5v372h71v-371q0 -60 6.5 -102.5t27.5 -69.5t61 -39.5t107 -12.5t106.5 12.5t60 39.5t26.5 69.5t6 102.5v371zM210 723v73h70v-73h-70zM388 723v73h70v-73h-70z
M196 845v38h275v-38h-275z" />
    <glyph glyph-name="uni01D7" unicode="&#x1d7;" horiz-adv-x="686" 
d="M543 642h71v-372q0 -75 -10 -128.5t-39 -87t-82 -49.5t-139 -16t-139.5 16t-83 49.5t-40 87t-10.5 128.5v372h71v-371q0 -60 6.5 -102.5t27.5 -69.5t61 -39.5t107 -12.5t106.5 12.5t60 39.5t26.5 69.5t6 102.5v371zM219 723v73h70v-73h-70zM397 723v73h70v-73h-70z
M274 857l53 107h85q-26 -29 -45.5 -53.5l-42.5 -53.5h-50z" />
    <glyph glyph-name="uni01D8" unicode="&#x1d8;" horiz-adv-x="668" 
d="M543 642h71v-372q0 -75 -10 -128.5t-39 -87t-82 -49.5t-139 -16t-139.5 16t-83 49.5t-40 87t-10.5 128.5v372h71v-371q0 -60 6.5 -102.5t27.5 -69.5t61 -39.5t107 -12.5t106.5 12.5t60 39.5t26.5 69.5t6 102.5v371zM210 723v73h70v-73h-70zM388 723v73h70v-73h-70z
M265 857l53 107h85q-26 -29 -45.5 -53.5l-42.5 -53.5h-50z" />
    <glyph glyph-name="uni01D9" unicode="&#x1d9;" horiz-adv-x="686" 
d="M543 642h71v-372q0 -75 -10 -128.5t-39 -87t-82 -49.5t-139 -16t-139.5 16t-83 49.5t-40 87t-10.5 128.5v372h71v-371q0 -60 6.5 -102.5t27.5 -69.5t61 -39.5t107 -12.5t106.5 12.5t60 39.5t26.5 69.5t6 102.5v371zM219 723v73h70v-73h-70zM397 723v73h70v-73h-70z
M301 857l-44 53l-44 54h72l59 -84l59 84h69l-91 -107h-80z" />
    <glyph glyph-name="uni01DA" unicode="&#x1da;" horiz-adv-x="668" 
d="M543 642h71v-372q0 -75 -10 -128.5t-39 -87t-82 -49.5t-139 -16t-139.5 16t-83 49.5t-40 87t-10.5 128.5v372h71v-371q0 -60 6.5 -102.5t27.5 -69.5t61 -39.5t107 -12.5t106.5 12.5t60 39.5t26.5 69.5t6 102.5v371zM210 723v73h70v-73h-70zM388 723v73h70v-73h-70z
M292 857l-44 53l-44 54h72l59 -84l59 84h69l-91 -107h-80z" />
    <glyph glyph-name="uni01DB" unicode="&#x1db;" horiz-adv-x="686" 
d="M543 642h71v-372q0 -75 -10 -128.5t-39 -87t-82 -49.5t-139 -16t-139.5 16t-83 49.5t-40 87t-10.5 128.5v372h71v-371q0 -60 6.5 -102.5t27.5 -69.5t61 -39.5t107 -12.5t106.5 12.5t60 39.5t26.5 69.5t6 102.5v371zM219 723v73h70v-73h-70zM397 723v73h70v-73h-70z
M367 857l-94 107h86l53 -107h-45z" />
    <glyph glyph-name="uni01DC" unicode="&#x1dc;" horiz-adv-x="668" 
d="M543 642h71v-372q0 -75 -10 -128.5t-39 -87t-82 -49.5t-139 -16t-139.5 16t-83 49.5t-40 87t-10.5 128.5v372h71v-371q0 -60 6.5 -102.5t27.5 -69.5t61 -39.5t107 -12.5t106.5 12.5t60 39.5t26.5 69.5t6 102.5v371zM210 723v73h70v-73h-70zM388 723v73h70v-73h-70z
M358 857l-94 107h86l53 -107h-45z" />
    <glyph glyph-name="uni01DD" unicode="&#x1dd;" horiz-adv-x="704" 
d="M58 339h529q-2 82 -16 133t-44 79t-77.5 37.5t-116.5 9.5q-30 0 -61.5 -5.5t-60 -13t-52 -15.5l-37.5 -13l-33 53q21 10 51 19t64.5 16t71.5 11.5t72 4.5q75 0 133 -12t98 -47.5t61 -99.5t21 -167q0 -108 -22.5 -175t-63 -104t-96 -50t-122.5 -13q-72 0 -127.5 14
t-93.5 50.5t-58 99.5t-20 162v26zM134 281q3 -77 18 -124t43 -72.5t68.5 -33.5t93.5 -8q46 0 86 5.5t70.5 28.5t49.5 71t23 133h-452z" />
    <glyph glyph-name="uni01DE" unicode="&#x1de;" horiz-adv-x="657" 
d="M554 0l-81 201h-291l-80 -201h-74l257 642h86l257 -642h-74zM369 461l-38 121h-6l-38 -121l-84 -209h250zM204 723v73h70v-73h-70zM382 723v73h70v-73h-70zM191 845v38h275v-38h-275z" />
    <glyph glyph-name="uni01DF" unicode="&#x1df;" horiz-adv-x="657" 
d="M554 0l-81 201h-291l-80 -201h-74l257 642h86l257 -642h-74zM369 461l-38 121h-6l-38 -121l-84 -209h250zM204 723v73h70v-73h-70zM382 723v73h70v-73h-70zM191 845v38h275v-38h-275z" />
    <glyph glyph-name="uni01E0" unicode="&#x1e0;" horiz-adv-x="657" 
d="M554 0l-81 201h-291l-80 -201h-74l257 642h86l257 -642h-74zM369 461l-38 121h-6l-38 -121l-84 -209h250zM367 737h-78v73h78v-73zM191 845v38h275v-38h-275z" />
    <glyph glyph-name="uni01E1" unicode="&#x1e1;" horiz-adv-x="703" 
d="M648 -1q-50 7 -74 29t-32 71q-35 -53 -93.5 -81t-142.5 -28q-57 0 -104.5 9t-81.5 31.5t-53 61t-19 96.5t19 96.5t53 61t81.5 31.5t104.5 9h218q-3 74 -15 116.5t-36.5 63.5t-63 26.5t-95.5 5.5q-30 0 -59 -4t-54.5 -10t-46.5 -12.5t-35 -11.5l-33 53q42 20 101 31
t129 11q81 0 135.5 -12t87 -47t46.5 -100t14 -171v-16v-112q0 -38 3.5 -63.5t10.5 -42t18.5 -25.5t27.5 -13zM525 328h-219q-42 0 -77 -4.5t-60 -19t-39 -42t-14 -74.5t14 -74.5t39.5 -42t60.5 -19t77 -4.5q71 0 114 18t66 53.5t30.5 87t7.5 119.5v2zM390 737h-78v73h78v-73
zM214 845v38h275v-38h-275z" />
    <glyph glyph-name="uni01E2" unicode="&#x1e2;" horiz-adv-x="819" 
d="M332 0v201h-150l-80 -201h-74l257 642h527l-10 -57h-398v-224h323v-57h-323v-246h408l-10 -58h-470zM332 579l-1 3h-6l-38 -121l-84 -209h129v327zM272 745v38h275v-38h-275z" />
    <glyph glyph-name="uni01E3" unicode="&#x1e3;" horiz-adv-x="1193" 
d="M1097 38q-21 -10 -51 -19t-64.5 -16t-71.5 -11.5t-72 -4.5q-53 0 -97 5.5t-80 20.5t-63 41.5t-44 67.5q-5 -8 -12 -23q-35 -53 -93.5 -81t-142.5 -28q-57 0 -104.5 9t-81.5 31.5t-53 61t-19 96.5t19 96.5t53 61t81.5 31.5t104.5 9h218q-3 74 -15 116.5t-36.5 63.5
t-63 26.5t-95.5 5.5q-30 0 -59 -4t-54.5 -10t-46.5 -12.5t-35 -11.5l-33 53q42 20 101 31t129 11q53 0 94 -4.5t72.5 -17t53 -34.5t35.5 -57q19 34 46 56t60 34.5t71 17.5t81 5q72 0 127.5 -14t93.5 -50.5t58 -99.5t20 -162v-26h-529q1 -83 15 -133.5t44 -78.5t78 -37.5
t117 -9.5q30 0 61.5 5.5t60 13t52 15.5l37.5 13zM525 328h-219q-42 0 -77 -4.5t-60 -19t-39 -42t-14 -74.5t14 -74.5t39.5 -42t60.5 -19t77 -4.5q67 0 109.5 16.5t66 48t32.5 78.5t10 108v29zM1052 361q-3 77 -18.5 124t-43 72.5t-68 33.5t-93.5 8q-46 0 -86 -5.5
t-70.5 -28.5t-49.5 -71t-23 -133h452zM459 745v38h275v-38h-275z" />
    <glyph glyph-name="uni01E4" unicode="&#x1e4;" horiz-adv-x="711" 
d="M628 186v-141q-20 -12 -49.5 -22t-64 -17.5t-72 -11.5t-73.5 -4q-76 0 -134.5 12t-98 48t-60 102t-20.5 173q0 106 23 171t65 100t101.5 47t133.5 12q70 0 129 -11t101 -31l-33 -53q-14 5 -35 11.5t-46.5 12.5t-54.5 10t-59 4q-54 0 -100 -7t-79.5 -34t-52.5 -81.5
t-19 -149.5q0 -90 13 -145t43 -84.5t78.5 -39.5t119.5 -10q23 0 48 3.5t48.5 8.5t44.5 12t35 14v101h-105v38h105v80h-205l10 57h263v-137h102v-38h-102z" />
    <glyph glyph-name="uni01E5" unicode="&#x1e5;" horiz-adv-x="718" 
d="M628 186v-141q-20 -12 -49.5 -22t-64 -17.5t-72 -11.5t-73.5 -4q-76 0 -134.5 12t-98 48t-60 102t-20.5 173q0 106 23 171t65 100t101.5 47t133.5 12q70 0 129 -11t101 -31l-33 -53q-14 5 -35 11.5t-46.5 12.5t-54.5 10t-59 4q-54 0 -100 -7t-79.5 -34t-52.5 -81.5
t-19 -149.5q0 -90 13 -145t43 -84.5t78.5 -39.5t119.5 -10q23 0 48 3.5t48.5 8.5t44.5 12t35 14v101h-105v38h105v80h-205l10 57h263v-137h102v-38h-102z" />
    <glyph glyph-name="Gcaron" unicode="&#x1e6;" horiz-adv-x="672" 
d="M560 304h-205l10 57h263v-316q-20 -12 -49.5 -22t-64 -17.5t-72 -11.5t-73.5 -4q-76 0 -134.5 12t-98 48t-60 102t-20.5 173q0 106 23 171t65 100t101.5 47t133.5 12q70 0 129 -11t101 -31l-33 -53q-14 5 -35 11.5t-46.5 12.5t-54.5 10t-59 4q-54 0 -100 -7t-79.5 -34
t-52.5 -81.5t-19 -149.5q0 -90 13 -145t43 -84.5t78.5 -39.5t119.5 -10q23 0 48 3.5t48.5 8.5t44.5 12t35 14v219zM294 707l-44 53l-44 54h72l59 -84l59 84h69l-91 -107h-80z" />
    <glyph glyph-name="gcaron" unicode="&#x1e7;" horiz-adv-x="672" 
d="M560 304h-205l10 57h263v-316q-20 -12 -49.5 -22t-64 -17.5t-72 -11.5t-73.5 -4q-76 0 -134.5 12t-98 48t-60 102t-20.5 173q0 106 23 171t65 100t101.5 47t133.5 12q70 0 129 -11t101 -31l-33 -53q-14 5 -35 11.5t-46.5 12.5t-54.5 10t-59 4q-54 0 -100 -7t-79.5 -34
t-52.5 -81.5t-19 -149.5q0 -90 13 -145t43 -84.5t78.5 -39.5t119.5 -10q23 0 48 3.5t48.5 8.5t44.5 12t35 14v219zM294 707l-44 53l-44 54h72l59 -84l59 84h69l-91 -107h-80z" />
    <glyph glyph-name="uni01E8" unicode="&#x1e8;" horiz-adv-x="675" 
d="M526 0l-215 292h-161v-292h-71v642h71v-293h161l215 293h94l-122.5 -160.5l-123.5 -160.5l123.5 -161l122.5 -160h-94zM296 707l-44 53l-44 54h72l59 -84l59 84h69l-91 -107h-80z" />
    <glyph glyph-name="uni01E9" unicode="&#x1e9;" horiz-adv-x="680" 
d="M627 0q-25 -4 -46.5 -2.5t-42.5 12.5t-43.5 33t-50.5 60l-142 189h-158v-292h-71v642h71v-293h158l223 293h89l-122.5 -160.5l-123.5 -160.5l142 -186q23 -30 40 -47t31.5 -25.5t28 -10t28.5 0.5zM298 707l-44 53l-44 54h72l59 -84l59 84h69l-91 -107h-80z" />
    <glyph glyph-name="uni01EA" unicode="&#x1ea;" 
d="M460 -148q-26 -3 -59 -3q-63 0 -95 23.5t-32 52.5q0 21 21 37.5t65 21.5l-2 6q-63 1 -118 14t-95.5 49t-64 100.5t-23.5 168.5q0 108 25.5 173.5t69 101t102 47t125.5 11.5t125.5 -11.5t102 -47t69 -101t25.5 -173.5q0 -104 -23.5 -168.5t-64.5 -100.5t-96.5 -49.5
t-118.5 -14.5l6 -18q-24 -1 -38 -4.5t-21 -9t-9 -12t-2 -14.5q0 -17 17 -32q23 -14 69 -14h14t17 1h4zM379 45q32 0 63 1.5t58.5 9t51 24.5t40 47.5t26 78t9.5 116.5q0 103 -21 159.5t-55.5 82.5t-79 30.5t-92.5 4.5q-49 0 -94 -4.5t-79 -30.5t-54.5 -82.5t-20.5 -159.5
q0 -69 9.5 -116.5t26 -78t39.5 -47.5t50.5 -24.5t58.5 -9t64 -1.5z" />
    <glyph glyph-name="uni01EB" unicode="&#x1eb;" 
d="M460 -148q-26 -3 -59 -3q-63 0 -95 23.5t-32 52.5q0 21 21 37.5t65 21.5l-2 6q-63 1 -118 14t-95.5 49t-64 100.5t-23.5 168.5q0 108 25.5 173.5t69 101t102 47t125.5 11.5t125.5 -11.5t102 -47t69 -101t25.5 -173.5q0 -104 -23.5 -168.5t-64.5 -100.5t-96.5 -49.5
t-118.5 -14.5l6 -18q-24 -1 -38 -4.5t-21 -9t-9 -12t-2 -14.5q0 -17 17 -32q23 -14 69 -14h14t17 1h4zM379 45q32 0 63 1.5t58.5 9t51 24.5t40 47.5t26 78t9.5 116.5q0 103 -21 159.5t-55.5 82.5t-79 30.5t-92.5 4.5q-49 0 -94 -4.5t-79 -30.5t-54.5 -82.5t-20.5 -159.5
q0 -69 9.5 -116.5t26 -78t39.5 -47.5t50.5 -24.5t58.5 -9t64 -1.5z" />
    <glyph glyph-name="uni01EC" unicode="&#x1ec;" 
d="M460 -148q-26 -3 -59 -3q-63 0 -95 23.5t-32 52.5q0 21 21 37.5t65 21.5l-2 6q-63 1 -118 14t-95.5 49t-64 100.5t-23.5 168.5q0 108 25.5 173.5t69 101t102 47t125.5 11.5t125.5 -11.5t102 -47t69 -101t25.5 -173.5q0 -104 -23.5 -168.5t-64.5 -100.5t-96.5 -49.5
t-118.5 -14.5l6 -18q-24 -1 -38 -4.5t-21 -9t-9 -12t-2 -14.5q0 -17 17 -32q23 -14 69 -14h14t17 1h4zM379 45q32 0 63 1.5t58.5 9t51 24.5t40 47.5t26 78t9.5 116.5q0 103 -21 159.5t-55.5 82.5t-79 30.5t-92.5 4.5q-49 0 -94 -4.5t-79 -30.5t-54.5 -82.5t-20.5 -159.5
q0 -69 9.5 -116.5t26 -78t39.5 -47.5t50.5 -24.5t58.5 -9t64 -1.5zM241 745v38h275v-38h-275z" />
    <glyph glyph-name="uni01ED" unicode="&#x1ed;" 
d="M460 -148q-26 -3 -59 -3q-63 0 -95 23.5t-32 52.5q0 21 21 37.5t65 21.5l-2 6q-63 1 -118 14t-95.5 49t-64 100.5t-23.5 168.5q0 108 25.5 173.5t69 101t102 47t125.5 11.5t125.5 -11.5t102 -47t69 -101t25.5 -173.5q0 -104 -23.5 -168.5t-64.5 -100.5t-96.5 -49.5
t-118.5 -14.5l6 -18q-24 -1 -38 -4.5t-21 -9t-9 -12t-2 -14.5q0 -17 17 -32q23 -14 69 -14h14t17 1h4zM379 45q32 0 63 1.5t58.5 9t51 24.5t40 47.5t26 78t9.5 116.5q0 103 -21 159.5t-55.5 82.5t-79 30.5t-92.5 4.5q-49 0 -94 -4.5t-79 -30.5t-54.5 -82.5t-20.5 -159.5
q0 -69 9.5 -116.5t26 -78t39.5 -47.5t50.5 -24.5t58.5 -9t64 -1.5zM241 745v38h275v-38h-275z" />
    <glyph glyph-name="uni01F0" unicode="&#x1f0;" horiz-adv-x="322" 
d="M6 48q47 0 80 2.5t53.5 17t30 44.5t9.5 85v445h71v-441q0 -66 -12.5 -106.5t-41.5 -62.5t-77 -29.5t-119 -7.5zM173 707l-44 53l-44 54h72l59 -84l59 84h69l-91 -107h-80z" />
    <glyph glyph-name="uni01F4" unicode="&#x1f4;" horiz-adv-x="672" 
d="M560 304h-205l10 57h263v-316q-20 -12 -49.5 -22t-64 -17.5t-72 -11.5t-73.5 -4q-76 0 -134.5 12t-98 48t-60 102t-20.5 173q0 106 23 171t65 100t101.5 47t133.5 12q70 0 129 -11t101 -31l-33 -53q-14 5 -35 11.5t-46.5 12.5t-54.5 10t-59 4q-54 0 -100 -7t-79.5 -34
t-52.5 -81.5t-19 -149.5q0 -90 13 -145t43 -84.5t78.5 -39.5t119.5 -10q23 0 48 3.5t48.5 8.5t44.5 12t35 14v219zM267 707l53 107h85q-26 -29 -45.5 -53.5l-42.5 -53.5h-50z" />
    <glyph glyph-name="uni01F5" unicode="&#x1f5;" horiz-adv-x="672" 
d="M560 304h-205l10 57h263v-316q-20 -12 -49.5 -22t-64 -17.5t-72 -11.5t-73.5 -4q-76 0 -134.5 12t-98 48t-60 102t-20.5 173q0 106 23 171t65 100t101.5 47t133.5 12q70 0 129 -11t101 -31l-33 -53q-14 5 -35 11.5t-46.5 12.5t-54.5 10t-59 4q-54 0 -100 -7t-79.5 -34
t-52.5 -81.5t-19 -149.5q0 -90 13 -145t43 -84.5t78.5 -39.5t119.5 -10q23 0 48 3.5t48.5 8.5t44.5 12t35 14v219zM267 707l53 107h85q-26 -29 -45.5 -53.5l-42.5 -53.5h-50z" />
    <glyph glyph-name="uni01F8" unicode="&#x1f8;" horiz-adv-x="685" 
d="M526 0l-379 544v-544h-68v642h80l379 -542v542h67v-642h-79zM367 707l-94 107h86l53 -107h-45z" />
    <glyph glyph-name="uni01F9" unicode="&#x1f9;" horiz-adv-x="685" 
d="M526 0l-379 544v-544h-68v642h80l379 -542v542h67v-642h-79zM367 707l-94 107h86l53 -107h-45z" />
    <glyph glyph-name="Aringacute" unicode="&#x1fa;" horiz-adv-x="657" 
d="M554 0l-81 201h-291l-80 -201h-74l257 642h86l257 -642h-74zM369 461l-38 121h-6l-38 -121l-84 -209h250zM328 725q13 0 22.5 5t9.5 32q0 26 -10 30.5t-22 4.5q-13 0 -22.5 -4.5t-9.5 -30.5q0 -27 9.5 -32t22.5 -5zM328 695q-14 0 -25.5 2.5t-20 9.5t-13.5 20t-5 35
q0 21 5 34t13.5 20t20 9.5t25.5 2.5q13 0 25 -2.5t20.5 -9.5t13.5 -20t5 -34q0 -22 -5 -35t-13.5 -20t-20.5 -9.5t-25 -2.5zM259 857l53 107h85q-26 -29 -45.5 -53.5l-42.5 -53.5h-50z" />
    <glyph glyph-name="aringacute" unicode="&#x1fb;" horiz-adv-x="703" 
d="M648 -1q-50 7 -74 29t-32 71q-35 -53 -93.5 -81t-142.5 -28q-57 0 -104.5 9t-81.5 31.5t-53 61t-19 96.5t19 96.5t53 61t81.5 31.5t104.5 9h218q-3 74 -15 116.5t-36.5 63.5t-63 26.5t-95.5 5.5q-30 0 -59 -4t-54.5 -10t-46.5 -12.5t-35 -11.5l-33 53q42 20 101 31
t129 11q81 0 135.5 -12t87 -47t46.5 -100t14 -171v-16v-112q0 -38 3.5 -63.5t10.5 -42t18.5 -25.5t27.5 -13zM525 328h-219q-42 0 -77 -4.5t-60 -19t-39 -42t-14 -74.5t14 -74.5t39.5 -42t60.5 -19t77 -4.5q71 0 114 18t66 53.5t30.5 87t7.5 119.5v2zM351 725q13 0 22.5 5
t9.5 32q0 26 -10 30.5t-22 4.5q-13 0 -22.5 -4.5t-9.5 -30.5q0 -27 9.5 -32t22.5 -5zM351 695q-14 0 -25.5 2.5t-20 9.5t-13.5 20t-5 35q0 21 5 34t13.5 20t20 9.5t25.5 2.5q13 0 25 -2.5t20.5 -9.5t13.5 -20t5 -34q0 -22 -5 -35t-13.5 -20t-20.5 -9.5t-25 -2.5zM282 857
l53 107h85q-26 -29 -45.5 -53.5l-42.5 -53.5h-50z" />
    <glyph glyph-name="AEacute" unicode="&#x1fc;" horiz-adv-x="819" 
d="M332 0v201h-150l-80 -201h-74l257 642h527l-10 -57h-398v-224h323v-57h-323v-246h408l-10 -58h-470zM332 579l-1 3h-6l-38 -121l-84 -209h129v327zM340 707l53 107h85q-26 -29 -45.5 -53.5l-42.5 -53.5h-50z" />
    <glyph glyph-name="aeacute" unicode="&#x1fd;" horiz-adv-x="1193" 
d="M1097 38q-21 -10 -51 -19t-64.5 -16t-71.5 -11.5t-72 -4.5q-53 0 -97 5.5t-80 20.5t-63 41.5t-44 67.5q-5 -8 -12 -23q-35 -53 -93.5 -81t-142.5 -28q-57 0 -104.5 9t-81.5 31.5t-53 61t-19 96.5t19 96.5t53 61t81.5 31.5t104.5 9h218q-3 74 -15 116.5t-36.5 63.5
t-63 26.5t-95.5 5.5q-30 0 -59 -4t-54.5 -10t-46.5 -12.5t-35 -11.5l-33 53q42 20 101 31t129 11q53 0 94 -4.5t72.5 -17t53 -34.5t35.5 -57q19 34 46 56t60 34.5t71 17.5t81 5q72 0 127.5 -14t93.5 -50.5t58 -99.5t20 -162v-26h-529q1 -83 15 -133.5t44 -78.5t78 -37.5
t117 -9.5q30 0 61.5 5.5t60 13t52 15.5l37.5 13zM525 328h-219q-42 0 -77 -4.5t-60 -19t-39 -42t-14 -74.5t14 -74.5t39.5 -42t60.5 -19t77 -4.5q67 0 109.5 16.5t66 48t32.5 78.5t10 108v29zM1052 361q-3 77 -18.5 124t-43 72.5t-68 33.5t-93.5 8q-46 0 -86 -5.5
t-70.5 -28.5t-49.5 -71t-23 -133h452zM527 707l53 107h85q-26 -29 -45.5 -53.5l-42.5 -53.5h-50z" />
    <glyph glyph-name="Oslashacute" unicode="&#x1fe;" 
d="M655 540q22 -38 34 -91t12 -127q0 -108 -25.5 -173.5t-69 -101t-102 -47t-125.5 -11.5q-69 0 -129.5 12.5t-104.5 51.5l-55 -53l-64 37l75 71q-21 37 -32.5 89.5t-11.5 124.5q0 108 25.5 173.5t69 101t102 47t125.5 11.5q69 0 128 -12t104 -50l51 49l62 -36zM189 95
q17 -19 38.5 -29t46 -14.5t51 -5.5t54.5 -1q32 0 63 1.5t58.5 9t51 24.5t40 47.5t26 78t9.5 116.5q0 56 -6.5 97t-17.5 71zM566 550q-18 18 -39.5 28t-45.5 14.5t-49.5 5.5t-52.5 1q-49 0 -94 -4.5t-79 -30.5t-54.5 -82.5t-20.5 -159.5q0 -54 5.5 -94.5t16.5 -70.5zM310 707
l53 107h85q-26 -29 -45.5 -53.5l-42.5 -53.5h-50z" />
    <glyph glyph-name="oslashacute" unicode="&#x1ff;" 
d="M655 540q22 -38 34 -91t12 -127q0 -108 -25.5 -173.5t-69 -101t-102 -47t-125.5 -11.5q-69 0 -129.5 12.5t-104.5 51.5l-55 -53l-64 37l75 71q-21 37 -32.5 89.5t-11.5 124.5q0 108 25.5 173.5t69 101t102 47t125.5 11.5q69 0 128 -12t104 -50l51 49l62 -36zM189 95
q17 -19 38.5 -29t46 -14.5t51 -5.5t54.5 -1q32 0 63 1.5t58.5 9t51 24.5t40 47.5t26 78t9.5 116.5q0 56 -6.5 97t-17.5 71zM566 550q-18 18 -39.5 28t-45.5 14.5t-49.5 5.5t-52.5 1q-49 0 -94 -4.5t-79 -30.5t-54.5 -82.5t-20.5 -159.5q0 -54 5.5 -94.5t16.5 -70.5zM310 707
l53 107h85q-26 -29 -45.5 -53.5l-42.5 -53.5h-50z" />
    <glyph glyph-name="uni0200" unicode="&#x200;" horiz-adv-x="657" 
d="M554 0l-81 201h-291l-80 -201h-74l257 642h86l257 -642h-74zM369 461l-38 121h-6l-38 -121l-84 -209h250zM434 707l-42.5 53.5t-45.5 53.5h85l53 -107h-50zM260 707l-42.5 53.5t-45.5 53.5h85l53 -107h-50z" />
    <glyph glyph-name="uni0201" unicode="&#x201;" horiz-adv-x="703" 
d="M648 -1q-50 7 -74 29t-32 71q-35 -53 -93.5 -81t-142.5 -28q-57 0 -104.5 9t-81.5 31.5t-53 61t-19 96.5t19 96.5t53 61t81.5 31.5t104.5 9h218q-3 74 -15 116.5t-36.5 63.5t-63 26.5t-95.5 5.5q-30 0 -59 -4t-54.5 -10t-46.5 -12.5t-35 -11.5l-33 53q42 20 101 31
t129 11q81 0 135.5 -12t87 -47t46.5 -100t14 -171v-16v-112q0 -38 3.5 -63.5t10.5 -42t18.5 -25.5t27.5 -13zM525 328h-219q-42 0 -77 -4.5t-60 -19t-39 -42t-14 -74.5t14 -74.5t39.5 -42t60.5 -19t77 -4.5q71 0 114 18t66 53.5t30.5 87t7.5 119.5v2zM457 707l-42.5 53.5
t-45.5 53.5h85l53 -107h-50zM283 707l-42.5 53.5t-45.5 53.5h85l53 -107h-50z" />
    <glyph glyph-name="uni0202" unicode="&#x202;" horiz-adv-x="657" 
d="M554 0l-81 201h-291l-80 -201h-74l257 642h86l257 -642h-74zM369 461l-38 121h-6l-38 -121l-84 -209h250zM424 707q-9 35 -32 52t-67 17q-75 0 -92 -69h-43q9 57 44 84.5t94 27.5q57 0 92.5 -29.5t45.5 -82.5h-42z" />
    <glyph glyph-name="uni0203" unicode="&#x203;" horiz-adv-x="703" 
d="M648 -1q-50 7 -74 29t-32 71q-35 -53 -93.5 -81t-142.5 -28q-57 0 -104.5 9t-81.5 31.5t-53 61t-19 96.5t19 96.5t53 61t81.5 31.5t104.5 9h218q-3 74 -15 116.5t-36.5 63.5t-63 26.5t-95.5 5.5q-30 0 -59 -4t-54.5 -10t-46.5 -12.5t-35 -11.5l-33 53q42 20 101 31
t129 11q81 0 135.5 -12t87 -47t46.5 -100t14 -171v-16v-112q0 -38 3.5 -63.5t10.5 -42t18.5 -25.5t27.5 -13zM525 328h-219q-42 0 -77 -4.5t-60 -19t-39 -42t-14 -74.5t14 -74.5t39.5 -42t60.5 -19t77 -4.5q71 0 114 18t66 53.5t30.5 87t7.5 119.5v2zM447 707q-9 35 -32 52
t-67 17q-75 0 -92 -69h-43q9 57 44 84.5t94 27.5q57 0 92.5 -29.5t45.5 -82.5h-42z" />
    <glyph glyph-name="uni0204" unicode="&#x204;" horiz-adv-x="566" 
d="M79 0v642h480l-10 -57h-398v-224h323v-57h-323v-246h408l-10 -58h-470zM389 707l-42.5 53.5t-45.5 53.5h85l53 -107h-50zM215 707l-42.5 53.5t-45.5 53.5h85l53 -107h-50z" />
    <glyph glyph-name="uni0205" unicode="&#x205;" horiz-adv-x="704" 
d="M630 38q-21 -10 -51 -19t-64.5 -16t-71.5 -11.5t-72 -4.5q-75 0 -133 12t-98 47.5t-61 99t-21 167.5q0 108 22.5 175t63 104t96 50t122.5 13q72 0 127.5 -14t93.5 -50.5t58 -99.5t20 -162v-26h-529q1 -83 15 -133.5t44 -78.5t78 -37.5t117 -9.5q30 0 61.5 5.5t60 13
t52 15.5l37.5 13zM585 361q-3 77 -18.5 124t-43 72.5t-68 33.5t-93.5 8q-46 0 -86 -5.5t-70.5 -28.5t-49.5 -71t-23 -133h452zM458 707l-42.5 53.5t-45.5 53.5h85l53 -107h-50zM284 707l-42.5 53.5t-45.5 53.5h85l53 -107h-50z" />
    <glyph glyph-name="uni0206" unicode="&#x206;" horiz-adv-x="566" 
d="M79 0v642h480l-10 -57h-398v-224h323v-57h-323v-246h408l-10 -58h-470zM379 707q-9 35 -32 52t-67 17q-75 0 -92 -69h-43q9 57 44 84.5t94 27.5q57 0 92.5 -29.5t45.5 -82.5h-42z" />
    <glyph glyph-name="uni0207" unicode="&#x207;" horiz-adv-x="704" 
d="M630 38q-21 -10 -51 -19t-64.5 -16t-71.5 -11.5t-72 -4.5q-75 0 -133 12t-98 47.5t-61 99t-21 167.5q0 108 22.5 175t63 104t96 50t122.5 13q72 0 127.5 -14t93.5 -50.5t58 -99.5t20 -162v-26h-529q1 -83 15 -133.5t44 -78.5t78 -37.5t117 -9.5q30 0 61.5 5.5t60 13
t52 15.5l37.5 13zM585 361q-3 77 -18.5 124t-43 72.5t-68 33.5t-93.5 8q-46 0 -86 -5.5t-70.5 -28.5t-49.5 -71t-23 -133h452zM448 707q-9 35 -32 52t-67 17q-75 0 -92 -69h-43q9 57 44 84.5t94 27.5q57 0 92.5 -29.5t45.5 -82.5h-42z" />
    <glyph glyph-name="uni0208" unicode="&#x208;" horiz-adv-x="241" 
d="M79 0v642h72v-642h-72zM228 707l-42.5 53.5t-45.5 53.5h85l53 -107h-50zM54 707l-42.5 53.5t-45.5 53.5h85l53 -107h-50z" />
    <glyph glyph-name="uni0209" unicode="&#x209;" horiz-adv-x="241" 
d="M79 0v642h72v-642h-72zM228 707l-42.5 53.5t-45.5 53.5h85l53 -107h-50zM54 707l-42.5 53.5t-45.5 53.5h85l53 -107h-50z" />
    <glyph glyph-name="uni020A" unicode="&#x20a;" horiz-adv-x="241" 
d="M79 0v642h72v-642h-72zM218 707q-9 35 -32 52t-67 17q-75 0 -92 -69h-43q9 57 44 84.5t94 27.5q57 0 92.5 -29.5t45.5 -82.5h-42z" />
    <glyph glyph-name="uni020B" unicode="&#x20b;" horiz-adv-x="241" 
d="M79 0v642h72v-642h-72zM218 707q-9 35 -32 52t-67 17q-75 0 -92 -69h-43q9 57 44 84.5t94 27.5q57 0 92.5 -29.5t45.5 -82.5h-42z" />
    <glyph glyph-name="uni020C" unicode="&#x20c;" 
d="M379 599q-49 0 -94 -4.5t-79 -30.5t-54.5 -82.5t-20.5 -159.5q0 -69 9.5 -116.5t26 -78t39.5 -47.5t50.5 -24.5t58.5 -9t64 -1.5q32 0 63 1.5t58.5 9t51 24.5t40 47.5t26 78t9.5 116.5q0 103 -21 159.5t-55.5 82.5t-79 30.5t-92.5 4.5zM57 322q0 108 25.5 173.5t69 101
t102 47t125.5 11.5t125.5 -11.5t102 -47t69 -101t25.5 -173.5t-25.5 -173.5t-69 -101t-102 -47t-125.5 -11.5t-125.5 11.5t-102 47t-69 101t-25.5 173.5zM485 707l-42.5 53.5t-45.5 53.5h85l53 -107h-50zM311 707l-42.5 53.5t-45.5 53.5h85l53 -107h-50z" />
    <glyph glyph-name="uni020D" unicode="&#x20d;" 
d="M379 599q-49 0 -94 -4.5t-79 -30.5t-54.5 -82.5t-20.5 -159.5q0 -69 9.5 -116.5t26 -78t39.5 -47.5t50.5 -24.5t58.5 -9t64 -1.5q32 0 63 1.5t58.5 9t51 24.5t40 47.5t26 78t9.5 116.5q0 103 -21 159.5t-55.5 82.5t-79 30.5t-92.5 4.5zM57 322q0 108 25.5 173.5t69 101
t102 47t125.5 11.5t125.5 -11.5t102 -47t69 -101t25.5 -173.5t-25.5 -173.5t-69 -101t-102 -47t-125.5 -11.5t-125.5 11.5t-102 47t-69 101t-25.5 173.5zM485 707l-42.5 53.5t-45.5 53.5h85l53 -107h-50zM311 707l-42.5 53.5t-45.5 53.5h85l53 -107h-50z" />
    <glyph glyph-name="uni020E" unicode="&#x20e;" 
d="M379 599q-49 0 -94 -4.5t-79 -30.5t-54.5 -82.5t-20.5 -159.5q0 -69 9.5 -116.5t26 -78t39.5 -47.5t50.5 -24.5t58.5 -9t64 -1.5q32 0 63 1.5t58.5 9t51 24.5t40 47.5t26 78t9.5 116.5q0 103 -21 159.5t-55.5 82.5t-79 30.5t-92.5 4.5zM57 322q0 108 25.5 173.5t69 101
t102 47t125.5 11.5t125.5 -11.5t102 -47t69 -101t25.5 -173.5t-25.5 -173.5t-69 -101t-102 -47t-125.5 -11.5t-125.5 11.5t-102 47t-69 101t-25.5 173.5zM475 707q-9 35 -32 52t-67 17q-75 0 -92 -69h-43q9 57 44 84.5t94 27.5q57 0 92.5 -29.5t45.5 -82.5h-42z" />
    <glyph glyph-name="uni020F" unicode="&#x20f;" 
d="M379 599q-49 0 -94 -4.5t-79 -30.5t-54.5 -82.5t-20.5 -159.5q0 -69 9.5 -116.5t26 -78t39.5 -47.5t50.5 -24.5t58.5 -9t64 -1.5q32 0 63 1.5t58.5 9t51 24.5t40 47.5t26 78t9.5 116.5q0 103 -21 159.5t-55.5 82.5t-79 30.5t-92.5 4.5zM57 322q0 108 25.5 173.5t69 101
t102 47t125.5 11.5t125.5 -11.5t102 -47t69 -101t25.5 -173.5t-25.5 -173.5t-69 -101t-102 -47t-125.5 -11.5t-125.5 11.5t-102 47t-69 101t-25.5 173.5zM475 707q-9 35 -32 52t-67 17q-75 0 -92 -69h-43q9 57 44 84.5t94 27.5q57 0 92.5 -29.5t45.5 -82.5h-42z" />
    <glyph glyph-name="uni0210" unicode="&#x210;" horiz-adv-x="669" 
d="M527 0l-170 231h-206v-231h-72v642h260q71 0 119 -7.5t77 -29.5t41.5 -62.5t12.5 -106.5q0 -53 -7.5 -89t-25 -59t-46 -35.5t-70.5 -17.5l178 -235h-91zM341 288q47 0 80 3.5t53.5 18t30 44t9.5 82.5q0 55 -9.5 85t-30 44t-53.5 17t-80 3h-190v-297h190zM440 707
l-42.5 53.5t-45.5 53.5h85l53 -107h-50zM266 707l-42.5 53.5t-45.5 53.5h85l53 -107h-50z" />
    <glyph glyph-name="uni0211" unicode="&#x211;" horiz-adv-x="681" 
d="M628 0q-25 -4 -46.5 -2.5t-42.5 12.5t-43.5 33t-50.5 60l-94 128h-18h-187v-231h-72v642h259q71 0 119 -7.5t77 -29.5t41.5 -62.5t12.5 -106.5q0 -53 -7.5 -89t-25 -59t-46 -35.5t-70.5 -17.5l77 -100q23 -30 40 -47t31.5 -25.5t28 -10t28.5 0.5zM335 288q47 0 80 3.5
t53.5 18t30 44t9.5 82.5q0 55 -9.5 85t-30 44t-53.5 17t-80 3h-189v-297h189zM446 707l-42.5 53.5t-45.5 53.5h85l53 -107h-50zM272 707l-42.5 53.5t-45.5 53.5h85l53 -107h-50z" />
    <glyph glyph-name="uni0212" unicode="&#x212;" horiz-adv-x="669" 
d="M527 0l-170 231h-206v-231h-72v642h260q71 0 119 -7.5t77 -29.5t41.5 -62.5t12.5 -106.5q0 -53 -7.5 -89t-25 -59t-46 -35.5t-70.5 -17.5l178 -235h-91zM341 288q47 0 80 3.5t53.5 18t30 44t9.5 82.5q0 55 -9.5 85t-30 44t-53.5 17t-80 3h-190v-297h190zM430 707
q-9 35 -32 52t-67 17q-75 0 -92 -69h-43q9 57 44 84.5t94 27.5q57 0 92.5 -29.5t45.5 -82.5h-42z" />
    <glyph glyph-name="uni0213" unicode="&#x213;" horiz-adv-x="681" 
d="M628 0q-25 -4 -46.5 -2.5t-42.5 12.5t-43.5 33t-50.5 60l-94 128h-18h-187v-231h-72v642h259q71 0 119 -7.5t77 -29.5t41.5 -62.5t12.5 -106.5q0 -53 -7.5 -89t-25 -59t-46 -35.5t-70.5 -17.5l77 -100q23 -30 40 -47t31.5 -25.5t28 -10t28.5 0.5zM335 288q47 0 80 3.5
t53.5 18t30 44t9.5 82.5q0 55 -9.5 85t-30 44t-53.5 17t-80 3h-189v-297h189zM436 707q-9 35 -32 52t-67 17q-75 0 -92 -69h-43q9 57 44 84.5t94 27.5q57 0 92.5 -29.5t45.5 -82.5h-42z" />
    <glyph glyph-name="uni0214" unicode="&#x214;" horiz-adv-x="686" 
d="M543 642h71v-372q0 -75 -10 -128.5t-39 -87t-82 -49.5t-139 -16t-139.5 16t-83 49.5t-40 87t-10.5 128.5v372h71v-371q0 -60 6.5 -102.5t27.5 -69.5t61 -39.5t107 -12.5t106.5 12.5t60 39.5t26.5 69.5t6 102.5v371zM449 707l-42.5 53.5t-45.5 53.5h85l53 -107h-50z
M275 707l-42.5 53.5t-45.5 53.5h85l53 -107h-50z" />
    <glyph glyph-name="uni0215" unicode="&#x215;" horiz-adv-x="668" 
d="M543 642h71v-372q0 -75 -10 -128.5t-39 -87t-82 -49.5t-139 -16t-139.5 16t-83 49.5t-40 87t-10.5 128.5v372h71v-371q0 -60 6.5 -102.5t27.5 -69.5t61 -39.5t107 -12.5t106.5 12.5t60 39.5t26.5 69.5t6 102.5v371zM440 707l-42.5 53.5t-45.5 53.5h85l53 -107h-50z
M266 707l-42.5 53.5t-45.5 53.5h85l53 -107h-50z" />
    <glyph glyph-name="uni0216" unicode="&#x216;" horiz-adv-x="686" 
d="M543 642h71v-372q0 -75 -10 -128.5t-39 -87t-82 -49.5t-139 -16t-139.5 16t-83 49.5t-40 87t-10.5 128.5v372h71v-371q0 -60 6.5 -102.5t27.5 -69.5t61 -39.5t107 -12.5t106.5 12.5t60 39.5t26.5 69.5t6 102.5v371zM439 707q-9 35 -32 52t-67 17q-75 0 -92 -69h-43
q9 57 44 84.5t94 27.5q57 0 92.5 -29.5t45.5 -82.5h-42z" />
    <glyph glyph-name="uni0217" unicode="&#x217;" horiz-adv-x="668" 
d="M543 642h71v-372q0 -75 -10 -128.5t-39 -87t-82 -49.5t-139 -16t-139.5 16t-83 49.5t-40 87t-10.5 128.5v372h71v-371q0 -60 6.5 -102.5t27.5 -69.5t61 -39.5t107 -12.5t106.5 12.5t60 39.5t26.5 69.5t6 102.5v371zM430 707q-9 35 -32 52t-67 17q-75 0 -92 -69h-43
q9 57 44 84.5t94 27.5q57 0 92.5 -29.5t45.5 -82.5h-42z" />
    <glyph glyph-name="Scommaaccent" unicode="&#x218;" horiz-adv-x="624" 
d="M522 562q-14 5 -37 11t-51 11.5t-59 9t-61 3.5q-89 0 -135 -25.5t-46 -93.5q0 -32 3.5 -49t16 -27.5t37.5 -17t69 -15.5q56 -12 112.5 -21.5t102.5 -28t75.5 -51.5t30.5 -91q0 -58 -19 -94.5t-53 -57.5t-81.5 -28.5t-104.5 -7.5q-35 0 -74 3.5t-76.5 10.5t-70.5 15.5
t-55 19.5l15 28t16 27q15 -6 39.5 -14t57.5 -15t73 -12t84 -5q42 0 75.5 2t57 14t36 37.5t12.5 72.5q0 30 -7 47.5t-23 28t-43 16.5t-67 14q-84 16 -143 28.5t-95.5 32t-53 52t-16.5 87.5q0 44 18.5 77t51 54.5t75 32.5t90.5 11q35 0 71.5 -2.5t70.5 -7.5t63.5 -12t50.5 -17
zM292 -257q23 12 34 37.5t12 68.5h-44v75h72v-64q0 -29 -4 -50.5t-10 -34.5q-9 -14 -20.5 -26t-29.5 -21z" />
    <glyph glyph-name="scommaaccent" unicode="&#x219;" horiz-adv-x="624" 
d="M522 562q-14 5 -37 11t-51 11.5t-59 9t-61 3.5q-89 0 -135 -25.5t-46 -93.5q0 -32 3.5 -49t16 -27.5t37.5 -17t69 -15.5q56 -12 112.5 -21.5t102.5 -28t75.5 -51.5t30.5 -91q0 -58 -19 -94.5t-53 -57.5t-81.5 -28.5t-104.5 -7.5q-35 0 -74 3.5t-76.5 10.5t-70.5 15.5
t-55 19.5l15 28t16 27q15 -6 39.5 -14t57.5 -15t73 -12t84 -5q42 0 75.5 2t57 14t36 37.5t12.5 72.5q0 30 -7 47.5t-23 28t-43 16.5t-67 14q-84 16 -143 28.5t-95.5 32t-53 52t-16.5 87.5q0 44 18.5 77t51 54.5t75 32.5t90.5 11q35 0 71.5 -2.5t70.5 -7.5t63.5 -12t50.5 -17
zM292 -257q23 12 34 37.5t12 68.5h-44v75h72v-64q0 -29 -4 -50.5t-10 -34.5q-9 -14 -20.5 -26t-29.5 -21z" />
    <glyph glyph-name="uni021A" unicode="&#x21a;" horiz-adv-x="543" 
d="M188 -116h4q8 -1 17 -1h14q46 0 69 14q17 15 17 32q0 8 -2 14.5t-9 12t-21 9t-38 4.5l9 31h-14v585h-227l10 57h529l-10 -57h-230v-585h-18l-5 -18q44 -5 65 -21.5t21 -37.5q0 -29 -32 -52.5t-95 -23.5q-34 0 -59 3z" />
    <glyph glyph-name="uni021B" unicode="&#x21b;" horiz-adv-x="543" 
d="M188 -116h4q8 -1 17 -1h14q46 0 69 14q17 15 17 32q0 8 -2 14.5t-9 12t-21 9t-38 4.5l9 31h-14v585h-227l10 57h529l-10 -57h-230v-585h-18l-5 -18q44 -5 65 -21.5t21 -37.5q0 -29 -32 -52.5t-95 -23.5q-34 0 -59 3z" />
    <glyph glyph-name="uni021E" unicode="&#x21e;" horiz-adv-x="681" 
d="M530 0v312h-380v-312h-71v642h71v-271h380v271h71v-642h-71zM299 707l-44 53l-44 54h72l59 -84l59 84h69l-91 -107h-80z" />
    <glyph glyph-name="uni021F" unicode="&#x21f;" horiz-adv-x="681" 
d="M530 0v312h-380v-312h-71v642h71v-271h380v271h71v-642h-71zM299 707l-44 53l-44 54h72l59 -84l59 84h69l-91 -107h-80z" />
    <glyph glyph-name="uni0226" unicode="&#x226;" horiz-adv-x="657" 
d="M554 0l-81 201h-291l-80 -201h-74l257 642h86l257 -642h-74zM369 461l-38 121h-6l-38 -121l-84 -209h250zM367 737h-78v73h78v-73z" />
    <glyph glyph-name="uni0227" unicode="&#x227;" horiz-adv-x="703" 
d="M648 -1q-50 7 -74 29t-32 71q-35 -53 -93.5 -81t-142.5 -28q-57 0 -104.5 9t-81.5 31.5t-53 61t-19 96.5t19 96.5t53 61t81.5 31.5t104.5 9h218q-3 74 -15 116.5t-36.5 63.5t-63 26.5t-95.5 5.5q-30 0 -59 -4t-54.5 -10t-46.5 -12.5t-35 -11.5l-33 53q42 20 101 31
t129 11q81 0 135.5 -12t87 -47t46.5 -100t14 -171v-16v-112q0 -38 3.5 -63.5t10.5 -42t18.5 -25.5t27.5 -13zM525 328h-219q-42 0 -77 -4.5t-60 -19t-39 -42t-14 -74.5t14 -74.5t39.5 -42t60.5 -19t77 -4.5q71 0 114 18t66 53.5t30.5 87t7.5 119.5v2zM390 737h-78v73h78v-73
z" />
    <glyph glyph-name="uni0228" unicode="&#x228;" horiz-adv-x="566" 
d="M329 0l-6 -20q44 -5 65 -21.5t21 -37.5q0 -29 -32 -52.5t-95 -23.5q-34 0 -59 3l5 34h4q8 -1 17 -1h14q46 0 69 14q17 15 17 32q0 8 -2 14.5t-9 12t-21 9t-38 4.5l9 33h-209v642h480l-10 -57h-398v-224h323v-57h-323v-246h408l-10 -58h-220z" />
    <glyph glyph-name="uni0229" unicode="&#x229;" horiz-adv-x="704" 
d="M630 38q-20 -10 -49.5 -19t-63 -16t-70 -11.5t-70.5 -4.5l-1 -5q44 -5 65 -21.5t21 -37.5q0 -29 -32 -52.5t-95 -23.5q-34 0 -59 3l5 34h4q8 -1 17 -1h14q46 0 69 14q17 15 17 32q0 8 -2 14.5t-9 12t-21 9t-38 4.5l5 19q-67 2 -119 16.5t-87.5 50.5t-54 98t-18.5 160
q0 108 22.5 175t63 104t96 50t122.5 13q72 0 127.5 -14t93.5 -50.5t58 -99.5t20 -162v-26h-529q1 -83 15 -133.5t44 -78.5t78 -37.5t117 -9.5q30 0 61.5 5.5t60 13t52 15.5l37.5 13zM585 361q-3 77 -18.5 124t-43 72.5t-68 33.5t-93.5 8q-46 0 -86 -5.5t-70.5 -28.5
t-49.5 -71t-23 -133h452z" />
    <glyph glyph-name="uni022A" unicode="&#x22a;" 
d="M379 599q-49 0 -94 -4.5t-79 -30.5t-54.5 -82.5t-20.5 -159.5q0 -69 9.5 -116.5t26 -78t39.5 -47.5t50.5 -24.5t58.5 -9t64 -1.5q32 0 63 1.5t58.5 9t51 24.5t40 47.5t26 78t9.5 116.5q0 103 -21 159.5t-55.5 82.5t-79 30.5t-92.5 4.5zM57 322q0 108 25.5 173.5t69 101
t102 47t125.5 11.5t125.5 -11.5t102 -47t69 -101t25.5 -173.5t-25.5 -173.5t-69 -101t-102 -47t-125.5 -11.5t-125.5 11.5t-102 47t-69 101t-25.5 173.5zM255 723v73h70v-73h-70zM433 723v73h70v-73h-70zM241 845v38h275v-38h-275z" />
    <glyph glyph-name="uni022B" unicode="&#x22b;" 
d="M379 599q-49 0 -94 -4.5t-79 -30.5t-54.5 -82.5t-20.5 -159.5q0 -69 9.5 -116.5t26 -78t39.5 -47.5t50.5 -24.5t58.5 -9t64 -1.5q32 0 63 1.5t58.5 9t51 24.5t40 47.5t26 78t9.5 116.5q0 103 -21 159.5t-55.5 82.5t-79 30.5t-92.5 4.5zM57 322q0 108 25.5 173.5t69 101
t102 47t125.5 11.5t125.5 -11.5t102 -47t69 -101t25.5 -173.5t-25.5 -173.5t-69 -101t-102 -47t-125.5 -11.5t-125.5 11.5t-102 47t-69 101t-25.5 173.5zM255 723v73h70v-73h-70zM433 723v73h70v-73h-70zM241 845v38h275v-38h-275z" />
    <glyph glyph-name="uni022C" unicode="&#x22c;" 
d="M379 599q-49 0 -94 -4.5t-79 -30.5t-54.5 -82.5t-20.5 -159.5q0 -69 9.5 -116.5t26 -78t39.5 -47.5t50.5 -24.5t58.5 -9t64 -1.5q32 0 63 1.5t58.5 9t51 24.5t40 47.5t26 78t9.5 116.5q0 103 -21 159.5t-55.5 82.5t-79 30.5t-92.5 4.5zM57 322q0 108 25.5 173.5t69 101
t102 47t125.5 11.5t125.5 -11.5t102 -47t69 -101t25.5 -173.5t-25.5 -173.5t-69 -101t-102 -47t-125.5 -11.5t-125.5 11.5t-102 47t-69 101t-25.5 173.5zM528 803q-4 -40 -26.5 -62t-56.5 -22q-14 0 -32.5 6.5t-42.5 18.5q-33 18 -51 18q-12 0 -19.5 -3.5t-15.5 -11.5
q-5 -5 -8 -12t-4 -18h-43q1 20 7 33.5t17 25.5q26 26 64 26q14 0 33 -6.5t43 -17.5q30 -15 49 -15t29.5 8t15.5 32h41zM241 845v38h275v-38h-275z" />
    <glyph glyph-name="uni022D" unicode="&#x22d;" 
d="M379 599q-49 0 -94 -4.5t-79 -30.5t-54.5 -82.5t-20.5 -159.5q0 -69 9.5 -116.5t26 -78t39.5 -47.5t50.5 -24.5t58.5 -9t64 -1.5q32 0 63 1.5t58.5 9t51 24.5t40 47.5t26 78t9.5 116.5q0 103 -21 159.5t-55.5 82.5t-79 30.5t-92.5 4.5zM57 322q0 108 25.5 173.5t69 101
t102 47t125.5 11.5t125.5 -11.5t102 -47t69 -101t25.5 -173.5t-25.5 -173.5t-69 -101t-102 -47t-125.5 -11.5t-125.5 11.5t-102 47t-69 101t-25.5 173.5zM528 803q-4 -40 -26.5 -62t-56.5 -22q-14 0 -32.5 6.5t-42.5 18.5q-33 18 -51 18q-12 0 -19.5 -3.5t-15.5 -11.5
q-5 -5 -8 -12t-4 -18h-43q1 20 7 33.5t17 25.5q26 26 64 26q14 0 33 -6.5t43 -17.5q30 -15 49 -15t29.5 8t15.5 32h41zM241 845v38h275v-38h-275z" />
    <glyph glyph-name="uni022E" unicode="&#x22e;" 
d="M379 599q-49 0 -94 -4.5t-79 -30.5t-54.5 -82.5t-20.5 -159.5q0 -69 9.5 -116.5t26 -78t39.5 -47.5t50.5 -24.5t58.5 -9t64 -1.5q32 0 63 1.5t58.5 9t51 24.5t40 47.5t26 78t9.5 116.5q0 103 -21 159.5t-55.5 82.5t-79 30.5t-92.5 4.5zM57 322q0 108 25.5 173.5t69 101
t102 47t125.5 11.5t125.5 -11.5t102 -47t69 -101t25.5 -173.5t-25.5 -173.5t-69 -101t-102 -47t-125.5 -11.5t-125.5 11.5t-102 47t-69 101t-25.5 173.5zM418 737h-78v73h78v-73z" />
    <glyph glyph-name="uni022F" unicode="&#x22f;" 
d="M379 599q-49 0 -94 -4.5t-79 -30.5t-54.5 -82.5t-20.5 -159.5q0 -69 9.5 -116.5t26 -78t39.5 -47.5t50.5 -24.5t58.5 -9t64 -1.5q32 0 63 1.5t58.5 9t51 24.5t40 47.5t26 78t9.5 116.5q0 103 -21 159.5t-55.5 82.5t-79 30.5t-92.5 4.5zM57 322q0 108 25.5 173.5t69 101
t102 47t125.5 11.5t125.5 -11.5t102 -47t69 -101t25.5 -173.5t-25.5 -173.5t-69 -101t-102 -47t-125.5 -11.5t-125.5 11.5t-102 47t-69 101t-25.5 173.5zM418 737h-78v73h78v-73z" />
    <glyph glyph-name="uni0230" unicode="&#x230;" 
d="M379 599q-49 0 -94 -4.5t-79 -30.5t-54.5 -82.5t-20.5 -159.5q0 -69 9.5 -116.5t26 -78t39.5 -47.5t50.5 -24.5t58.5 -9t64 -1.5q32 0 63 1.5t58.5 9t51 24.5t40 47.5t26 78t9.5 116.5q0 103 -21 159.5t-55.5 82.5t-79 30.5t-92.5 4.5zM57 322q0 108 25.5 173.5t69 101
t102 47t125.5 11.5t125.5 -11.5t102 -47t69 -101t25.5 -173.5t-25.5 -173.5t-69 -101t-102 -47t-125.5 -11.5t-125.5 11.5t-102 47t-69 101t-25.5 173.5zM418 737h-78v73h78v-73zM241 845v38h275v-38h-275z" />
    <glyph glyph-name="uni0231" unicode="&#x231;" 
d="M379 599q-49 0 -94 -4.5t-79 -30.5t-54.5 -82.5t-20.5 -159.5q0 -69 9.5 -116.5t26 -78t39.5 -47.5t50.5 -24.5t58.5 -9t64 -1.5q32 0 63 1.5t58.5 9t51 24.5t40 47.5t26 78t9.5 116.5q0 103 -21 159.5t-55.5 82.5t-79 30.5t-92.5 4.5zM57 322q0 108 25.5 173.5t69 101
t102 47t125.5 11.5t125.5 -11.5t102 -47t69 -101t25.5 -173.5t-25.5 -173.5t-69 -101t-102 -47t-125.5 -11.5t-125.5 11.5t-102 47t-69 101t-25.5 173.5zM418 737h-78v73h78v-73zM241 845v38h275v-38h-275z" />
    <glyph glyph-name="uni0232" unicode="&#x232;" horiz-adv-x="618" 
d="M269 0v274l-127.5 184l-128.5 184h86l66 -97.5l66 -97.5q20 -29 41.5 -64l38.5 -63l37.5 62.5t45.5 68.5l66 95.5l67 95.5h79l-265 -368v-274h-72zM171 745v38h275v-38h-275z" />
    <glyph glyph-name="uni0233" unicode="&#x233;" horiz-adv-x="618" 
d="M269 0v274l-127.5 184l-128.5 184h86l66 -97.5l66 -97.5q20 -29 41.5 -64l38.5 -63l37.5 62.5t45.5 68.5l66 95.5l67 95.5h79l-265 -368v-274h-72zM171 745v38h275v-38h-275z" />
    <glyph glyph-name="circumflex" unicode="&#x2c6;" horiz-adv-x="326" 
d="M224 547l-59 84l-59 -84h-72l44 54l44 53h80l91 -107h-69z" />
    <glyph glyph-name="caron" unicode="&#x2c7;" horiz-adv-x="380" 
d="M238 693h-96l-92 102h77l63 -75l63 75h77z" />
    <glyph glyph-name="breve" unicode="&#x2d8;" horiz-adv-x="376" 
d="M326 795q-10 -53 -45.5 -82.5t-92.5 -29.5q-59 0 -94 27.5t-44 84.5h43q17 -69 92 -69q44 0 67 17t32 52h42z" />
    <glyph glyph-name="dotaccent" unicode="&#x2d9;" horiz-adv-x="170" 
d="M122 577h-78v73h78v-73z" />
    <glyph glyph-name="ring" unicode="&#x2da;" horiz-adv-x="174" 
d="M90 565q13 0 22.5 5t9.5 32q0 26 -10 30.5t-22 4.5q-13 0 -22.5 -4.5t-9.5 -30.5q0 -27 9.5 -32t22.5 -5zM90 535q-14 0 -25.5 2.5t-20 9.5t-13.5 20t-5 35q0 21 5 34t13.5 20t20 9.5t25.5 2.5q13 0 25 -2.5t20.5 -9.5t13.5 -20t5 -34q0 -22 -5 -35t-13.5 -20t-20.5 -9.5
t-25 -2.5z" />
    <glyph glyph-name="tilde" unicode="&#x2dc;" horiz-adv-x="416" 
d="M360 643q-4 -40 -26.5 -62t-56.5 -22q-14 0 -32.5 6.5t-42.5 18.5q-33 18 -51 18q-12 0 -19.5 -3.5t-15.5 -11.5q-5 -5 -8 -12t-4 -18h-43q1 20 7 33.5t17 25.5q26 26 64 26q14 0 33 -6.5t43 -17.5q30 -15 49 -15t29.5 8t15.5 32h41z" />
    <glyph glyph-name="hungarumlaut" unicode="&#x2dd;" horiz-adv-x="348" 
d="M31 547l53 107h85q-26 -29 -45.5 -53.5l-42.5 -53.5h-50zM205 547l53 107h85q-26 -29 -45.5 -53.5l-42.5 -53.5h-50z" />
    <glyph glyph-name="gravecomb" unicode="&#x300;" horiz-adv-x="297" 
d="M173 707l-94 107h86l53 -107h-45z" />
    <glyph glyph-name="acutecomb" unicode="&#x301;" horiz-adv-x="296" 
d="M79 707l53 107h85q-26 -29 -45.5 -53.5l-42.5 -53.5h-50z" />
    <glyph glyph-name="uni0302" unicode="&#x302;" horiz-adv-x="417" 
d="M269 707l-59 84l-59 -84h-72l44 54l44 53h80l91 -107h-69z" />
    <glyph glyph-name="tildecomb" unicode="&#x303;" horiz-adv-x="457" 
d="M378 803q-4 -40 -26.5 -62t-56.5 -22q-14 0 -32.5 6.5t-42.5 18.5q-33 18 -51 18q-12 0 -19.5 -3.5t-15.5 -11.5q-5 -5 -8 -12t-4 -18h-43q1 20 7 33.5t17 25.5q26 26 64 26q14 0 33 -6.5t43 -17.5q30 -15 49 -15t29.5 8t15.5 32h41z" />
    <glyph glyph-name="uni0304" unicode="&#x304;" horiz-adv-x="433" 
d="M79 745v38h275v-38h-275z" />
    <glyph glyph-name="uni0306" unicode="&#x306;" horiz-adv-x="434" 
d="M355 819q-10 -53 -45.5 -82.5t-92.5 -29.5q-59 0 -94 27.5t-44 84.5h43q17 -69 92 -69q44 0 67 17t32 52h42z" />
    <glyph glyph-name="uni0307" unicode="&#x307;" horiz-adv-x="236" 
d="M157 737h-78v73h78v-73z" />
    <glyph glyph-name="uni0308" unicode="&#x308;" horiz-adv-x="406" 
d="M79 741v73h70v-73h-70zM257 741v73h70v-73h-70z" />
    <glyph glyph-name="hookabovecomb" unicode="&#x309;" horiz-adv-x="316" 
d="M108 725v33q0 29 18.5 41t44.5 17q10 2 12 3t2 4q0 10 -25 10q-12 0 -29.5 -4.5t-26.5 -6.5l-25 41q20 11 43.5 16.5t41.5 5.5q31 0 52 -16t21 -46q0 -29 -13.5 -41t-42.5 -18q-8 -2 -13.5 -3.5t-5.5 -4.5v-31h-54z" />
    <glyph glyph-name="uni030A" unicode="&#x30a;" horiz-adv-x="286" 
d="M143 725q13 0 22.5 5t9.5 32q0 26 -10 30.5t-22 4.5q-13 0 -22.5 -4.5t-9.5 -30.5q0 -27 9.5 -32t22.5 -5zM143 695q-14 0 -25.5 2.5t-20 9.5t-13.5 20t-5 35q0 21 5 34t13.5 20t20 9.5t25.5 2.5q13 0 25 -2.5t20.5 -9.5t13.5 -20t5 -34q0 -22 -5 -35t-13.5 -20
t-20.5 -9.5t-25 -2.5z" />
    <glyph glyph-name="uni030B" unicode="&#x30b;" horiz-adv-x="470" 
d="M79 707l53 107h85q-26 -29 -45.5 -53.5l-42.5 -53.5h-50zM253 707l53 107h85q-26 -29 -45.5 -53.5l-42.5 -53.5h-50z" />
    <glyph glyph-name="uni030C" unicode="&#x30c;" horiz-adv-x="417" 
d="M167 707l-44 53l-44 54h72l59 -84l59 84h69l-91 -107h-80z" />
    <glyph glyph-name="uni030F" unicode="&#x30f;" horiz-adv-x="470" 
d="M341 707l-42.5 53.5t-45.5 53.5h85l53 -107h-50zM167 707l-42.5 53.5t-45.5 53.5h85l53 -107h-50z" />
    <glyph glyph-name="uni0310" unicode="&#x310;" horiz-adv-x="434" 
d="M355 819q-10 -53 -45.5 -82.5t-92.5 -29.5q-59 0 -94 27.5t-44 84.5h43q17 -69 92 -69q44 0 67 17t32 52h42zM256 802h-78v73h78v-73z" />
    <glyph glyph-name="uni0311" unicode="&#x311;" horiz-adv-x="434" 
d="M313 707q-9 35 -32 52t-67 17q-75 0 -92 -69h-43q9 57 44 84.5t94 27.5q57 0 92.5 -29.5t45.5 -82.5h-42z" />
    <glyph glyph-name="uni0316" unicode="&#x316;" horiz-adv-x="297" 
d="M173 -153l-94 107h86l53 -107h-45z" />
    <glyph glyph-name="uni0317" unicode="&#x317;" horiz-adv-x="297" 
d="M79 -153l53 107h86l-94 -107h-45z" />
    <glyph glyph-name="dotbelowcomb" unicode="&#x323;" horiz-adv-x="170" 
d="M122 -153h-78v73h78v-73z" />
    <glyph glyph-name="uni0324" unicode="&#x324;" horiz-adv-x="409" 
d="M79 -153v73h70v-73h-70zM257 -153v73h70v-73h-70z" />
    <glyph glyph-name="uni0325" unicode="&#x325;" horiz-adv-x="174" 
d="M90 -153q13 0 22.5 5t9.5 32q0 26 -10 30.5t-22 4.5q-13 0 -22.5 -4.5t-9.5 -30.5q0 -27 9.5 -32t22.5 -5zM90 -183q-14 0 -25.5 2.5t-20 9.5t-13.5 20t-5 35q0 21 5 34t13.5 20t20 9.5t25.5 2.5q13 0 25 -2.5t20.5 -9.5t13.5 -20t5 -34q0 -22 -5 -35t-13.5 -20
t-20.5 -9.5t-25 -2.5z" />
    <glyph glyph-name="uni032C" unicode="&#x32c;" horiz-adv-x="417" 
d="M167 -153l-44 53l-44 54h72l59 -84l59 84h69l-91 -107h-80z" />
    <glyph glyph-name="uni032D" unicode="&#x32d;" horiz-adv-x="417" 
d="M269 -153l-59 84l-59 -84h-72l44 54l44 53h80l91 -107h-69z" />
    <glyph glyph-name="uni032E" unicode="&#x32e;" horiz-adv-x="434" 
d="M355 -41q-10 -53 -45.5 -82.5t-92.5 -29.5q-59 0 -94 27.5t-44 84.5h43q17 -69 92 -69q44 0 67 17t32 52h42z" />
    <glyph glyph-name="uni032F" unicode="&#x32f;" horiz-adv-x="434" 
d="M313 -153q-9 35 -32 52t-67 17q-75 0 -92 -69h-43q9 57 44 84.5t94 27.5q57 0 92.5 -29.5t45.5 -82.5h-42z" />
    <glyph glyph-name="uni0330" unicode="&#x330;" horiz-adv-x="457" 
d="M378 -67q-4 -40 -26.5 -62t-56.5 -22q-14 0 -32.5 6.5t-42.5 18.5q-33 18 -51 18q-12 0 -19.5 -3.5t-15.5 -11.5q-5 -5 -8 -12t-4 -18h-43q1 20 7 33.5t17 25.5q26 26 64 26q14 0 33 -6.5t43 -17.5q30 -15 49 -15t29.5 8t15.5 32h41z" />
    <glyph glyph-name="uni0331" unicode="&#x331;" horiz-adv-x="433" 
d="M79 -113v38h275v-38h-275z" />
    <glyph glyph-name="uni0400" unicode="&#x400;" horiz-adv-x="583" 
d="M79 0v642h480l-10 -57h-398v-224h323v-57h-323v-246h408l-10 -58h-470zM316 707l-94 107h86l53 -107h-45z" />
    <glyph glyph-name="afii10023" unicode="&#x401;" horiz-adv-x="551" 
d="M55 0v642h480v-57h-408v-224h383v-57h-383v-246h424v-58h-496zM168 723v73h70v-73h-70zM346 723v73h70v-73h-70z" />
    <glyph glyph-name="afii10051" unicode="&#x402;" horiz-adv-x="789" 
d="M753 200q0 -66 -12.5 -106.5t-41.5 -62t-77 -29t-119 -7.5l10 57q47 0 79 3t51 17t27 43t8 82v12q0 52 -9.5 81.5t-30 43.5t-53.5 17t-80 3h-189v-354h-72v585h-227l10 57h529l-10 -57h-230v-174h187q71 0 119 -7.5t77 -29t41.5 -62t12.5 -106.5v-6z" />
    <glyph glyph-name="afii10052" unicode="&#x403;" horiz-adv-x="486" 
d="M79 0v642h407l-10 -57h-326v-585h-71zM174 689l53 107h85q-26 -29 -45.5 -53.5l-42.5 -53.5h-50z" />
    <glyph glyph-name="afii10053" unicode="&#x404;" horiz-adv-x="650" 
d="M608 37q-42 -20 -105.5 -33.5t-133.5 -13.5q-76 0 -134.5 12t-98 48t-60 102t-20.5 173q0 106 23 171t65 100t101.5 47t133.5 12q70 0 129 -11t101 -31l-33 -53q-14 5 -35 11.5t-46.5 12.5t-54.5 10t-59 4q-52 0 -96 -6t-77 -29.5t-53.5 -71t-23.5 -130.5h403v-57h-404
q1 -83 15 -133.5t44 -78t78 -36.5t117 -9q30 0 58.5 5t53 11.5t45 14l34.5 12.5z" />
    <glyph glyph-name="afii10054" unicode="&#x405;" horiz-adv-x="624" 
d="M522 562q-14 5 -37 11t-51 11.5t-59 9t-61 3.5q-89 0 -135 -25.5t-46 -93.5q0 -32 3.5 -49t16 -27.5t37.5 -17t69 -15.5q56 -12 112.5 -21.5t102.5 -28t75.5 -51.5t30.5 -91q0 -58 -19 -94.5t-53 -57.5t-81.5 -28.5t-104.5 -7.5q-35 0 -74 3.5t-76.5 10.5t-70.5 15.5
t-55 19.5l15 28t16 27q15 -6 39.5 -14t57.5 -15t73 -12t84 -5q42 0 75.5 2t57 14t36 37.5t12.5 72.5q0 30 -7 47.5t-23 28t-43 16.5t-67 14q-84 16 -143 28.5t-95.5 32t-53 52t-16.5 87.5q0 44 18.5 77t51 54.5t75 32.5t90.5 11q35 0 71.5 -2.5t70.5 -7.5t63.5 -12t50.5 -17
z" />
    <glyph glyph-name="afii10055" unicode="&#x406;" horiz-adv-x="241" 
d="M79 0v642h72v-642h-72z" />
    <glyph glyph-name="afii10056" unicode="&#x407;" horiz-adv-x="241" 
d="M79 0v642h72v-642h-72zM-7 723v73h70v-73h-70zM171 723v73h70v-73h-70z" />
    <glyph glyph-name="afii10057" unicode="&#x408;" horiz-adv-x="322" 
d="M6 48q47 0 80 2.5t53.5 17t30 44.5t9.5 85v445h71v-441q0 -66 -12.5 -106.5t-41.5 -62.5t-77 -29.5t-119 -7.5z" />
    <glyph glyph-name="afii10058" unicode="&#x409;" horiz-adv-x="1117" 
d="M575 0v583h-299l-20 -382q-3 -66 -15 -107t-36 -63.5t-62.5 -30t-94.5 -7.5l6 53q32 0 55.5 3t39.5 17.5t24.5 45t11.5 85.5l20 445h442v-231h187q71 0 119 -7.5t77 -29t41.5 -62t12.5 -106.5t-12.5 -106.5t-41.5 -62.5t-77 -29.5t-119 -7.5h-259zM1009 209
q0 52 -9.5 81.5t-30 43.5t-53.5 17t-80 3h-189v-297h189q47 0 80 3t53.5 17.5t30 43.5t9.5 82v6z" />
    <glyph glyph-name="afii10059" unicode="&#x40a;" horiz-adv-x="1071" 
d="M530 0v312h-380v-312h-71v642h71v-271h380v271h72v-231h187q71 0 119 -7.5t77 -29t41.5 -62t12.5 -106.5t-12.5 -106.5t-41.5 -62.5t-77 -29.5t-119 -7.5h-259zM964 209q0 52 -9.5 81.5t-30 43.5t-53.5 17t-80 3h-189v-297h189q47 0 80 3t53.5 17.5t30 43.5t9.5 82v6z
" />
    <glyph glyph-name="afii10060" unicode="&#x40b;" horiz-adv-x="794" 
d="M755 0h-75v209q0 52 -9.5 81.5t-30 43.5t-53.5 17t-80 3h-189v-354h-72v585h-227l10 57h529l-10 -57h-230v-174h187q71 0 119 -7.5t77 -29t41.5 -62t12.5 -106.5v-206z" />
    <glyph glyph-name="afii10061" unicode="&#x40c;" horiz-adv-x="675" 
d="M526 0l-215 292h-161v-292h-71v642h71v-293h161l215 293h94l-122.5 -160.5l-123.5 -160.5l123.5 -161l122.5 -160h-94zM268 689l53 107h85q-26 -29 -45.5 -53.5l-42.5 -53.5h-50z" />
    <glyph glyph-name="uni040D" unicode="&#x40d;" horiz-adv-x="685" 
d="M537 0v544l-379 -544h-79v642h67v-542l379 542h80v-642h-68zM367 707l-94 107h86l53 -107h-45z" />
    <glyph glyph-name="afii10062" unicode="&#x40e;" horiz-adv-x="633" 
d="M528 735q-16 -9 -41.5 -16.5t-55 -12t-61 -7.5t-58.5 -3q-27 1 -57.5 3.5t-59 7.5t-52.5 12t-39 16l27 53q11 -5 32.5 -11t47 -11.5t53.5 -9t52 -3.5t52 3.5t53.5 9t47 11.5t32.5 11zM15 642h74l242 -490l19 44l190 446h81l-200 -442l-33.5 -69.5t-29 -53.5t-30.5 -39
t-39.5 -25.5t-57 -14t-80.5 -4.5l6 53q28 0 49.5 1.5t37 5.5t27.5 11.5t23 20.5z" />
    <glyph glyph-name="afii10145" unicode="&#x40f;" horiz-adv-x="620" 
d="M339 0v-173l-58 -10v183h-232v642h71v-583h380v583h71v-642h-232z" />
    <glyph glyph-name="afii10017" unicode="&#x410;" horiz-adv-x="657" 
d="M554 0l-81 201h-291l-80 -201h-74l257 642h86l257 -642h-74zM369 461l-38 121h-6l-38 -121l-84 -209h250z" />
    <glyph glyph-name="afii10018" unicode="&#x411;" horiz-adv-x="625" 
d="M79 0v642h478l-10 -57h-396v-174h187q71 0 119 -7.5t77 -29t41.5 -62t12.5 -106.5t-12.5 -106.5t-41.5 -62.5t-77 -29.5t-119 -7.5h-259zM513 209q0 52 -9.5 81.5t-30 43.5t-53.5 17t-80 3h-189v-297h189q47 0 80 3t53.5 17.5t30 43.5t9.5 82v6z" />
    <glyph glyph-name="afii10019" unicode="&#x412;" horiz-adv-x="675" 
d="M79 0v642h275q71 0 119 -6.5t76.5 -24t40.5 -49.5t12 -83q0 -38 -5 -63t-15.5 -42.5t-26 -29.5t-35.5 -22q20 -10 36.5 -21.5t28 -29t17.5 -43t6 -62.5q0 -51 -12.5 -83.5t-41.5 -50.5t-77 -25t-119 -7h-279zM360 57q47 0 80.5 1.5t54.5 11.5t30.5 32.5t9.5 63.5
q0 49 -9 75t-28.5 37.5t-50.5 13.5t-75 2h-221v-237h209zM372 351q44 0 74 3t48.5 15t26.5 37t8 70q0 37 -9.5 59t-30 33t-53.5 14t-80 3h-205v-234h221z" />
    <glyph glyph-name="afii10020" unicode="&#x413;" horiz-adv-x="486" 
d="M79 0v642h407l-10 -57h-326v-585h-71z" />
    <glyph glyph-name="afii10021" unicode="&#x414;" horiz-adv-x="708" 
d="M587 -124v124h-487v-98l-57 -10v167h22q29 9 43.5 46t18.5 112l18 425h442v-583h58v-173zM516 583h-300l-18 -362q-3 -61 -13 -100t-30 -62h361v524z" />
    <glyph glyph-name="afii10022" unicode="&#x415;" horiz-adv-x="583" 
d="M79 0v642h480l-10 -57h-398v-224h323v-57h-323v-246h408l-10 -58h-470z" />
    <glyph glyph-name="afii10024" unicode="&#x416;" horiz-adv-x="960" 
d="M822 0l-223 292h-78v-292h-71v292h-78l-223 -292h-89l122.5 160l123.5 161q-31 40 -58.5 80l-54.5 80.5l-55 80.5l-58 80h89l203 -293h78v293h71v-293h78l203 293h89l-58 -80l-55 -80.5l-54.5 -80.5t-58.5 -80l123.5 -161l122.5 -160h-89z" />
    <glyph glyph-name="afii10025" unicode="&#x417;" horiz-adv-x="603" 
d="M141 294v57h161q44 0 74.5 3.5t50 16.5t28 39t8.5 71q0 37 -9.5 60t-30 35t-53.5 16t-80 4q-30 0 -64 -3.5t-65 -9t-56.5 -11.5t-39.5 -11l-33 53q21 10 50.5 17t63.5 12t70.5 7.5t71.5 2.5q71 0 119 -7.5t76.5 -26t40.5 -51.5t12 -84q0 -38 -6 -64t-17 -44t-27 -31
t-36 -23q20 -10 36.5 -22.5t28 -30.5t17.5 -44.5t6 -63.5q0 -51 -12.5 -84.5t-41.5 -53t-77 -27t-119 -7.5q-35 0 -71.5 2.5t-70.5 7.5t-63.5 12t-50.5 17l33 53q14 -5 39.5 -11t56.5 -11.5t65 -9t64 -3.5q47 0 80.5 2.5t54.5 13.5t30.5 34.5t9.5 64.5q0 49 -9 75.5
t-28.5 39.5t-50.5 15.5t-75 2.5h-161z" />
    <glyph glyph-name="afii10026" unicode="&#x418;" horiz-adv-x="685" 
d="M537 0v544l-379 -544h-79v642h67v-542l379 542h80v-642h-68z" />
    <glyph glyph-name="afii10027" unicode="&#x419;" horiz-adv-x="655" 
d="M540 735q-16 -9 -41.5 -16.5t-55 -12t-61 -7.5t-58.5 -3q-27 1 -57.5 3.5t-59 7.5t-52.5 12t-39 16l27 53q11 -5 32.5 -11t47 -11.5t53.5 -9t52 -3.5t52 3.5t53.5 9t47 11.5t32.5 11zM522 0v544l-379 -544h-79v642h67v-542l379 542h80v-642h-68z" />
    <glyph glyph-name="afii10028" unicode="&#x41a;" horiz-adv-x="675" 
d="M526 0l-215 292h-161v-292h-71v642h71v-293h161l215 293h94l-122.5 -160.5l-123.5 -160.5l123.5 -161l122.5 -160h-94z" />
    <glyph glyph-name="afii10029" unicode="&#x41b;" horiz-adv-x="709" 
d="M558 0v583h-300l-20 -382q-3 -66 -15 -107t-36 -63.5t-62.5 -30t-94.5 -7.5l6 53q32 0 55.5 3t39.5 17.5t24.5 45t11.5 85.5l20 445h442v-642h-71z" />
    <glyph glyph-name="afii10030" unicode="&#x41c;" horiz-adv-x="855" 
d="M707 0v562h-3l-238 -562h-78l-238 562h-3v-562h-68v642h108l198 -462l42 -121l42 121l198 462h108v-642h-68z" />
    <glyph glyph-name="afii10031" unicode="&#x41d;" horiz-adv-x="681" 
d="M530 0v312h-380v-312h-71v642h71v-271h380v271h71v-642h-71z" />
    <glyph glyph-name="afii10032" unicode="&#x41e;" 
d="M379 599q-49 0 -94 -4.5t-79 -30.5t-54.5 -82.5t-20.5 -159.5q0 -69 9.5 -116.5t26 -78t39.5 -47.5t50.5 -24.5t58.5 -9t64 -1.5q32 0 63 1.5t58.5 9t51 24.5t40 47.5t26 78t9.5 116.5q0 103 -21 159.5t-55.5 82.5t-79 30.5t-92.5 4.5zM57 322q0 108 25.5 173.5t69 101
t102 47t125.5 11.5t125.5 -11.5t102 -47t69 -101t25.5 -173.5t-25.5 -173.5t-69 -101t-102 -47t-125.5 -11.5t-125.5 11.5t-102 47t-69 101t-25.5 173.5z" />
    <glyph glyph-name="afii10033" unicode="&#x41f;" horiz-adv-x="681" 
d="M530 0v583h-380v-583h-71v642h522v-642h-71z" />
    <glyph glyph-name="afii10034" unicode="&#x420;" horiz-adv-x="595" 
d="M79 0v642h259q71 0 119 -7.5t77 -29.5t41.5 -62.5t12.5 -106.5t-12.5 -106.5t-41.5 -62t-77 -29t-119 -7.5h-187v-231h-72zM513 439q0 52 -9.5 81.5t-30 44t-53.5 17.5t-80 3h-189v-297h189q47 0 80 3t53.5 17t30 43t9.5 82v6z" />
    <glyph glyph-name="afii10035" unicode="&#x421;" horiz-adv-x="650" 
d="M614 31q-42 -20 -103.5 -32t-131.5 -12q-74 0 -133.5 12.5t-101.5 48.5t-65 101.5t-23 171.5t23 171.5t65 101.5t101.5 48.5t133.5 12.5q140 0 225 -40l-33 -53q-29 10 -79 23t-111 13q-54 0 -100 -7.5t-79.5 -35.5t-52.5 -83.5t-19 -150.5q0 -96 19 -151.5t52.5 -83
t79.5 -35t100 -7.5q30 0 60 4.5t56 10.5t48 13t36 12z" />
    <glyph glyph-name="afii10036" unicode="&#x422;" horiz-adv-x="543" 
d="M234 0v585h-227l10 57h529l-10 -57h-230v-585h-72z" />
    <glyph glyph-name="afii10037" unicode="&#x423;" horiz-adv-x="646" 
d="M27 642h74l242 -490l19 44l190 446h81l-200 -442l-33.5 -69.5t-29 -53.5t-30.5 -39t-39.5 -25.5t-57 -14t-80.5 -4.5l6 53q28 0 49.5 1.5t37 5.5t27.5 11.5t23 20.5z" />
    <glyph glyph-name="afii10038" unicode="&#x424;" horiz-adv-x="846" 
d="M387 -57v57h-37q-74 0 -133.5 10.5t-101.5 44t-65 97t-23 169.5t23 169.5t65 97t101.5 44t133.5 10.5h18.5t18.5 -1v58h72v-58q9 1 18 1h19q73 0 133 -10.5t102 -44t65 -97t23 -169.5t-23 -169.5t-65 -97t-102 -44t-133 -10.5q-10 0 -19 -0.5t-18 0.5v-57h-72zM459 57
q8 -1 17 -1h18q54 0 100 5.5t79.5 31t52.5 79t19 149.5q0 95 -19 148.5t-52.5 79t-79.5 31t-100 5.5h-18t-17 -1v-527zM387 584q-9 1 -18 1h-17q-54 0 -100 -5.5t-79.5 -31t-52.5 -79t-19 -148.5q0 -96 19 -149.5t52.5 -79t79.5 -31t100 -5.5h17t18 1v527z" />
    <glyph glyph-name="afii10039" unicode="&#x425;" horiz-adv-x="696" 
d="M555 0l-171 232v-1l-38 58l-24.5 -38.5t-17.5 -23.5l-170 -227h-85l261 336l-55 74l-59 78.5l-59 79l-56 74.5h83l123 -165q20 -25 35.5 -50l27.5 -44q11 18 29.5 42.5l34.5 44.5l136 172h75l-236 -302l127 -169.5l127 -170.5h-88z" />
    <glyph glyph-name="afii10040" unicode="&#x426;" horiz-adv-x="680" 
d="M559 -124v124h-522v642h71v-583h380v583h71v-583h58v-173z" />
    <glyph glyph-name="afii10041" unicode="&#x427;" horiz-adv-x="599" 
d="M446 0v252q-35 -17 -79 -23t-100 -6q-57 0 -104.5 9t-81.5 31.5t-53 61t-19 96.5v221h75v-224q0 -47 13 -74t37 -41t58 -18t76 -4q69 0 111.5 9t66.5 37v315h72v-642h-72z" />
    <glyph glyph-name="afii10042" unicode="&#x428;" horiz-adv-x="932" 
d="M79 0v642h71v-583h280v583h71v-583h280v583h71v-642h-773z" />
    <glyph glyph-name="afii10043" unicode="&#x429;" horiz-adv-x="933" 
d="M808 -124v124h-773v642h71v-583h280v583h71v-583h280v583h71v-583h58v-173z" />
    <glyph glyph-name="afii10044" unicode="&#x42a;" horiz-adv-x="694" 
d="M169 0v585h-135l10 57h197v-231h187q71 0 119 -7.5t77 -29t41.5 -62t12.5 -106.5t-12.5 -106.5t-41.5 -62.5t-77 -29.5t-119 -7.5h-259zM603 209q0 52 -9.5 81.5t-30 43.5t-53.5 17t-80 3h-189v-297h189q47 0 80 3t53.5 17.5t30 43.5t9.5 82v6z" />
    <glyph glyph-name="afii10045" unicode="&#x42b;" horiz-adv-x="838" 
d="M513 209q0 52 -9.5 81.5t-30 43.5t-53.5 17t-80 3h-189v-297h189q47 0 80 3t53.5 17.5t30 43.5t9.5 82v6zM79 0v642h72v-231h187q71 0 119 -7.5t77 -29t41.5 -62t12.5 -106.5t-12.5 -106.5t-41.5 -62.5t-77 -29.5t-119 -7.5h-259zM686 0v642h72v-642h-72z" />
    <glyph glyph-name="afii10046" unicode="&#x42c;" horiz-adv-x="596" 
d="M513 209q0 52 -9.5 81.5t-30 43.5t-53.5 17t-80 3h-189v-297h189q47 0 80 3t53.5 17.5t30 43.5t9.5 82v6zM79 0v642h72v-231h187q71 0 119 -7.5t77 -29t41.5 -62t12.5 -106.5t-12.5 -106.5t-41.5 -62.5t-77 -29.5t-119 -7.5h-259z" />
    <glyph glyph-name="afii10047" unicode="&#x42d;" horiz-adv-x="650" 
d="M116 304v57h403q-3 83 -23.5 130.5t-53.5 71t-77 29.5t-96 6q-30 0 -59 -4t-54.5 -10t-46.5 -12.5t-35 -11.5l-33 53q42 20 101 31t129 11q73 0 133 -12t102 -47t65 -100t23 -171q0 -107 -20.5 -173t-60.5 -102t-98 -48t-134 -12q-70 0 -133.5 13.5t-105.5 33.5l33 53
l34.5 -12.5t45 -14t53 -11.5t58.5 -5q69 0 116.5 9t77.5 36.5t44 78t16 133.5h-404z" />
    <glyph glyph-name="afii10048" unicode="&#x42e;" horiz-adv-x="1019" 
d="M78 0v642h71v-271h164q6 91 33.5 147t70 86.5t98.5 40.5t119 10q67 0 125.5 -11.5t102 -47t69 -101t25.5 -173.5t-25.5 -173.5t-69 -101t-102 -47t-125.5 -11.5q-66 0 -124 11t-101.5 45.5t-69.5 98t-27 168.5h-163v-312h-71zM634 45q32 0 63 1.5t58.5 9t51 24.5t40 47.5
t26 78t9.5 116.5q0 103 -21 159.5t-55.5 82.5t-79 30.5t-92.5 4.5q-49 0 -94 -4.5t-79 -30.5t-54.5 -82.5t-20.5 -159.5q0 -69 9.5 -116.5t26 -78t39.5 -47.5t50.5 -24.5t58.5 -9t64 -1.5z" />
    <glyph glyph-name="afii10049" unicode="&#x42f;" horiz-adv-x="671" 
d="M519 0v231h-206l-170 -231h-92l89.5 117.5l89.5 117.5q-42 5 -70.5 17.5t-46 35.5t-25 59t-7.5 89q0 66 12.5 106.5t41.5 62.5t77 29.5t119 7.5h260v-642h-72zM519 585h-190q-47 0 -80 -3t-53.5 -17t-30 -44t-9.5 -85q0 -53 9.5 -82.5t30 -44t53.5 -18t80 -3.5h190v297z
" />
    <glyph glyph-name="afii10065" unicode="&#x430;" horiz-adv-x="702" 
d="M648 -1q-50 7 -74 29t-32 71q-35 -53 -93.5 -81t-142.5 -28q-57 0 -104.5 9t-81.5 31.5t-53 61t-19 96.5t19 96.5t53 61t81.5 31.5t104.5 9h218q-3 74 -15 116.5t-36.5 63.5t-63 26.5t-95.5 5.5q-30 0 -59 -4t-54.5 -10t-46.5 -12.5t-35 -11.5l-33 53q42 20 101 31
t129 11q81 0 135.5 -12t87 -47t46.5 -100t14 -171v-16v-112q0 -38 3.5 -63.5t10.5 -42t18.5 -25.5t27.5 -13zM525 328h-219q-42 0 -77 -4.5t-60 -19t-39 -42t-14 -74.5t14 -74.5t39.5 -42t60.5 -19t77 -4.5q71 0 114 18t66 53.5t30.5 87t7.5 119.5v2z" />
    <glyph glyph-name="afii10066" unicode="&#x431;" horiz-adv-x="623" 
d="M79 0v642h478l-10 -57h-396v-174h187q71 0 119 -7.5t77 -29t41.5 -62t12.5 -106.5t-12.5 -106.5t-41.5 -62.5t-77 -29.5t-119 -7.5h-259zM513 209q0 52 -9.5 81.5t-30 43.5t-53.5 17t-80 3h-189v-297h189q47 0 80 3t53.5 17.5t30 43.5t9.5 82v6z" />
    <glyph glyph-name="afii10067" unicode="&#x432;" horiz-adv-x="675" 
d="M79 0v642h275q71 0 119 -6.5t76.5 -24t40.5 -49.5t12 -83q0 -38 -5 -63t-15.5 -42.5t-26 -29.5t-35.5 -22q20 -10 36.5 -21.5t28 -29t17.5 -43t6 -62.5q0 -51 -12.5 -83.5t-41.5 -50.5t-77 -25t-119 -7h-279zM360 57q47 0 80.5 1.5t54.5 11.5t30.5 32.5t9.5 63.5
q0 49 -9 75t-28.5 37.5t-50.5 13.5t-75 2h-221v-237h209zM372 351q44 0 74 3t48.5 15t26.5 37t8 70q0 37 -9.5 59t-30 33t-53.5 14t-80 3h-205v-234h221z" />
    <glyph glyph-name="afii10068" unicode="&#x433;" horiz-adv-x="526" 
d="M79 0v642h407l-10 -57h-326v-585h-71z" />
    <glyph glyph-name="afii10069" unicode="&#x434;" horiz-adv-x="709" 
d="M587 -124v124h-487v-98l-57 -10v167h22q29 9 43.5 46t18.5 112l18 425h442v-583h58v-173zM516 583h-300l-18 -362q-3 -61 -13 -100t-30 -62h361v524z" />
    <glyph glyph-name="afii10070" unicode="&#x435;" horiz-adv-x="704" 
d="M610 37q-42 -20 -105.5 -33.5t-133.5 -13.5q-75 0 -133 11.5t-98 46.5t-61 98t-21 167q0 108 22 175t62 104t95.5 50t122.5 13q72 0 128 -14t94.5 -50.5t58.5 -99.5t20 -162v-26h-529q1 -83 15 -133t44 -77.5t78 -36.5t117 -9q30 0 58.5 5t53 11.5t45 14l34.5 12.5z
M585 361q-3 77 -18.5 124t-43 72.5t-68 33.5t-93.5 8q-46 0 -86 -5.5t-70.5 -28.5t-49.5 -71t-23 -133h452z" />
    <glyph glyph-name="afii10072" unicode="&#x436;" horiz-adv-x="997" 
d="M940 0q-25 -4 -46.5 -2.5t-42.5 12.5t-43.5 33t-50.5 60l-142 189h-81v-292h-71v292h-81l-142 -189q-28 -38 -51 -60t-44 -33t-42 -12.5t-46 2.5l-11 53q15 -2 28.5 -0.5t28 10t31.5 25.5t40 47l142 186l-121.5 160.5l-120.5 160.5h85l223 -293h81v293h71v-293h81
l223 293h85l-120.5 -160.5l-121.5 -160.5l142 -186q23 -30 40 -47t31.5 -25.5t28 -10t28.5 0.5z" />
    <glyph glyph-name="afii10073" unicode="&#x437;" horiz-adv-x="604" 
d="M141 294v57h161q44 0 74.5 3.5t50 16.5t28 39t8.5 71q0 37 -9.5 60t-30 35t-53.5 16t-80 4q-30 0 -64 -3.5t-65 -9t-56.5 -11.5t-39.5 -11l-33 53q21 10 50.5 17t63.5 12t70.5 7.5t71.5 2.5q71 0 119 -7.5t76.5 -26t40.5 -51.5t12 -84q0 -38 -6 -64t-17 -44t-27 -31
t-36 -23q20 -10 36.5 -22.5t28 -30.5t17.5 -44.5t6 -63.5q0 -51 -12.5 -84.5t-41.5 -53t-77 -27t-119 -7.5q-35 0 -71.5 2.5t-70.5 7.5t-63.5 12t-50.5 17l33 53q14 -5 39.5 -11t56.5 -11.5t65 -9t64 -3.5q47 0 80.5 2.5t54.5 13.5t30.5 34.5t9.5 64.5q0 49 -9 75.5
t-28.5 39.5t-50.5 15.5t-75 2.5h-161z" />
    <glyph glyph-name="afii10074" unicode="&#x438;" horiz-adv-x="685" 
d="M537 0v544l-379 -544h-79v642h67v-542l379 542h80v-642h-68z" />
    <glyph glyph-name="afii10075" unicode="&#x439;" horiz-adv-x="655" 
d="M540 735q-16 -9 -41.5 -16.5t-55 -12t-61 -7.5t-58.5 -3q-27 1 -57.5 3.5t-59 7.5t-52.5 12t-39 16l27 53q11 -5 32.5 -11t47 -11.5t53.5 -9t52 -3.5t52 3.5t53.5 9t47 11.5t32.5 11zM522 0v544l-379 -544h-79v642h67v-542l379 542h80v-642h-68z" />
    <glyph glyph-name="afii10076" unicode="&#x43a;" horiz-adv-x="675" 
d="M627 0q-25 -4 -46.5 -2.5t-42.5 12.5t-43.5 33t-50.5 60l-142 189h-158v-292h-71v642h71v-293h158l223 293h89l-122.5 -160.5l-123.5 -160.5l142 -186q23 -30 40 -47t31.5 -25.5t28 -10t28.5 0.5z" />
    <glyph glyph-name="afii10077" unicode="&#x43b;" horiz-adv-x="709" 
d="M558 0v583h-300l-20 -382q-3 -66 -15 -107t-36 -63.5t-62.5 -30t-94.5 -7.5l6 53q32 0 55.5 3t39.5 17.5t24.5 45t11.5 85.5l20 445h442v-642h-71z" />
    <glyph glyph-name="afii10078" unicode="&#x43c;" horiz-adv-x="855" 
d="M707 0v562h-3l-238 -562h-78l-238 562h-3v-562h-68v642h108l198 -462l42 -121l42 121l198 462h108v-642h-68z" />
    <glyph glyph-name="afii10079" unicode="&#x43d;" horiz-adv-x="681" 
d="M530 0v312h-380v-312h-71v642h71v-271h380v271h71v-642h-71z" />
    <glyph glyph-name="afii10080" unicode="&#x43e;" 
d="M379 599q-49 0 -94 -4.5t-79 -30.5t-54.5 -82.5t-20.5 -159.5q0 -69 9.5 -116.5t26 -78t39.5 -47.5t50.5 -24.5t58.5 -9t64 -1.5q32 0 63 1.5t58.5 9t51 24.5t40 47.5t26 78t9.5 116.5q0 103 -21 159.5t-55.5 82.5t-79 30.5t-92.5 4.5zM57 322q0 108 25.5 173.5t69 101
t102 47t125.5 11.5t125.5 -11.5t102 -47t69 -101t25.5 -173.5t-25.5 -173.5t-69 -101t-102 -47t-125.5 -11.5t-125.5 11.5t-102 47t-69 101t-25.5 173.5z" />
    <glyph glyph-name="afii10081" unicode="&#x43f;" horiz-adv-x="681" 
d="M530 0v583h-380v-583h-71v642h522v-642h-71z" />
    <glyph glyph-name="afii10082" unicode="&#x440;" horiz-adv-x="595" 
d="M79 0v642h259q71 0 119 -7.5t77 -29.5t41.5 -62.5t12.5 -106.5t-12.5 -106.5t-41.5 -62t-77 -29t-119 -7.5h-187v-231h-72zM513 439q0 52 -9.5 81.5t-30 44t-53.5 17.5t-80 3h-189v-297h189q47 0 80 3t53.5 17t30 43t9.5 82v6z" />
    <glyph glyph-name="afii10083" unicode="&#x441;" horiz-adv-x="650" 
d="M614 31q-42 -20 -103.5 -32t-131.5 -12q-74 0 -133.5 12.5t-101.5 48.5t-65 101.5t-23 171.5t23 171.5t65 101.5t101.5 48.5t133.5 12.5q140 0 225 -40l-33 -53q-29 10 -79 23t-111 13q-54 0 -100 -7.5t-79.5 -35.5t-52.5 -83.5t-19 -150.5q0 -96 19 -151.5t52.5 -83
t79.5 -35t100 -7.5q30 0 60 4.5t56 10.5t48 13t36 12z" />
    <glyph glyph-name="afii10084" unicode="&#x442;" horiz-adv-x="543" 
d="M234 0v585h-227l10 57h529l-10 -57h-230v-585h-72z" />
    <glyph glyph-name="afii10085" unicode="&#x443;" horiz-adv-x="646" 
d="M27 642h74l242 -490l19 44l190 446h81l-200 -442l-33.5 -69.5t-29 -53.5t-30.5 -39t-39.5 -25.5t-57 -14t-80.5 -4.5l6 53q28 0 49.5 1.5t37 5.5t27.5 11.5t23 20.5z" />
    <glyph glyph-name="afii10086" unicode="&#x444;" horiz-adv-x="846" 
d="M387 -57v57h-37q-74 0 -133.5 10.5t-101.5 44t-65 97t-23 169.5t23 169.5t65 97t101.5 44t133.5 10.5h18.5t18.5 -1v58h72v-58q9 1 18 1h19q73 0 133 -10.5t102 -44t65 -97t23 -169.5t-23 -169.5t-65 -97t-102 -44t-133 -10.5q-10 0 -19 -0.5t-18 0.5v-57h-72zM459 57
q8 -1 17 -1h18q54 0 100 5.5t79.5 31t52.5 79t19 149.5q0 95 -19 148.5t-52.5 79t-79.5 31t-100 5.5h-18t-17 -1v-527zM387 584q-9 1 -18 1h-17q-54 0 -100 -5.5t-79.5 -31t-52.5 -79t-19 -148.5q0 -96 19 -149.5t52.5 -79t79.5 -31t100 -5.5h17t18 1v527z" />
    <glyph glyph-name="afii10087" unicode="&#x445;" horiz-adv-x="696" 
d="M555 0l-171 232v-1l-38 58l-24.5 -38.5t-17.5 -23.5l-170 -227h-85l261 336l-55 74l-59 78.5l-59 79l-56 74.5h83l123 -165q20 -25 35.5 -50l27.5 -44q11 18 29.5 42.5l34.5 44.5l136 172h75l-236 -302l127 -169.5l127 -170.5h-88z" />
    <glyph glyph-name="afii10088" unicode="&#x446;" horiz-adv-x="680" 
d="M559 -124v124h-522v642h71v-583h380v583h71v-583h58v-173z" />
    <glyph glyph-name="afii10089" unicode="&#x447;" horiz-adv-x="599" 
d="M446 0v252q-35 -17 -79 -23t-100 -6q-57 0 -104.5 9t-81.5 31.5t-53 61t-19 96.5v221h75v-224q0 -47 13 -74t37 -41t58 -18t76 -4q69 0 111.5 9t66.5 37v315h72v-642h-72z" />
    <glyph glyph-name="afii10090" unicode="&#x448;" horiz-adv-x="932" 
d="M79 0v642h71v-583h280v583h71v-583h280v583h71v-642h-773z" />
    <glyph glyph-name="afii10091" unicode="&#x449;" horiz-adv-x="933" 
d="M808 -124v124h-773v642h71v-583h280v583h71v-583h280v583h71v-583h58v-173z" />
    <glyph glyph-name="afii10092" unicode="&#x44a;" horiz-adv-x="729" 
d="M169 0v585h-135l10 57h197v-231h187q71 0 119 -7.5t77 -29t41.5 -62t12.5 -106.5t-12.5 -106.5t-41.5 -62.5t-77 -29.5t-119 -7.5h-259zM603 209q0 52 -9.5 81.5t-30 43.5t-53.5 17t-80 3h-189v-297h189q47 0 80 3t53.5 17.5t30 43.5t9.5 82v6z" />
    <glyph glyph-name="afii10093" unicode="&#x44b;" horiz-adv-x="838" 
d="M513 209q0 52 -9.5 81.5t-30 43.5t-53.5 17t-80 3h-189v-297h189q47 0 80 3t53.5 17.5t30 43.5t9.5 82v6zM79 0v642h72v-231h187q71 0 119 -7.5t77 -29t41.5 -62t12.5 -106.5t-12.5 -106.5t-41.5 -62.5t-77 -29.5t-119 -7.5h-259zM686 0v642h72v-642h-72z" />
    <glyph glyph-name="afii10094" unicode="&#x44c;" horiz-adv-x="596" 
d="M513 209q0 52 -9.5 81.5t-30 43.5t-53.5 17t-80 3h-189v-297h189q47 0 80 3t53.5 17.5t30 43.5t9.5 82v6zM79 0v642h72v-231h187q71 0 119 -7.5t77 -29t41.5 -62t12.5 -106.5t-12.5 -106.5t-41.5 -62.5t-77 -29.5t-119 -7.5h-259z" />
    <glyph glyph-name="afii10095" unicode="&#x44d;" horiz-adv-x="650" 
d="M116 304v57h403q-3 83 -23.5 130.5t-53.5 71t-77 29.5t-96 6q-30 0 -59 -4t-54.5 -10t-46.5 -12.5t-35 -11.5l-33 53q42 20 101 31t129 11q73 0 133 -12t102 -47t65 -100t23 -171q0 -107 -20.5 -173t-60.5 -102t-98 -48t-134 -12q-70 0 -133.5 13.5t-105.5 33.5l33 53
l34.5 -12.5t45 -14t53 -11.5t58.5 -5q69 0 116.5 9t77.5 36.5t44 78t16 133.5h-404z" />
    <glyph glyph-name="afii10096" unicode="&#x44e;" horiz-adv-x="999" 
d="M78 0v642h71v-271h164q6 91 33.5 147t70 86.5t98.5 40.5t119 10q67 0 125.5 -11.5t102 -47t69 -101t25.5 -173.5t-25.5 -173.5t-69 -101t-102 -47t-125.5 -11.5q-66 0 -124 11t-101.5 45.5t-69.5 98t-27 168.5h-163v-312h-71zM634 45q32 0 63 1.5t58.5 9t51 24.5t40 47.5
t26 78t9.5 116.5q0 103 -21 159.5t-55.5 82.5t-79 30.5t-92.5 4.5q-49 0 -94 -4.5t-79 -30.5t-54.5 -82.5t-20.5 -159.5q0 -69 9.5 -116.5t26 -78t39.5 -47.5t50.5 -24.5t58.5 -9t64 -1.5z" />
    <glyph glyph-name="afii10097" unicode="&#x44f;" horiz-adv-x="669" 
d="M524 288v297h-190q-47 0 -80 -3t-53.5 -17t-30 -44t-9.5 -85q0 -53 9.5 -82.5t30 -44t53.5 -18t80 -3.5h190zM596 0h-72v231h-206l-94 -128q-28 -38 -51 -60t-44 -33t-42 -12.5t-46 2.5l-11 53q15 -2 28.5 -0.5t28 10t31.5 25.5t40 47l77 100q-42 5 -70.5 17.5t-46 35.5
t-25 59t-7.5 89q0 66 12.5 106.5t41.5 62.5t77 29.5t119 7.5h260v-642z" />
    <glyph glyph-name="uni0450" unicode="&#x450;" horiz-adv-x="704" 
d="M610 37q-42 -20 -105.5 -33.5t-133.5 -13.5q-75 0 -133 11.5t-98 46.5t-61 98t-21 167q0 108 22 175t62 104t95.5 50t122.5 13q72 0 128 -14t94.5 -50.5t58.5 -99.5t20 -162v-26h-529q1 -83 15 -133t44 -77.5t78 -36.5t117 -9q30 0 58.5 5t53 11.5t45 14l34.5 12.5z
M585 361q-3 77 -18.5 124t-43 72.5t-68 33.5t-93.5 8q-46 0 -86 -5.5t-70.5 -28.5t-49.5 -71t-23 -133h452zM376 707l-94 107h86l53 -107h-45z" />
    <glyph glyph-name="afii10071" unicode="&#x451;" horiz-adv-x="704" 
d="M610 37q-42 -20 -105.5 -33.5t-133.5 -13.5q-75 0 -133 11.5t-98 46.5t-61 98t-21 167q0 108 22 175t62 104t95.5 50t122.5 13q72 0 128 -14t94.5 -50.5t58.5 -99.5t20 -162v-26h-529q1 -83 15 -133t44 -77.5t78 -36.5t117 -9q30 0 58.5 5t53 11.5t45 14l34.5 12.5z
M585 361q-3 77 -18.5 124t-43 72.5t-68 33.5t-93.5 8q-46 0 -86 -5.5t-70.5 -28.5t-49.5 -71t-23 -133h452zM228 723v73h70v-73h-70zM406 723v73h70v-73h-70z" />
    <glyph glyph-name="afii10099" unicode="&#x452;" horiz-adv-x="773" 
d="M497 -148q47 0 79 3t51 17t27 43t8 82v212q0 52 -9.5 81.5t-30 43.5t-53.5 17t-80 3h-189v-354h-72v585h-227v57h227v72h72v-72h230v-57h-230v-174h187q71 0 119 -7.5t77 -29t41.5 -62t12.5 -106.5v-206q0 -66 -12.5 -106.5t-41.5 -62t-77 -29t-119 -7.5z" />
    <glyph glyph-name="afii10100" unicode="&#x453;" horiz-adv-x="526" 
d="M79 0v642h407l-10 -57h-326v-585h-71zM194 689l53 107h85q-26 -29 -45.5 -53.5l-42.5 -53.5h-50z" />
    <glyph glyph-name="afii10101" unicode="&#x454;" horiz-adv-x="650" 
d="M608 37q-42 -20 -105.5 -33.5t-133.5 -13.5q-76 0 -134.5 12t-98 48t-60 102t-20.5 173q0 106 23 171t65 100t101.5 47t133.5 12q70 0 129 -11t101 -31l-33 -53q-14 5 -35 11.5t-46.5 12.5t-54.5 10t-59 4q-52 0 -96 -6t-77 -29.5t-53.5 -71t-23.5 -130.5h403v-57h-404
q1 -83 15 -133.5t44 -78t78 -36.5t117 -9q30 0 58.5 5t53 11.5t45 14l34.5 12.5z" />
    <glyph glyph-name="afii10102" unicode="&#x455;" horiz-adv-x="624" 
d="M522 562q-14 5 -37 11t-51 11.5t-59 9t-61 3.5q-89 0 -135 -25.5t-46 -93.5q0 -32 3.5 -49t16 -27.5t37.5 -17t69 -15.5q56 -12 112.5 -21.5t102.5 -28t75.5 -51.5t30.5 -91q0 -58 -19 -94.5t-53 -57.5t-81.5 -28.5t-104.5 -7.5q-35 0 -74 3.5t-76.5 10.5t-70.5 15.5
t-55 19.5l15 28t16 27q15 -6 39.5 -14t57.5 -15t73 -12t84 -5q42 0 75.5 2t57 14t36 37.5t12.5 72.5q0 30 -7 47.5t-23 28t-43 16.5t-67 14q-84 16 -143 28.5t-95.5 32t-53 52t-16.5 87.5q0 44 18.5 77t51 54.5t75 32.5t90.5 11q35 0 71.5 -2.5t70.5 -7.5t63.5 -12t50.5 -17
z" />
    <glyph glyph-name="afii10103" unicode="&#x456;" horiz-adv-x="241" 
d="M79 0v642h72v-642h-72z" />
    <glyph glyph-name="afii10104" unicode="&#x457;" horiz-adv-x="241" 
d="M79 0v642h72v-642h-72zM-7 723v73h70v-73h-70zM171 723v73h70v-73h-70z" />
    <glyph glyph-name="afii10105" unicode="&#x458;" horiz-adv-x="322" 
d="M6 48q47 0 80 2.5t53.5 17t30 44.5t9.5 85v445h71v-441q0 -66 -12.5 -106.5t-41.5 -62.5t-77 -29.5t-119 -7.5z" />
    <glyph glyph-name="afii10106" unicode="&#x459;" horiz-adv-x="1117" 
d="M575 0v583h-299l-20 -382q-3 -66 -15 -107t-36 -63.5t-62.5 -30t-94.5 -7.5l6 53q32 0 55.5 3t39.5 17.5t24.5 45t11.5 85.5l20 445h442v-231h187q71 0 119 -7.5t77 -29t41.5 -62t12.5 -106.5t-12.5 -106.5t-41.5 -62.5t-77 -29.5t-119 -7.5h-259zM1009 209
q0 52 -9.5 81.5t-30 43.5t-53.5 17t-80 3h-189v-297h189q47 0 80 3t53.5 17.5t30 43.5t9.5 82v6z" />
    <glyph glyph-name="afii10107" unicode="&#x45a;" horiz-adv-x="1098" 
d="M530 0v312h-380v-312h-71v642h71v-271h380v271h72v-231h187q71 0 119 -7.5t77 -29t41.5 -62t12.5 -106.5t-12.5 -106.5t-41.5 -62.5t-77 -29.5t-119 -7.5h-259zM964 209q0 52 -9.5 81.5t-30 43.5t-53.5 17t-80 3h-189v-297h189q47 0 80 3t53.5 17.5t30 43.5t9.5 82v6z
" />
    <glyph glyph-name="afii10108" unicode="&#x45b;" horiz-adv-x="782" 
d="M676 0v209q0 52 -9.5 81.5t-30 43.5t-53.5 17t-80 3h-189v-354h-72v585h-227v57h227v72h72v-72h230v-57h-230v-174h187q71 0 119 -7.5t77 -29t41.5 -62t12.5 -106.5v-206h-75z" />
    <glyph glyph-name="afii10109" unicode="&#x45c;" horiz-adv-x="675" 
d="M627 0q-25 -4 -46.5 -2.5t-42.5 12.5t-43.5 33t-50.5 60l-142 189h-158v-292h-71v642h71v-293h158l223 293h89l-122.5 -160.5l-123.5 -160.5l142 -186q23 -30 40 -47t31.5 -25.5t28 -10t28.5 0.5zM268 689l53 107h85q-26 -29 -45.5 -53.5l-42.5 -53.5h-50z" />
    <glyph glyph-name="uni045D" unicode="&#x45d;" horiz-adv-x="685" 
d="M537 0v544l-379 -544h-79v642h67v-542l379 542h80v-642h-68zM367 707l-94 107h86l53 -107h-45z" />
    <glyph glyph-name="afii10110" unicode="&#x45e;" horiz-adv-x="633" 
d="M528 735q-16 -9 -41.5 -16.5t-55 -12t-61 -7.5t-58.5 -3q-27 1 -57.5 3.5t-59 7.5t-52.5 12t-39 16l27 53q11 -5 32.5 -11t47 -11.5t53.5 -9t52 -3.5t52 3.5t53.5 9t47 11.5t32.5 11zM15 642h74l242 -490l19 44l190 446h81l-200 -442l-33.5 -69.5t-29 -53.5t-30.5 -39
t-39.5 -25.5t-57 -14t-80.5 -4.5l6 53q28 0 49.5 1.5t37 5.5t27.5 11.5t23 20.5z" />
    <glyph glyph-name="afii10193" unicode="&#x45f;" horiz-adv-x="620" 
d="M339 0v-173l-58 -10v183h-232v642h71v-583h380v583h71v-642h-232z" />
    <glyph glyph-name="afii10050" unicode="&#x490;" horiz-adv-x="456" 
d="M48 0v642h336v97l72 10l-1 -164h-336v-585h-71z" />
    <glyph glyph-name="afii10098" unicode="&#x491;" horiz-adv-x="456" 
d="M48 0v642h336v97l72 10l-1 -164h-336v-585h-71z" />
    <glyph glyph-name="uni04C1" unicode="&#x4c1;" horiz-adv-x="971" 
d="M822 0l-223 292h-78v-292h-71v292h-78l-223 -292h-89l122.5 160l123.5 161q-31 40 -58.5 80l-54.5 80.5l-55 80.5l-58 80h89l203 -293h78v293h71v-293h78l203 293h89l-58 -80l-55 -80.5l-54.5 -80.5t-58.5 -80l123.5 -161l122.5 -160h-89zM623 819q-10 -53 -45.5 -82.5
t-92.5 -29.5q-59 0 -94 27.5t-44 84.5h43q17 -69 92 -69q44 0 67 17t32 52h42z" />
    <glyph glyph-name="uni04C2" unicode="&#x4c2;" horiz-adv-x="997" 
d="M940 0q-25 -4 -46.5 -2.5t-42.5 12.5t-43.5 33t-50.5 60l-142 189h-81v-292h-71v292h-81l-142 -189q-28 -38 -51 -60t-44 -33t-42 -12.5t-46 2.5l-11 53q15 -2 28.5 -0.5t28 10t31.5 25.5t40 47l142 186l-121.5 160.5l-120.5 160.5h85l223 -293h81v293h71v-293h81
l223 293h85l-120.5 -160.5l-121.5 -160.5l142 -186q23 -30 40 -47t31.5 -25.5t28 -10t28.5 0.5zM636 819q-10 -53 -45.5 -82.5t-92.5 -29.5q-59 0 -94 27.5t-44 84.5h43q17 -69 92 -69q44 0 67 17t32 52h42z" />
    <glyph glyph-name="uni04D0" unicode="&#x4d0;" horiz-adv-x="657" 
d="M554 0l-81 201h-291l-80 -201h-74l257 642h86l257 -642h-74zM369 461l-38 121h-6l-38 -121l-84 -209h250zM466 819q-10 -53 -45.5 -82.5t-92.5 -29.5q-59 0 -94 27.5t-44 84.5h43q17 -69 92 -69q44 0 67 17t32 52h42z" />
    <glyph glyph-name="uni04D1" unicode="&#x4d1;" horiz-adv-x="702" 
d="M648 -1q-50 7 -74 29t-32 71q-35 -53 -93.5 -81t-142.5 -28q-57 0 -104.5 9t-81.5 31.5t-53 61t-19 96.5t19 96.5t53 61t81.5 31.5t104.5 9h218q-3 74 -15 116.5t-36.5 63.5t-63 26.5t-95.5 5.5q-30 0 -59 -4t-54.5 -10t-46.5 -12.5t-35 -11.5l-33 53q42 20 101 31
t129 11q81 0 135.5 -12t87 -47t46.5 -100t14 -171v-16v-112q0 -38 3.5 -63.5t10.5 -42t18.5 -25.5t27.5 -13zM525 328h-219q-42 0 -77 -4.5t-60 -19t-39 -42t-14 -74.5t14 -74.5t39.5 -42t60.5 -19t77 -4.5q71 0 114 18t66 53.5t30.5 87t7.5 119.5v2zM489 819
q-10 -53 -45.5 -82.5t-92.5 -29.5q-59 0 -94 27.5t-44 84.5h43q17 -69 92 -69q44 0 67 17t32 52h42z" />
    <glyph glyph-name="uni04D2" unicode="&#x4d2;" horiz-adv-x="657" 
d="M554 0l-81 201h-291l-80 -201h-74l257 642h86l257 -642h-74zM369 461l-38 121h-6l-38 -121l-84 -209h250zM204 741v73h70v-73h-70zM382 741v73h70v-73h-70z" />
    <glyph glyph-name="uni04D3" unicode="&#x4d3;" horiz-adv-x="702" 
d="M648 -1q-50 7 -74 29t-32 71q-35 -53 -93.5 -81t-142.5 -28q-57 0 -104.5 9t-81.5 31.5t-53 61t-19 96.5t19 96.5t53 61t81.5 31.5t104.5 9h218q-3 74 -15 116.5t-36.5 63.5t-63 26.5t-95.5 5.5q-30 0 -59 -4t-54.5 -10t-46.5 -12.5t-35 -11.5l-33 53q42 20 101 31
t129 11q81 0 135.5 -12t87 -47t46.5 -100t14 -171v-16v-112q0 -38 3.5 -63.5t10.5 -42t18.5 -25.5t27.5 -13zM525 328h-219q-42 0 -77 -4.5t-60 -19t-39 -42t-14 -74.5t14 -74.5t39.5 -42t60.5 -19t77 -4.5q71 0 114 18t66 53.5t30.5 87t7.5 119.5v2zM227 741v73h70v-73h-70
zM405 741v73h70v-73h-70z" />
    <glyph glyph-name="uni04D4" unicode="&#x4d4;" horiz-adv-x="819" 
d="M332 0v201h-150l-80 -201h-74l257 642h527l-10 -57h-398v-224h323v-57h-323v-246h408l-10 -58h-470zM332 579l-1 3h-6l-38 -121l-84 -209h129v327z" />
    <glyph glyph-name="uni04D5" unicode="&#x4d5;" horiz-adv-x="1193" 
d="M1097 38q-21 -10 -51 -19t-64.5 -16t-71.5 -11.5t-72 -4.5q-53 0 -97 5.5t-80 20.5t-63 41.5t-44 67.5q-5 -8 -12 -23q-35 -53 -93.5 -81t-142.5 -28q-57 0 -104.5 9t-81.5 31.5t-53 61t-19 96.5t19 96.5t53 61t81.5 31.5t104.5 9h218q-3 74 -15 116.5t-36.5 63.5
t-63 26.5t-95.5 5.5q-30 0 -59 -4t-54.5 -10t-46.5 -12.5t-35 -11.5l-33 53q42 20 101 31t129 11q53 0 94 -4.5t72.5 -17t53 -34.5t35.5 -57q19 34 46 56t60 34.5t71 17.5t81 5q72 0 127.5 -14t93.5 -50.5t58 -99.5t20 -162v-26h-529q1 -83 15 -133.5t44 -78.5t78 -37.5
t117 -9.5q30 0 61.5 5.5t60 13t52 15.5l37.5 13zM525 328h-219q-42 0 -77 -4.5t-60 -19t-39 -42t-14 -74.5t14 -74.5t39.5 -42t60.5 -19t77 -4.5q67 0 109.5 16.5t66 48t32.5 78.5t10 108v29zM1052 361q-3 77 -18.5 124t-43 72.5t-68 33.5t-93.5 8q-46 0 -86 -5.5
t-70.5 -28.5t-49.5 -71t-23 -133h452z" />
    <glyph glyph-name="uni04D6" unicode="&#x4d6;" horiz-adv-x="583" 
d="M79 0v642h480l-10 -57h-398v-224h323v-57h-323v-246h408l-10 -58h-470zM429 819q-10 -53 -45.5 -82.5t-92.5 -29.5q-59 0 -94 27.5t-44 84.5h43q17 -69 92 -69q44 0 67 17t32 52h42z" />
    <glyph glyph-name="uni04D7" unicode="&#x4d7;" horiz-adv-x="704" 
d="M610 37q-42 -20 -105.5 -33.5t-133.5 -13.5q-75 0 -133 11.5t-98 46.5t-61 98t-21 167q0 108 22 175t62 104t95.5 50t122.5 13q72 0 128 -14t94.5 -50.5t58.5 -99.5t20 -162v-26h-529q1 -83 15 -133t44 -77.5t78 -36.5t117 -9q30 0 58.5 5t53 11.5t45 14l34.5 12.5z
M585 361q-3 77 -18.5 124t-43 72.5t-68 33.5t-93.5 8q-46 0 -86 -5.5t-70.5 -28.5t-49.5 -71t-23 -133h452zM490 819q-10 -53 -45.5 -82.5t-92.5 -29.5q-59 0 -94 27.5t-44 84.5h43q17 -69 92 -69q44 0 67 17t32 52h42z" />
    <glyph glyph-name="uni04D8" unicode="&#x4d8;" horiz-adv-x="704" 
d="M58 339h529q-2 82 -16 133t-44 79t-77.5 37.5t-116.5 9.5q-30 0 -61.5 -5.5t-60 -13t-52 -15.5l-37.5 -13l-33 53q21 10 51 19t64.5 16t71.5 11.5t72 4.5q75 0 133 -12t98 -47.5t61 -99.5t21 -167q0 -108 -22.5 -175t-63 -104t-96 -50t-122.5 -13q-72 0 -127.5 14
t-93.5 50.5t-58 99.5t-20 162v26zM134 281q3 -77 18 -124t43 -72.5t68.5 -33.5t93.5 -8q46 0 86 5.5t70.5 28.5t49.5 71t23 133h-452z" />
    <glyph glyph-name="uni04D9" unicode="&#x4d9;" horiz-adv-x="704" 
d="M58 339h529q-2 82 -16 133t-44 79t-77.5 37.5t-116.5 9.5q-30 0 -61.5 -5.5t-60 -13t-52 -15.5l-37.5 -13l-33 53q21 10 51 19t64.5 16t71.5 11.5t72 4.5q75 0 133 -12t98 -47.5t61 -99.5t21 -167q0 -108 -22.5 -175t-63 -104t-96 -50t-122.5 -13q-72 0 -127.5 14
t-93.5 50.5t-58 99.5t-20 162v26zM134 281q3 -77 18 -124t43 -72.5t68.5 -33.5t93.5 -8q46 0 86 5.5t70.5 28.5t49.5 71t23 133h-452z" />
    <glyph glyph-name="uni04DA" unicode="&#x4da;" horiz-adv-x="704" 
d="M58 339h529q-2 82 -16 133t-44 79t-77.5 37.5t-116.5 9.5q-30 0 -61.5 -5.5t-60 -13t-52 -15.5l-37.5 -13l-33 53q21 10 51 19t64.5 16t71.5 11.5t72 4.5q75 0 133 -12t98 -47.5t61 -99.5t21 -167q0 -108 -22.5 -175t-63 -104t-96 -50t-122.5 -13q-72 0 -127.5 14
t-93.5 50.5t-58 99.5t-20 162v26zM134 281q3 -77 18 -124t43 -72.5t68.5 -33.5t93.5 -8q46 0 86 5.5t70.5 28.5t49.5 71t23 133h-452zM228 741v73h70v-73h-70zM406 741v73h70v-73h-70z" />
    <glyph glyph-name="uni04DB" unicode="&#x4db;" horiz-adv-x="704" 
d="M58 339h529q-2 82 -16 133t-44 79t-77.5 37.5t-116.5 9.5q-30 0 -61.5 -5.5t-60 -13t-52 -15.5l-37.5 -13l-33 53q21 10 51 19t64.5 16t71.5 11.5t72 4.5q75 0 133 -12t98 -47.5t61 -99.5t21 -167q0 -108 -22.5 -175t-63 -104t-96 -50t-122.5 -13q-72 0 -127.5 14
t-93.5 50.5t-58 99.5t-20 162v26zM134 281q3 -77 18 -124t43 -72.5t68.5 -33.5t93.5 -8q46 0 86 5.5t70.5 28.5t49.5 71t23 133h-452zM228 741v73h70v-73h-70zM406 741v73h70v-73h-70z" />
    <glyph glyph-name="uni04DC" unicode="&#x4dc;" horiz-adv-x="971" 
d="M822 0l-223 292h-78v-292h-71v292h-78l-223 -292h-89l122.5 160l123.5 161q-31 40 -58.5 80l-54.5 80.5l-55 80.5l-58 80h89l203 -293h78v293h71v-293h78l203 293h89l-58 -80l-55 -80.5l-54.5 -80.5t-58.5 -80l123.5 -161l122.5 -160h-89zM361 741v73h70v-73h-70z
M539 741v73h70v-73h-70z" />
    <glyph glyph-name="uni04DD" unicode="&#x4dd;" horiz-adv-x="997" 
d="M940 0q-25 -4 -46.5 -2.5t-42.5 12.5t-43.5 33t-50.5 60l-142 189h-81v-292h-71v292h-81l-142 -189q-28 -38 -51 -60t-44 -33t-42 -12.5t-46 2.5l-11 53q15 -2 28.5 -0.5t28 10t31.5 25.5t40 47l142 186l-121.5 160.5l-120.5 160.5h85l223 -293h81v293h71v-293h81
l223 293h85l-120.5 -160.5l-121.5 -160.5l142 -186q23 -30 40 -47t31.5 -25.5t28 -10t28.5 0.5zM374 741v73h70v-73h-70zM552 741v73h70v-73h-70z" />
    <glyph glyph-name="uni04DE" unicode="&#x4de;" horiz-adv-x="603" 
d="M141 294v57h161q44 0 74.5 3.5t50 16.5t28 39t8.5 71q0 37 -9.5 60t-30 35t-53.5 16t-80 4q-30 0 -64 -3.5t-65 -9t-56.5 -11.5t-39.5 -11l-33 53q21 10 50.5 17t63.5 12t70.5 7.5t71.5 2.5q71 0 119 -7.5t76.5 -26t40.5 -51.5t12 -84q0 -38 -6 -64t-17 -44t-27 -31
t-36 -23q20 -10 36.5 -22.5t28 -30.5t17.5 -44.5t6 -63.5q0 -51 -12.5 -84.5t-41.5 -53t-77 -27t-119 -7.5q-35 0 -71.5 2.5t-70.5 7.5t-63.5 12t-50.5 17l33 53q14 -5 39.5 -11t56.5 -11.5t65 -9t64 -3.5q47 0 80.5 2.5t54.5 13.5t30.5 34.5t9.5 64.5q0 49 -9 75.5
t-28.5 39.5t-50.5 15.5t-75 2.5h-161zM177 741v73h70v-73h-70zM355 741v73h70v-73h-70z" />
    <glyph glyph-name="uni04DF" unicode="&#x4df;" horiz-adv-x="604" 
d="M141 294v57h161q44 0 74.5 3.5t50 16.5t28 39t8.5 71q0 37 -9.5 60t-30 35t-53.5 16t-80 4q-30 0 -64 -3.5t-65 -9t-56.5 -11.5t-39.5 -11l-33 53q21 10 50.5 17t63.5 12t70.5 7.5t71.5 2.5q71 0 119 -7.5t76.5 -26t40.5 -51.5t12 -84q0 -38 -6 -64t-17 -44t-27 -31
t-36 -23q20 -10 36.5 -22.5t28 -30.5t17.5 -44.5t6 -63.5q0 -51 -12.5 -84.5t-41.5 -53t-77 -27t-119 -7.5q-35 0 -71.5 2.5t-70.5 7.5t-63.5 12t-50.5 17l33 53q14 -5 39.5 -11t56.5 -11.5t65 -9t64 -3.5q47 0 80.5 2.5t54.5 13.5t30.5 34.5t9.5 64.5q0 49 -9 75.5
t-28.5 39.5t-50.5 15.5t-75 2.5h-161zM178 741v73h70v-73h-70zM356 741v73h70v-73h-70z" />
    <glyph glyph-name="uni04E2" unicode="&#x4e2;" horiz-adv-x="685" 
d="M537 0v544l-379 -544h-79v642h67v-542l379 542h80v-642h-68zM205 745v38h275v-38h-275z" />
    <glyph glyph-name="uni04E3" unicode="&#x4e3;" horiz-adv-x="685" 
d="M537 0v544l-379 -544h-79v642h67v-542l379 542h80v-642h-68zM205 745v38h275v-38h-275z" />
    <glyph glyph-name="uni04E4" unicode="&#x4e4;" horiz-adv-x="685" 
d="M537 0v544l-379 -544h-79v642h67v-542l379 542h80v-642h-68zM218 741v73h70v-73h-70zM396 741v73h70v-73h-70z" />
    <glyph glyph-name="uni04E5" unicode="&#x4e5;" horiz-adv-x="685" 
d="M537 0v544l-379 -544h-79v642h67v-542l379 542h80v-642h-68zM218 741v73h70v-73h-70zM396 741v73h70v-73h-70z" />
    <glyph glyph-name="uni04E6" unicode="&#x4e6;" 
d="M379 599q-49 0 -94 -4.5t-79 -30.5t-54.5 -82.5t-20.5 -159.5q0 -69 9.5 -116.5t26 -78t39.5 -47.5t50.5 -24.5t58.5 -9t64 -1.5q32 0 63 1.5t58.5 9t51 24.5t40 47.5t26 78t9.5 116.5q0 103 -21 159.5t-55.5 82.5t-79 30.5t-92.5 4.5zM57 322q0 108 25.5 173.5t69 101
t102 47t125.5 11.5t125.5 -11.5t102 -47t69 -101t25.5 -173.5t-25.5 -173.5t-69 -101t-102 -47t-125.5 -11.5t-125.5 11.5t-102 47t-69 101t-25.5 173.5zM255 741v73h70v-73h-70zM433 741v73h70v-73h-70z" />
    <glyph glyph-name="uni04E7" unicode="&#x4e7;" 
d="M379 599q-49 0 -94 -4.5t-79 -30.5t-54.5 -82.5t-20.5 -159.5q0 -69 9.5 -116.5t26 -78t39.5 -47.5t50.5 -24.5t58.5 -9t64 -1.5q32 0 63 1.5t58.5 9t51 24.5t40 47.5t26 78t9.5 116.5q0 103 -21 159.5t-55.5 82.5t-79 30.5t-92.5 4.5zM57 322q0 108 25.5 173.5t69 101
t102 47t125.5 11.5t125.5 -11.5t102 -47t69 -101t25.5 -173.5t-25.5 -173.5t-69 -101t-102 -47t-125.5 -11.5t-125.5 11.5t-102 47t-69 101t-25.5 173.5zM255 741v73h70v-73h-70zM433 741v73h70v-73h-70z" />
    <glyph glyph-name="uni04E8" unicode="&#x4e8;" 
d="M379 -11q-67 0 -125.5 11.5t-102 47t-69 101t-25.5 173.5t25.5 173.5t69 101t102 47t125.5 11.5t125.5 -11.5t102 -47t69 -101t25.5 -173.5t-25.5 -173.5t-69 -101t-102 -47t-125.5 -11.5zM131 301q1 -64 11.5 -107.5t27 -72t39.5 -44t50 -22.5t57.5 -8.5t62.5 -1.5
q31 0 61 1.5t57.5 8.5t50.5 22.5t40 44t27 72t12 107.5h-496zM627 346q-3 94 -24.5 145.5t-56 75.5t-78 28t-89.5 4q-48 0 -91.5 -4t-77.5 -28t-55.5 -75.5t-23.5 -145.5h496z" />
    <glyph glyph-name="uni04E9" unicode="&#x4e9;" 
d="M379 -11q-67 0 -125.5 11.5t-102 47t-69 101t-25.5 173.5t25.5 173.5t69 101t102 47t125.5 11.5t125.5 -11.5t102 -47t69 -101t25.5 -173.5t-25.5 -173.5t-69 -101t-102 -47t-125.5 -11.5zM131 301q1 -64 11.5 -107.5t27 -72t39.5 -44t50 -22.5t57.5 -8.5t62.5 -1.5
q31 0 61 1.5t57.5 8.5t50.5 22.5t40 44t27 72t12 107.5h-496zM627 346q-3 94 -24.5 145.5t-56 75.5t-78 28t-89.5 4q-48 0 -91.5 -4t-77.5 -28t-55.5 -75.5t-23.5 -145.5h496z" />
    <glyph glyph-name="uni04EA" unicode="&#x4ea;" 
d="M379 -11q-67 0 -125.5 11.5t-102 47t-69 101t-25.5 173.5t25.5 173.5t69 101t102 47t125.5 11.5t125.5 -11.5t102 -47t69 -101t25.5 -173.5t-25.5 -173.5t-69 -101t-102 -47t-125.5 -11.5zM131 301q1 -64 11.5 -107.5t27 -72t39.5 -44t50 -22.5t57.5 -8.5t62.5 -1.5
q31 0 61 1.5t57.5 8.5t50.5 22.5t40 44t27 72t12 107.5h-496zM627 346q-3 94 -24.5 145.5t-56 75.5t-78 28t-89.5 4q-48 0 -91.5 -4t-77.5 -28t-55.5 -75.5t-23.5 -145.5h496zM255 741v73h70v-73h-70zM433 741v73h70v-73h-70z" />
    <glyph glyph-name="uni04EB" unicode="&#x4eb;" 
d="M379 -11q-67 0 -125.5 11.5t-102 47t-69 101t-25.5 173.5t25.5 173.5t69 101t102 47t125.5 11.5t125.5 -11.5t102 -47t69 -101t25.5 -173.5t-25.5 -173.5t-69 -101t-102 -47t-125.5 -11.5zM131 301q1 -64 11.5 -107.5t27 -72t39.5 -44t50 -22.5t57.5 -8.5t62.5 -1.5
q31 0 61 1.5t57.5 8.5t50.5 22.5t40 44t27 72t12 107.5h-496zM627 346q-3 94 -24.5 145.5t-56 75.5t-78 28t-89.5 4q-48 0 -91.5 -4t-77.5 -28t-55.5 -75.5t-23.5 -145.5h496zM255 741v73h70v-73h-70zM433 741v73h70v-73h-70z" />
    <glyph glyph-name="uni04EC" unicode="&#x4ec;" horiz-adv-x="650" 
d="M116 304v57h403q-3 83 -23.5 130.5t-53.5 71t-77 29.5t-96 6q-30 0 -59 -4t-54.5 -10t-46.5 -12.5t-35 -11.5l-33 53q42 20 101 31t129 11q73 0 133 -12t102 -47t65 -100t23 -171q0 -107 -20.5 -173t-60.5 -102t-98 -48t-134 -12q-70 0 -133.5 13.5t-105.5 33.5l33 53
l34.5 -12.5t45 -14t53 -11.5t58.5 -5q69 0 116.5 9t77.5 36.5t44 78t16 133.5h-404zM201 741v73h70v-73h-70zM379 741v73h70v-73h-70z" />
    <glyph glyph-name="uni04ED" unicode="&#x4ed;" horiz-adv-x="650" 
d="M116 304v57h403q-3 83 -23.5 130.5t-53.5 71t-77 29.5t-96 6q-30 0 -59 -4t-54.5 -10t-46.5 -12.5t-35 -11.5l-33 53q42 20 101 31t129 11q73 0 133 -12t102 -47t65 -100t23 -171q0 -107 -20.5 -173t-60.5 -102t-98 -48t-134 -12q-70 0 -133.5 13.5t-105.5 33.5l33 53
l34.5 -12.5t45 -14t53 -11.5t58.5 -5q69 0 116.5 9t77.5 36.5t44 78t16 133.5h-404zM201 741v73h70v-73h-70zM379 741v73h70v-73h-70z" />
    <glyph glyph-name="uni04EE" unicode="&#x4ee;" horiz-adv-x="646" 
d="M27 642h74l242 -490l19 44l190 446h81l-200 -442l-33.5 -69.5t-29 -53.5t-30.5 -39t-39.5 -25.5t-57 -14t-80.5 -4.5l6 53q28 0 49.5 1.5t37 5.5t27.5 11.5t23 20.5zM185 745v38h275v-38h-275z" />
    <glyph glyph-name="uni04EF" unicode="&#x4ef;" horiz-adv-x="646" 
d="M27 642h74l242 -490l19 44l190 446h81l-200 -442l-33.5 -69.5t-29 -53.5t-30.5 -39t-39.5 -25.5t-57 -14t-80.5 -4.5l6 53q28 0 49.5 1.5t37 5.5t27.5 11.5t23 20.5zM185 745v38h275v-38h-275z" />
    <glyph glyph-name="uni04F0" unicode="&#x4f0;" horiz-adv-x="646" 
d="M27 642h74l242 -490l19 44l190 446h81l-200 -442l-33.5 -69.5t-29 -53.5t-30.5 -39t-39.5 -25.5t-57 -14t-80.5 -4.5l6 53q28 0 49.5 1.5t37 5.5t27.5 11.5t23 20.5zM199 741v73h70v-73h-70zM377 741v73h70v-73h-70z" />
    <glyph glyph-name="uni04F1" unicode="&#x4f1;" horiz-adv-x="646" 
d="M27 642h74l242 -490l19 44l190 446h81l-200 -442l-33.5 -69.5t-29 -53.5t-30.5 -39t-39.5 -25.5t-57 -14t-80.5 -4.5l6 53q28 0 49.5 1.5t37 5.5t27.5 11.5t23 20.5zM199 741v73h70v-73h-70zM377 741v73h70v-73h-70z" />
    <glyph glyph-name="uni04F2" unicode="&#x4f2;" horiz-adv-x="646" 
d="M27 642h74l242 -490l19 44l190 446h81l-200 -442l-33.5 -69.5t-29 -53.5t-30.5 -39t-39.5 -25.5t-57 -14t-80.5 -4.5l6 53q28 0 49.5 1.5t37 5.5t27.5 11.5t23 20.5zM167 707l53 107h85q-26 -29 -45.5 -53.5l-42.5 -53.5h-50zM341 707l53 107h85q-26 -29 -45.5 -53.5
l-42.5 -53.5h-50z" />
    <glyph glyph-name="uni04F3" unicode="&#x4f3;" horiz-adv-x="646" 
d="M27 642h74l242 -490l19 44l190 446h81l-200 -442l-33.5 -69.5t-29 -53.5t-30.5 -39t-39.5 -25.5t-57 -14t-80.5 -4.5l6 53q28 0 49.5 1.5t37 5.5t27.5 11.5t23 20.5zM167 707l53 107h85q-26 -29 -45.5 -53.5l-42.5 -53.5h-50zM341 707l53 107h85q-26 -29 -45.5 -53.5
l-42.5 -53.5h-50z" />
    <glyph glyph-name="uni04F4" unicode="&#x4f4;" horiz-adv-x="599" 
d="M446 0v252q-35 -17 -79 -23t-100 -6q-57 0 -104.5 9t-81.5 31.5t-53 61t-19 96.5v221h75v-224q0 -47 13 -74t37 -41t58 -18t76 -4q69 0 111.5 9t66.5 37v315h72v-642h-72zM175 741v73h70v-73h-70zM353 741v73h70v-73h-70z" />
    <glyph glyph-name="uni04F5" unicode="&#x4f5;" horiz-adv-x="599" 
d="M446 0v252q-35 -17 -79 -23t-100 -6q-57 0 -104.5 9t-81.5 31.5t-53 61t-19 96.5v221h75v-224q0 -47 13 -74t37 -41t58 -18t76 -4q69 0 111.5 9t66.5 37v315h72v-642h-72zM175 741v73h70v-73h-70zM353 741v73h70v-73h-70z" />
    <glyph glyph-name="uni04F8" unicode="&#x4f8;" horiz-adv-x="838" 
d="M513 209q0 52 -9.5 81.5t-30 43.5t-53.5 17t-80 3h-189v-297h189q47 0 80 3t53.5 17.5t30 43.5t9.5 82v6zM79 0v642h72v-231h187q71 0 119 -7.5t77 -29t41.5 -62t12.5 -106.5t-12.5 -106.5t-41.5 -62.5t-77 -29.5t-119 -7.5h-259zM686 0v642h72v-642h-72zM295 741v73h70
v-73h-70zM473 741v73h70v-73h-70z" />
    <glyph glyph-name="uni04F9" unicode="&#x4f9;" horiz-adv-x="838" 
d="M513 209q0 52 -9.5 81.5t-30 43.5t-53.5 17t-80 3h-189v-297h189q47 0 80 3t53.5 17.5t30 43.5t9.5 82v6zM79 0v642h72v-231h187q71 0 119 -7.5t77 -29t41.5 -62t12.5 -106.5t-12.5 -106.5t-41.5 -62.5t-77 -29.5t-119 -7.5h-259zM686 0v642h72v-642h-72zM295 741v73h70
v-73h-70zM473 741v73h70v-73h-70z" />
    <glyph glyph-name="uni1E00" unicode="&#x1e00;" horiz-adv-x="657" 
d="M554 0l-81 201h-291l-80 -201h-74l257 642h86l257 -642h-74zM369 461l-38 121h-6l-38 -121l-84 -209h250zM328 -153q13 0 22.5 5t9.5 32q0 26 -10 30.5t-22 4.5q-13 0 -22.5 -4.5t-9.5 -30.5q0 -27 9.5 -32t22.5 -5zM328 -183q-14 0 -25.5 2.5t-20 9.5t-13.5 20t-5 35
q0 21 5 34t13.5 20t20 9.5t25.5 2.5q13 0 25 -2.5t20.5 -9.5t13.5 -20t5 -34q0 -22 -5 -35t-13.5 -20t-20.5 -9.5t-25 -2.5z" />
    <glyph glyph-name="uni1E01" unicode="&#x1e01;" horiz-adv-x="703" 
d="M648 -1q-50 7 -74 29t-32 71q-35 -53 -93.5 -81t-142.5 -28q-57 0 -104.5 9t-81.5 31.5t-53 61t-19 96.5t19 96.5t53 61t81.5 31.5t104.5 9h218q-3 74 -15 116.5t-36.5 63.5t-63 26.5t-95.5 5.5q-30 0 -59 -4t-54.5 -10t-46.5 -12.5t-35 -11.5l-33 53q42 20 101 31
t129 11q81 0 135.5 -12t87 -47t46.5 -100t14 -171v-16v-112q0 -38 3.5 -63.5t10.5 -42t18.5 -25.5t27.5 -13zM525 328h-219q-42 0 -77 -4.5t-60 -19t-39 -42t-14 -74.5t14 -74.5t39.5 -42t60.5 -19t77 -4.5q71 0 114 18t66 53.5t30.5 87t7.5 119.5v2zM351 -153q13 0 22.5 5
t9.5 32q0 26 -10 30.5t-22 4.5q-13 0 -22.5 -4.5t-9.5 -30.5q0 -27 9.5 -32t22.5 -5zM351 -183q-14 0 -25.5 2.5t-20 9.5t-13.5 20t-5 35q0 21 5 34t13.5 20t20 9.5t25.5 2.5q13 0 25 -2.5t20.5 -9.5t13.5 -20t5 -34q0 -22 -5 -35t-13.5 -20t-20.5 -9.5t-25 -2.5z" />
    <glyph glyph-name="uni1E02" unicode="&#x1e02;" horiz-adv-x="675" 
d="M79 0v642h275q71 0 119 -6.5t76.5 -24t40.5 -49.5t12 -83q0 -38 -5 -63t-15.5 -42.5t-26 -29.5t-35.5 -22q20 -10 36.5 -21.5t28 -29t17.5 -43t6 -62.5q0 -51 -12.5 -83.5t-41.5 -50.5t-77 -25t-119 -7h-279zM360 57q47 0 80.5 1.5t54.5 11.5t30.5 32.5t9.5 63.5
q0 49 -9 75t-28.5 37.5t-50.5 13.5t-75 2h-221v-237h209zM372 351q44 0 74 3t48.5 15t26.5 37t8 70q0 37 -9.5 59t-30 33t-53.5 14t-80 3h-205v-234h221zM376 737h-78v73h78v-73z" />
    <glyph glyph-name="uni1E03" unicode="&#x1e03;" horiz-adv-x="675" 
d="M79 0v642h275q71 0 119 -6.5t76.5 -24t40.5 -49.5t12 -83q0 -38 -5 -63t-15.5 -42.5t-26 -29.5t-35.5 -22q20 -10 36.5 -21.5t28 -29t17.5 -43t6 -62.5q0 -51 -12.5 -83.5t-41.5 -50.5t-77 -25t-119 -7h-279zM360 57q47 0 80.5 1.5t54.5 11.5t30.5 32.5t9.5 63.5
q0 49 -9 75t-28.5 37.5t-50.5 13.5t-75 2h-221v-237h209zM372 351q44 0 74 3t48.5 15t26.5 37t8 70q0 37 -9.5 59t-30 33t-53.5 14t-80 3h-205v-234h221zM376 737h-78v73h78v-73z" />
    <glyph glyph-name="uni1E04" unicode="&#x1e04;" horiz-adv-x="675" 
d="M79 0v642h275q71 0 119 -6.5t76.5 -24t40.5 -49.5t12 -83q0 -38 -5 -63t-15.5 -42.5t-26 -29.5t-35.5 -22q20 -10 36.5 -21.5t28 -29t17.5 -43t6 -62.5q0 -51 -12.5 -83.5t-41.5 -50.5t-77 -25t-119 -7h-279zM360 57q47 0 80.5 1.5t54.5 11.5t30.5 32.5t9.5 63.5
q0 49 -9 75t-28.5 37.5t-50.5 13.5t-75 2h-221v-237h209zM372 351q44 0 74 3t48.5 15t26.5 37t8 70q0 37 -9.5 59t-30 33t-53.5 14t-80 3h-205v-234h221zM376 -153h-78v73h78v-73z" />
    <glyph glyph-name="uni1E05" unicode="&#x1e05;" horiz-adv-x="675" 
d="M79 0v642h275q71 0 119 -6.5t76.5 -24t40.5 -49.5t12 -83q0 -38 -5 -63t-15.5 -42.5t-26 -29.5t-35.5 -22q20 -10 36.5 -21.5t28 -29t17.5 -43t6 -62.5q0 -51 -12.5 -83.5t-41.5 -50.5t-77 -25t-119 -7h-279zM360 57q47 0 80.5 1.5t54.5 11.5t30.5 32.5t9.5 63.5
q0 49 -9 75t-28.5 37.5t-50.5 13.5t-75 2h-221v-237h209zM372 351q44 0 74 3t48.5 15t26.5 37t8 70q0 37 -9.5 59t-30 33t-53.5 14t-80 3h-205v-234h221zM376 -153h-78v73h78v-73z" />
    <glyph glyph-name="uni1E06" unicode="&#x1e06;" horiz-adv-x="675" 
d="M79 0v642h275q71 0 119 -6.5t76.5 -24t40.5 -49.5t12 -83q0 -38 -5 -63t-15.5 -42.5t-26 -29.5t-35.5 -22q20 -10 36.5 -21.5t28 -29t17.5 -43t6 -62.5q0 -51 -12.5 -83.5t-41.5 -50.5t-77 -25t-119 -7h-279zM360 57q47 0 80.5 1.5t54.5 11.5t30.5 32.5t9.5 63.5
q0 49 -9 75t-28.5 37.5t-50.5 13.5t-75 2h-221v-237h209zM372 351q44 0 74 3t48.5 15t26.5 37t8 70q0 37 -9.5 59t-30 33t-53.5 14t-80 3h-205v-234h221zM200 -113v38h275v-38h-275z" />
    <glyph glyph-name="uni1E07" unicode="&#x1e07;" horiz-adv-x="675" 
d="M79 0v642h275q71 0 119 -6.5t76.5 -24t40.5 -49.5t12 -83q0 -38 -5 -63t-15.5 -42.5t-26 -29.5t-35.5 -22q20 -10 36.5 -21.5t28 -29t17.5 -43t6 -62.5q0 -51 -12.5 -83.5t-41.5 -50.5t-77 -25t-119 -7h-279zM360 57q47 0 80.5 1.5t54.5 11.5t30.5 32.5t9.5 63.5
q0 49 -9 75t-28.5 37.5t-50.5 13.5t-75 2h-221v-237h209zM372 351q44 0 74 3t48.5 15t26.5 37t8 70q0 37 -9.5 59t-30 33t-53.5 14t-80 3h-205v-234h221zM200 -113v38h275v-38h-275z" />
    <glyph glyph-name="uni1E08" unicode="&#x1e08;" horiz-adv-x="650" 
d="M614 31q-42 -20 -103.5 -32t-131.5 -12q-74 0 -133.5 12.5t-101.5 48.5t-65 101.5t-23 171.5t23 171.5t65 101.5t101.5 48.5t133.5 12.5q140 0 225 -40l-33 -53q-29 10 -79 23t-111 13q-54 0 -100 -7.5t-79.5 -35.5t-52.5 -83.5t-19 -150.5q0 -96 19 -151.5t52.5 -83
t79.5 -35t100 -7.5q30 0 60 4.5t56 10.5t48 13t36 12zM237 -156h4q8 -1 17 -1h14q46 0 69 14q17 15 17 32q0 8 -2 14.5t-9 12t-21 9t-38 4.5l18 61h41l-15 -48q44 -5 65 -21.5t21 -37.5q0 -29 -32 -52.5t-95 -23.5q-34 0 -59 3zM256 707l53 107h85q-26 -29 -45.5 -53.5
l-42.5 -53.5h-50z" />
    <glyph glyph-name="uni1E09" unicode="&#x1e09;" horiz-adv-x="650" 
d="M614 31q-42 -20 -103.5 -32t-131.5 -12q-74 0 -133.5 12.5t-101.5 48.5t-65 101.5t-23 171.5t23 171.5t65 101.5t101.5 48.5t133.5 12.5q140 0 225 -40l-33 -53q-29 10 -79 23t-111 13q-54 0 -100 -7.5t-79.5 -35.5t-52.5 -83.5t-19 -150.5q0 -96 19 -151.5t52.5 -83
t79.5 -35t100 -7.5q30 0 60 4.5t56 10.5t48 13t36 12zM237 -156h4q8 -1 17 -1h14q46 0 69 14q17 15 17 32q0 8 -2 14.5t-9 12t-21 9t-38 4.5l18 61h41l-15 -48q44 -5 65 -21.5t21 -37.5q0 -29 -32 -52.5t-95 -23.5q-34 0 -59 3zM256 707l53 107h85q-26 -29 -45.5 -53.5
l-42.5 -53.5h-50z" />
    <glyph glyph-name="uni1E0A" unicode="&#x1e0a;" horiz-adv-x="689" 
d="M79 0v642h230q73 0 133 -9.5t102 -42.5t65 -96t23 -169q0 -107 -20.5 -171.5t-60.5 -98.5t-98 -44.5t-134 -10.5h-240zM309 58q69 0 117 8t77 36t42 81t13 143q0 95 -19 147.5t-52.5 77t-79.5 29.5t-100 5h-156v-527h158zM383 737h-78v73h78v-73z" />
    <glyph glyph-name="uni1E0B" unicode="&#x1e0b;" horiz-adv-x="689" 
d="M79 0v642h230q73 0 133 -9.5t102 -42.5t65 -96t23 -169q0 -107 -20.5 -171.5t-60.5 -98.5t-98 -44.5t-134 -10.5h-240zM309 58q69 0 117 8t77 36t42 81t13 143q0 95 -19 147.5t-52.5 77t-79.5 29.5t-100 5h-156v-527h158zM383 737h-78v73h78v-73z" />
    <glyph glyph-name="uni1E0C" unicode="&#x1e0c;" horiz-adv-x="689" 
d="M79 0v642h230q73 0 133 -9.5t102 -42.5t65 -96t23 -169q0 -107 -20.5 -171.5t-60.5 -98.5t-98 -44.5t-134 -10.5h-240zM309 58q69 0 117 8t77 36t42 81t13 143q0 95 -19 147.5t-52.5 77t-79.5 29.5t-100 5h-156v-527h158zM383 -153h-78v73h78v-73z" />
    <glyph glyph-name="uni1E0D" unicode="&#x1e0d;" horiz-adv-x="689" 
d="M79 0v642h230q73 0 133 -9.5t102 -42.5t65 -96t23 -169q0 -107 -20.5 -171.5t-60.5 -98.5t-98 -44.5t-134 -10.5h-240zM309 58q69 0 117 8t77 36t42 81t13 143q0 95 -19 147.5t-52.5 77t-79.5 29.5t-100 5h-156v-527h158zM383 -153h-78v73h78v-73z" />
    <glyph glyph-name="uni1E0E" unicode="&#x1e0e;" horiz-adv-x="689" 
d="M79 0v642h230q73 0 133 -9.5t102 -42.5t65 -96t23 -169q0 -107 -20.5 -171.5t-60.5 -98.5t-98 -44.5t-134 -10.5h-240zM309 58q69 0 117 8t77 36t42 81t13 143q0 95 -19 147.5t-52.5 77t-79.5 29.5t-100 5h-156v-527h158zM207 -113v38h275v-38h-275z" />
    <glyph glyph-name="uni1E0F" unicode="&#x1e0f;" horiz-adv-x="689" 
d="M79 0v642h230q73 0 133 -9.5t102 -42.5t65 -96t23 -169q0 -107 -20.5 -171.5t-60.5 -98.5t-98 -44.5t-134 -10.5h-240zM309 58q69 0 117 8t77 36t42 81t13 143q0 95 -19 147.5t-52.5 77t-79.5 29.5t-100 5h-156v-527h158zM207 -113v38h275v-38h-275z" />
    </font>
</defs>
</svg>
